SplineFontDB: 3.2
FontName: GOST2.304-81TypeA-Slanted
FullName: GOST 2.304-81 Type A Slanted
FamilyName: GOST 2.304-81
Weight: Normal
Copyright: 
Version: 0.7.6
ItalicAngle: -15
UnderlinePosition: -90
UnderlineWidth: 45
Ascent: 818
Descent: 182
InvalidEm: 0
sfntRevision: 0x0000b333
LayerCount: 2
Layer: 0 0 "+BBcEMAQ0BD0EOAQ5 +BD8EOwQwBD0A" 1
Layer: 1 0 "+BB8ENQRABDUENAQ9BDgEOQAA +BD8EOwQwBD0A" 0
XUID: [1021 540 1459218968 12169041]
UniqueID: 4020482
StyleMap: 0x0001
FSType: 0
OS2Version: 4
OS2_WeightWidthSlopeOnly: 1
OS2_UseTypoMetrics: 0
CreationTime: 1422632559
ModificationTime: 1680295109
PfmFamily: 17
TTFWeight: 400
TTFWidth: 5
LineGap: 45
VLineGap: 0
Panose: 2 0 5 3 0 0 2 4 0 3
OS2TypoAscent: 818
OS2TypoAOffset: 0
OS2TypoDescent: -182
OS2TypoDOffset: 0
OS2TypoLinegap: 45
OS2WinAscent: 818
OS2WinAOffset: 0
OS2WinDescent: 227
OS2WinDOffset: 0
HheadAscent: 818
HheadAOffset: 0
HheadDescent: -182
HheadDOffset: 0
OS2SubXSize: 650
OS2SubYSize: 710
OS2SubXOff: -90
OS2SubYOff: 227
OS2SupXSize: 650
OS2SupYSize: 710
OS2SupXOff: 308
OS2SupYOff: 409
OS2StrikeYSize: 45
OS2StrikeYPos: 227
OS2CapHeight: 636
OS2XHeight: 455
OS2FamilyClass: 2048
OS2Vendor: 'NCSM'
OS2CodePages: 20000006.00000000
OS2UnicodeRanges: 800002ff.000120df.00000000.00000000
Lookup: 1 0 0 "'zero' Slashed Zero lookup 0" { "'zero' Slashed Zero lookup 0 subtable"  } ['zero' ('DFLT' <'dflt' > 'cyrl' <'RUS ' 'dflt' > 'grek' <'dflt' > 'latn' <'CES ' 'CSY ' 'DEU ' 'ENG ' 'ESP ' 'GAL ' 'HUN ' 'ITA ' 'LTH ' 'PLK ' 'PTG ' 'ROM ' 'RUS ' 'SKY ' 'SLK ' 'TRK ' 'dflt' > 'math' <'RUS ' 'dflt' > ) ]
Lookup: 1 0 0 "'cv01' Character Variants 01 lookup 1" { "'cv01' Character Variants 01 lookup 1 subtable"  } ['cv01' ('DFLT' <'dflt' > 'cyrl' <'RUS ' 'dflt' > 'grek' <'dflt' > 'latn' <'CES ' 'CSY ' 'DEU ' 'ENG ' 'ESP ' 'GAL ' 'HUN ' 'ITA ' 'LTH ' 'PLK ' 'PTG ' 'ROM ' 'RUS ' 'SKY ' 'SLK ' 'TRK ' 'dflt' > 'math' <'RUS ' 'dflt' > ) ]

StartChar: .notdef
Encoding: 65536 -1 0
Width: 409
GlyphClass: 1
Flags: W
TeX: 636 0
LayerCount: 2
Fore
SplineSet
51 19 m 0
 51 22 51 25 52 29 c 2
 211 620 l 2
 214 630 224 636 233 636 c 2
 505 636 l 1
 506 636 l 2
 510 636 529 636 529 618 c 0
 529 615 528 612 527 608 c 2
 369 17 l 2
 366 7 356 0 347 0 c 2
 74 0 l 1
 74 0 l 1
 70 0 51 1 51 19 c 0
104 45 m 1
 330 45 l 1
 476 591 l 1
 250 591 l 1
 104 45 l 1
EndSplineSet
EndChar

StartChar: exclam
Encoding: 33 33 5
Width: 136
GlyphClass: 2
Flags: W
TeX: 636 0
LayerCount: 2
Fore
SplineSet
51 23 m 0
 51 36 61 45 74 45 c 0
 87 45 97 36 97 23 c 0
 97 10 87 0 74 0 c 0
 61 0 51 10 51 23 c 0
88 159 m 0
 88 161 89 163 89 165 c 2
 211 620 l 2
 214 630 223 636 233 636 c 0
 247 636 255 625 255 614 c 2
 255 608 l 1
 133 153 l 2
 130 143 121 136 111 136 c 0
 97 136 88 148 88 159 c 0
EndSplineSet
EndChar

StartChar: quotedbl
Encoding: 34 34 6
Width: 227
GlyphClass: 2
Flags: W
TeX: 636 -500
LayerCount: 2
Fore
SplineSet
163 523 m 0
 163 527 163 530 165 533 c 2
 213 624 l 2
 217 632 225 636 233 636 c 0
 247 636 255 625 255 614 c 0
 255 610 255 606 253 603 c 2
 205 512 l 2
 201 504 193 500 185 500 c 0
 171 500 163 512 163 523 c 0
254 523 m 0
 254 527 254 530 256 533 c 2
 304 624 l 2
 308 632 316 636 324 636 c 0
 338 636 346 625 346 614 c 0
 346 610 346 606 344 603 c 2
 296 512 l 2
 292 504 284 500 276 500 c 0
 262 500 254 512 254 523 c 0
EndSplineSet
EndChar

StartChar: numbersign
Encoding: 35 35 7
Width: 409
GlyphClass: 2
Flags: W
TeX: 636 0
LayerCount: 2
Fore
SplineSet
94 182 m 0
 94 194 105 205 117 205 c 2
 168 205 l 1
 229 432 l 1
 190 432 l 2
 178 432 167 443 167 455 c 0
 167 467 178 477 190 477 c 2
 241 477 l 1
 279 620 l 2
 282 630 291 636 301 636 c 0
 315 636 324 625 324 614 c 0
 324 612 323 610 323 608 c 2
 288 477 l 1
 377 477 l 1
 415 620 l 2
 418 630 427 636 437 636 c 0
 451 636 460 625 460 614 c 0
 460 612 459 610 459 608 c 2
 424 477 l 1
 463 477 l 2
 475 477 485 467 485 455 c 0
 485 443 475 432 463 432 c 2
 412 432 l 1
 351 205 l 1
 390 205 l 2
 402 205 412 194 412 182 c 0
 412 170 402 159 390 159 c 2
 339 159 l 1
 300 17 l 2
 297 7 289 0 279 0 c 0
 265 0 256 12 256 23 c 0
 256 25 257 27 257 29 c 2
 292 159 l 1
 202 159 l 1
 164 17 l 2
 161 7 152 0 142 0 c 0
 128 0 120 12 120 23 c 2
 120 29 l 1
 155 159 l 1
 117 159 l 2
 105 159 94 170 94 182 c 0
215 205 m 1
 304 205 l 1
 365 432 l 1
 275 432 l 1
 215 205 l 1
EndSplineSet
EndChar

StartChar: dollar
Encoding: 36 36 8
Width: 409
GlyphClass: 2
Flags: W
TeX: 727 91
LayerCount: 2
Fore
SplineSet
64 68 m 0
 64 80 74 91 86 91 c 0
 92 91 97 89 102 85 c 0
 125 62 155 49 194 46 c 1
 267 322 l 1
 200 419 l 2
 186 439 179 461 179 485 c 0
 179 495 180 506 183 516 c 0
 203 591 277 631 351 636 c 1
 371 710 l 2
 374 720 383 727 393 727 c 0
 407 727 416 716 416 705 c 0
 416 703 415 701 415 699 c 2
 398 635 l 1
 442 630 479 614 509 585 c 0
 514 580 516 574 516 568 c 0
 516 556 505 545 493 545 c 0
 487 545 482 548 477 552 c 0
 454 574 425 587 386 590 c 1
 317 331 l 1
 380 240 l 2
 395 218 403 193 403 166 c 0
 403 60 315 6 228 0 c 1
 208 -74 l 2
 205 -84 196 -91 186 -91 c 0
 172 -91 164 -79 164 -68 c 0
 164 -66 165 -64 165 -62 c 2
 181 2 l 1
 137 7 100 23 70 52 c 0
 65 57 64 62 64 68 c 0
224 484 m 0
 224 470 228 458 237 445 c 2
 283 380 l 1
 339 589 l 1
 280 580 224 544 224 484 c 0
241 48 m 1
 306 58 358 96 358 166 c 0
 358 184 353 200 343 214 c 2
 301 274 l 1
 241 48 l 1
EndSplineSet
EndChar

StartChar: percent
Encoding: 37 37 9
Width: 955
GlyphClass: 2
Flags: W
TeX: 636 0
LayerCount: 2
Fore
SplineSet
637 136 m 0
 637 211 699 272 774 272 c 0
 849 272 910 211 910 136 c 0
 910 61 849 0 774 0 c 0
 699 0 637 61 637 136 c 0
683 136 m 0
 683 86 724 45 774 45 c 0
 824 45 864 86 864 136 c 0
 864 186 824 227 774 227 c 0
 724 227 683 186 683 136 c 0
228 500 m 0
 228 575 290 636 365 636 c 0
 440 636 501 575 501 500 c 0
 501 425 440 364 365 364 c 0
 290 364 228 425 228 500 c 0
274 500 m 0
 274 450 315 409 365 409 c 0
 415 409 455 450 455 500 c 0
 455 550 415 591 365 591 c 0
 315 591 274 550 274 500 c 0
364 23 m 0
 364 27 365 31 367 35 c 2
 731 625 l 2
 735 632 743 636 751 636 c 0
 764 636 773 625 773 614 c 0
 773 610 772 606 770 602 c 2
 406 11 l 2
 402 4 395 0 387 0 c 0
 374 0 364 12 364 23 c 0
EndSplineSet
EndChar

StartChar: ampersand
Encoding: 38 38 10
Width: 500
GlyphClass: 2
Flags: W
TeX: 636 0
LayerCount: 2
Fore
SplineSet
84 125 m 0
 84 176 105 217 133 246 c 2
 271 394 l 1
 239 476 l 2
 234 487 231 501 231 515 c 0
 231 585 298 636 358 636 c 0
 407 636 441 601 441 554 c 0
 441 516 424 492 403 469 c 2
 323 384 l 1
 407 167 l 1
 426 183 447 202 472 222 c 0
 476 226 482 227 487 227 c 0
 499 227 510 218 510 205 c 0
 510 199 506 192 501 187 c 0
 471 162 446 141 424 122 c 1
 459 31 l 2
 460 28 460 26 460 23 c 0
 460 12 452 0 438 0 c 0
 429 0 420 6 416 15 c 2
 387 91 l 1
 352 61 336 48 332 45 c 0
 295 15 253 0 210 0 c 0
 131 0 84 57 84 125 c 0
129 124 m 0
 129 78 160 45 210 45 c 0
 242 45 272 55 303 80 c 0
 306 82 328 101 370 136 c 1
 289 347 l 1
 166 215 l 2
 146 194 129 163 129 124 c 0
277 514 m 0
 277 507 279 501 282 493 c 2
 305 431 l 1
 370 500 l 2
 385 515 396 530 396 555 c 0
 396 576 383 591 358 591 c 0
 324 591 277 556 277 514 c 0
EndSplineSet
EndChar

StartChar: quotesingle
Encoding: 39 39 11
Width: 136
GlyphClass: 2
Flags: W
TeX: 636 -500
LayerCount: 2
Fore
SplineSet
163 523 m 0
 163 527 163 530 165 533 c 2
 213 624 l 2
 217 632 225 636 233 636 c 0
 247 636 255 625 255 614 c 0
 255 610 255 606 253 603 c 2
 205 512 l 2
 201 504 193 500 185 500 c 0
 171 500 163 512 163 523 c 0
EndSplineSet
EndChar

StartChar: parenleft
Encoding: 40 40 12
Width: 181
GlyphClass: 2
Flags: W
TeX: 682 45
LayerCount: 2
Fore
SplineSet
85 -23 m 0
 85 102 104 220 132 324 c 0
 160 429 206 545 270 670 c 0
 274 678 282 682 290 682 c 0
 304 682 313 670 313 659 c 0
 313 655 313 652 311 649 c 0
 248 526 202 413 175 312 c 0
 148 211 133 100 130 -23 c 0
 130 -35 120 -45 108 -45 c 0
 95 -45 85 -35 85 -23 c 0
EndSplineSet
EndChar

StartChar: parenright
Encoding: 41 41 13
Width: 181
GlyphClass: 2
Flags: W
TeX: 682 45
LayerCount: 2
Fore
SplineSet
40 -23 m 0
 40 -19 40 -15 42 -12 c 0
 105 111 150 223 177 324 c 0
 204 425 219 537 222 660 c 0
 222 672 233 682 245 682 c 0
 258 682 268 671 268 659 c 0
 268 534 249 416 221 312 c 0
 193 207 147 92 83 -33 c 0
 79 -41 70 -45 62 -45 c 0
 48 -45 40 -34 40 -23 c 0
EndSplineSet
EndChar

StartChar: asterisk
Encoding: 42 42 14
Width: 409
GlyphClass: 2
Flags: W
TeX: 636 -409
LayerCount: 2
Fore
SplineSet
231 523 m 0
 231 535 242 545 254 545 c 2
 316 545 l 1
 301 609 l 1
 301 614 l 2
 301 625 310 636 324 636 c 0
 334 636 344 629 346 619 c 2
 356 575 l 1
 396 627 l 2
 401 633 408 636 415 636 c 0
 428 636 437 626 437 614 c 0
 437 609 436 604 433 600 c 2
 391 545 l 1
 435 545 l 2
 447 545 458 535 458 523 c 0
 458 511 447 500 435 500 c 2
 373 500 l 1
 388 437 l 2
 388 435 389 434 389 432 c 0
 389 421 380 409 366 409 c 0
 356 409 346 417 344 427 c 2
 334 471 l 1
 293 418 l 2
 288 412 282 409 275 409 c 0
 262 409 252 420 252 432 c 0
 252 437 254 441 257 445 c 2
 299 500 l 1
 254 500 l 2
 242 500 231 511 231 523 c 0
EndSplineSet
EndChar

StartChar: plus
Encoding: 43 43 15
Width: 318
GlyphClass: 2
Flags: W
TeX: 364 -91
LayerCount: 2
Fore
SplineSet
84 227 m 0
 84 239 94 250 106 250 c 2
 203 250 l 1
 229 347 l 2
 232 357 240 364 250 364 c 0
 264 364 273 352 273 341 c 0
 273 339 272 337 272 335 c 2
 250 250 l 1
 334 250 l 2
 346 250 356 239 356 227 c 0
 356 215 346 205 334 205 c 2
 237 205 l 1
 211 108 l 2
 208 98 200 91 190 91 c 0
 176 91 167 103 167 114 c 0
 167 116 168 118 168 120 c 2
 190 205 l 1
 106 205 l 2
 94 205 84 215 84 227 c 0
EndSplineSet
EndChar

StartChar: comma
Encoding: 44 44 16
Width: 136
GlyphClass: 2
Flags: W
TeX: 45 91
LayerCount: 2
Fore
SplineSet
5 -68 m 0
 5 -64 5 -61 7 -58 c 2
 54 33 l 2
 58 41 66 45 74 45 c 0
 88 45 97 34 97 23 c 0
 97 19 96 15 94 12 c 2
 47 -79 l 2
 43 -87 35 -91 27 -91 c 0
 13 -91 5 -79 5 -68 c 0
EndSplineSet
EndChar

StartChar: hyphen
Encoding: 45 45 17
Width: 318
GlyphClass: 2
Flags: W
TeX: 250 -205
LayerCount: 2
Fore
SplineSet
84 227 m 0
 84 239 94 250 106 250 c 2
 334 250 l 2
 346 250 356 239 356 227 c 0
 356 215 346 205 334 205 c 2
 106 205 l 2
 94 205 84 215 84 227 c 0
EndSplineSet
EndChar

StartChar: period
Encoding: 46 46 18
Width: 136
GlyphClass: 2
Flags: W
TeX: 45 0
LayerCount: 2
Fore
SplineSet
51 23 m 0
 51 36 61 45 74 45 c 0
 87 45 97 36 97 23 c 0
 97 10 87 0 74 0 c 0
 61 0 51 10 51 23 c 0
EndSplineSet
Substitution2: "Single Substitution lookup 43 subtable" onedotenleader
Substitution2: "Single Substitution lookup 42 subtable" onedotenleader
EndChar

StartChar: slash
Encoding: 47 47 19
Width: 682
GlyphClass: 2
Flags: W
TeX: 636 0
LayerCount: 2
Fore
SplineSet
228 23 m 0
 228 27 229 31 231 35 c 2
 595 625 l 2
 599 632 607 636 615 636 c 0
 628 636 637 625 637 614 c 0
 637 610 636 606 634 602 c 2
 270 11 l 2
 266 4 259 0 251 0 c 0
 238 0 228 12 228 23 c 0
EndSplineSet
Substitution2: "Single Substitution lookup 3 subtable" fraction
EndChar

StartChar: zero
Encoding: 48 48 20
Width: 409
GlyphClass: 2
Flags: W
TeX: 636 0
LayerCount: 2
Fore
SplineSet
84 125 m 0
 84 138 85 151 89 165 c 2
 174 483 l 2
 197 568 283 636 369 636 c 0
 448 636 496 579 496 511 c 0
 496 498 494 485 490 471 c 2
 405 153 l 2
 382 68 296 0 210 0 c 0
 131 0 84 57 84 125 c 0
129 124 m 0
 129 78 160 45 210 45 c 0
 273 45 345 100 362 165 c 2
 447 483 l 2
 450 493 451 504 451 513 c 0
 451 559 419 591 369 591 c 0
 306 591 235 536 218 471 c 2
 133 153 l 2
 130 143 129 133 129 124 c 0
EndSplineSet
Substitution2: "'dnom' Denominators lookup 29 subtable" zero.dnom
Substitution2: "'numr' Numerators lookup 28 subtable" zero.numr
Substitution2: "Single Substitution lookup 25 subtable" zero.dnom
Substitution2: "Single Substitution lookup 23 subtable" zero.numr
Substitution2: "Single Substitution lookup 21 subtable" zero.numr
Substitution2: "Single Substitution lookup 19 subtable" zero.numr
Substitution2: "Single Substitution lookup 17 subtable" zero.numr
Substitution2: "Single Substitution lookup 15 subtable" zero.numr
Substitution2: "Single Substitution lookup 13 subtable" zero.numr
Substitution2: "Single Substitution lookup 11 subtable" zero.numr
Substitution2: "Single Substitution lookup 9 subtable" zero.numr
Substitution2: "Single Substitution lookup 7 subtable" zero.numr
Substitution2: "Single Substitution lookup 5 subtable" zero.numr
Substitution2: "'zero' Slashed Zero lookup 0 subtable" zero.slash
EndChar

StartChar: one
Encoding: 49 49 21
Width: 272
GlyphClass: 2
Flags: W
TeX: 636 0
LayerCount: 2
Fore
SplineSet
173 477 m 0
 173 484 177 490 182 495 c 2
 355 631 l 2
 359 634 364 636 369 636 c 2
 370 636 l 2
 374 636 392 636 392 618 c 0
 392 615 392 612 391 608 c 2
 232 17 l 2
 229 7 219 0 210 0 c 0
 197 0 189 11 189 24 c 0
 189 27 189 30 190 33 c 2
 330 554 l 1
 210 460 l 2
 206 457 201 455 196 455 c 0
 184 455 173 464 173 477 c 0
EndSplineSet
Substitution2: "'dnom' Denominators lookup 29 subtable" one.dnom
Substitution2: "'numr' Numerators lookup 28 subtable" one.numr
Substitution2: "Single Substitution lookup 25 subtable" one.dnom
Substitution2: "Single Substitution lookup 23 subtable" one.numr
Substitution2: "Single Substitution lookup 21 subtable" one.numr
Substitution2: "Single Substitution lookup 19 subtable" one.numr
Substitution2: "Single Substitution lookup 17 subtable" one.numr
Substitution2: "Single Substitution lookup 15 subtable" one.numr
Substitution2: "Single Substitution lookup 13 subtable" one.numr
Substitution2: "Single Substitution lookup 11 subtable" one.numr
Substitution2: "Single Substitution lookup 9 subtable" one.numr
Substitution2: "Single Substitution lookup 7 subtable" one.numr
Substitution2: "Single Substitution lookup 5 subtable" one.numr
EndChar

StartChar: two
Encoding: 50 50 22
Width: 409
GlyphClass: 2
Flags: W
TeX: 636 0
LayerCount: 2
Fore
SplineSet
51 23 m 0
 51 29 54 35 58 39 c 2
 415 425 l 2
 435 446 451 476 451 513 c 0
 451 559 419 591 369 591 c 0
 319 591 262 554 235 511 c 0
 231 504 223 500 215 500 c 0
 202 500 193 512 193 523 c 0
 193 527 194 531 196 535 c 0
 230 591 299 636 369 636 c 0
 448 636 496 579 496 511 c 0
 496 461 477 424 449 394 c 2
 126 45 l 1
 347 45 l 2
 359 45 370 35 370 23 c 0
 370 11 359 0 347 0 c 2
 74 0 l 2
 62 0 51 11 51 23 c 0
EndSplineSet
Substitution2: "'dnom' Denominators lookup 29 subtable" two.dnom
Substitution2: "'numr' Numerators lookup 28 subtable" two.numr
Substitution2: "Single Substitution lookup 25 subtable" two.dnom
Substitution2: "Single Substitution lookup 23 subtable" two.numr
Substitution2: "Single Substitution lookup 21 subtable" two.numr
Substitution2: "Single Substitution lookup 19 subtable" two.numr
Substitution2: "Single Substitution lookup 17 subtable" two.numr
Substitution2: "Single Substitution lookup 15 subtable" two.numr
Substitution2: "Single Substitution lookup 13 subtable" two.numr
Substitution2: "Single Substitution lookup 11 subtable" two.numr
Substitution2: "Single Substitution lookup 9 subtable" two.numr
Substitution2: "Single Substitution lookup 7 subtable" two.numr
Substitution2: "Single Substitution lookup 5 subtable" two.numr
EndChar

StartChar: three
Encoding: 51 51 23
Width: 363
GlyphClass: 2
Flags: W
TeX: 636 0
LayerCount: 2
Fore
SplineSet
51 23 m 0
 51 35 62 45 74 45 c 2
 142 45 l 2
 219 45 301 108 322 188 c 0
 325 200 327 212 327 224 c 0
 327 274 300 318 250 318 c 0
 238 318 228 328 228 340 c 0
 228 353 237 364 250 364 c 0
 312 364 360 414 379 483 c 0
 382 493 383 504 383 513 c 0
 383 559 351 591 301 591 c 2
 233 591 l 2
 221 591 210 602 210 614 c 0
 210 626 221 636 233 636 c 2
 301 636 l 2
 380 636 428 579 428 511 c 0
 428 498 426 485 422 471 c 0
 407 416 374 364 325 337 c 1
 357 310 372 268 372 224 c 0
 372 208 370 191 366 176 c 0
 339 76 241 0 142 0 c 2
 74 0 l 2
 62 0 51 11 51 23 c 0
EndSplineSet
Substitution2: "'dnom' Denominators lookup 29 subtable" three.dnom
Substitution2: "'numr' Numerators lookup 28 subtable" three.numr
Substitution2: "Single Substitution lookup 25 subtable" three.dnom
Substitution2: "Single Substitution lookup 23 subtable" three.numr
Substitution2: "Single Substitution lookup 21 subtable" three.numr
Substitution2: "Single Substitution lookup 19 subtable" three.numr
Substitution2: "Single Substitution lookup 17 subtable" three.numr
Substitution2: "Single Substitution lookup 15 subtable" three.numr
Substitution2: "Single Substitution lookup 13 subtable" three.numr
Substitution2: "Single Substitution lookup 11 subtable" three.numr
Substitution2: "Single Substitution lookup 9 subtable" three.numr
Substitution2: "Single Substitution lookup 7 subtable" three.numr
Substitution2: "Single Substitution lookup 5 subtable" three.numr
Substitution2: "'cv01' Character Variants 01 lookup 1 subtable" three.alt
EndChar

StartChar: four
Encoding: 52 52 24
Width: 409
GlyphClass: 2
Flags: W
TeX: 636 0
LayerCount: 2
Fore
SplineSet
85 152 m 0
 85 157 87 163 91 170 c 2
 326 624 l 2
 330 632 339 636 347 636 c 0
 359 636 370 626 370 614 c 0
 370 609 367 605 365 600 c 2
 148 182 l 1
 275 182 l 1
 307 301 l 2
 310 311 319 318 329 318 c 0
 343 318 352 306 352 295 c 0
 352 293 351 292 351 290 c 2
 322 182 l 1
 384 182 l 2
 396 182 406 171 406 159 c 0
 406 147 396 136 384 136 c 2
 310 136 l 1
 278 17 l 2
 275 7 264 0 255 0 c 0
 242 0 234 11 234 24 c 0
 234 27 234 30 235 33 c 2
 263 136 l 1
 111 136 l 1
 108 136 l 2
 101 136 85 137 85 152 c 0
EndSplineSet
Substitution2: "'dnom' Denominators lookup 29 subtable" four.dnom
Substitution2: "'numr' Numerators lookup 28 subtable" four.numr
Substitution2: "Single Substitution lookup 25 subtable" four.dnom
Substitution2: "Single Substitution lookup 23 subtable" four.numr
Substitution2: "Single Substitution lookup 21 subtable" four.numr
Substitution2: "Single Substitution lookup 19 subtable" four.numr
Substitution2: "Single Substitution lookup 17 subtable" four.numr
Substitution2: "Single Substitution lookup 15 subtable" four.numr
Substitution2: "Single Substitution lookup 13 subtable" four.numr
Substitution2: "Single Substitution lookup 11 subtable" four.numr
Substitution2: "Single Substitution lookup 9 subtable" four.numr
Substitution2: "Single Substitution lookup 7 subtable" four.numr
Substitution2: "Single Substitution lookup 5 subtable" four.numr
EndChar

StartChar: five
Encoding: 53 53 25
Width: 363
GlyphClass: 2
Flags: W
TeX: 636 0
LayerCount: 2
Fore
SplineSet
51 23 m 0
 51 35 62 45 74 45 c 2
 148 45 l 2
 231 45 300 105 322 188 c 0
 326 203 328 216 328 229 c 0
 328 281 300 318 250 318 c 2
 160 318 l 2
 140 318 136 329 136 337 c 0
 136 342 138 346 138 347 c 2
 211 620 l 2
 213 629 222 636 233 636 c 2
 460 636 l 2
 472 636 483 626 483 614 c 0
 483 602 472 591 460 591 c 2
 250 591 l 1
 189 364 l 1
 250 364 l 2
 333 364 373 298 373 228 c 0
 373 211 371 193 366 176 c 0
 339 76 254 0 148 0 c 2
 74 0 l 2
 62 0 51 11 51 23 c 0
EndSplineSet
Substitution2: "'dnom' Denominators lookup 29 subtable" five.dnom
Substitution2: "'numr' Numerators lookup 28 subtable" five.numr
Substitution2: "Single Substitution lookup 25 subtable" five.dnom
Substitution2: "Single Substitution lookup 23 subtable" five.numr
Substitution2: "Single Substitution lookup 21 subtable" five.numr
Substitution2: "Single Substitution lookup 19 subtable" five.numr
Substitution2: "Single Substitution lookup 17 subtable" five.numr
Substitution2: "Single Substitution lookup 15 subtable" five.numr
Substitution2: "Single Substitution lookup 13 subtable" five.numr
Substitution2: "Single Substitution lookup 11 subtable" five.numr
Substitution2: "Single Substitution lookup 9 subtable" five.numr
Substitution2: "Single Substitution lookup 7 subtable" five.numr
Substitution2: "Single Substitution lookup 5 subtable" five.numr
EndChar

StartChar: six
Encoding: 54 54 26
Width: 409
GlyphClass: 2
Flags: W
TeX: 636 0
LayerCount: 2
Fore
SplineSet
88 136 m 0
 88 153 90 171 95 188 c 2
 144 370 l 2
 151 398 174 431 212 477 c 0
 260 535 337 601 405 634 c 0
 408 635 412 636 415 636 c 0
 426 636 437 628 437 614 c 0
 437 605 433 597 425 593 c 0
 366 565 290 501 247 448 c 0
 215 409 196 380 190 364 c 1
 296 364 l 2
 378 364 418 298 418 228 c 0
 418 211 416 193 411 176 c 0
 387 88 304 0 210 0 c 0
 128 0 88 66 88 136 c 0
133 135 m 0
 133 83 160 45 210 45 c 0
 283 45 373 133 373 229 c 0
 373 281 346 318 296 318 c 2
 177 318 l 1
 139 176 l 2
 135 162 133 148 133 135 c 0
EndSplineSet
Substitution2: "'dnom' Denominators lookup 29 subtable" six.dnom
Substitution2: "'numr' Numerators lookup 28 subtable" six.numr
Substitution2: "Single Substitution lookup 25 subtable" six.dnom
Substitution2: "Single Substitution lookup 23 subtable" six.numr
Substitution2: "Single Substitution lookup 21 subtable" six.numr
Substitution2: "Single Substitution lookup 19 subtable" six.numr
Substitution2: "Single Substitution lookup 17 subtable" six.numr
Substitution2: "Single Substitution lookup 15 subtable" six.numr
Substitution2: "Single Substitution lookup 13 subtable" six.numr
Substitution2: "Single Substitution lookup 11 subtable" six.numr
Substitution2: "Single Substitution lookup 9 subtable" six.numr
Substitution2: "Single Substitution lookup 7 subtable" six.numr
Substitution2: "Single Substitution lookup 5 subtable" six.numr
EndChar

StartChar: seven
Encoding: 55 55 27
Width: 409
GlyphClass: 2
Flags: W
TeX: 636 0
LayerCount: 2
Fore
SplineSet
188 23 m 0
 188 26 189 30 190 33 c 2
 469 591 l 1
 250 591 l 1
 236 540 l 2
 233 530 225 523 215 523 c 0
 201 523 192 534 192 545 c 0
 192 547 193 549 193 551 c 2
 211 620 l 2
 214 630 224 636 233 636 c 2
 505 636 l 1
 508 636 l 2
 514 636 530 635 530 620 c 0
 530 616 530 611 526 604 c 2
 231 13 l 2
 227 5 218 0 210 0 c 0
 196 0 188 12 188 23 c 0
EndSplineSet
Substitution2: "'dnom' Denominators lookup 29 subtable" seven.dnom
Substitution2: "'numr' Numerators lookup 28 subtable" seven.numr
Substitution2: "Single Substitution lookup 25 subtable" seven.dnom
Substitution2: "Single Substitution lookup 23 subtable" seven.numr
Substitution2: "Single Substitution lookup 21 subtable" seven.numr
Substitution2: "Single Substitution lookup 19 subtable" seven.numr
Substitution2: "Single Substitution lookup 17 subtable" seven.numr
Substitution2: "Single Substitution lookup 15 subtable" seven.numr
Substitution2: "Single Substitution lookup 13 subtable" seven.numr
Substitution2: "Single Substitution lookup 11 subtable" seven.numr
Substitution2: "Single Substitution lookup 9 subtable" seven.numr
Substitution2: "Single Substitution lookup 7 subtable" seven.numr
Substitution2: "Single Substitution lookup 5 subtable" seven.numr
EndChar

StartChar: eight
Encoding: 56 56 28
Width: 454
GlyphClass: 2
Flags: W
TeX: 636 0
LayerCount: 2
Fore
SplineSet
88 140 m 0
 88 155 90 171 95 188 c 0
 115 260 169 318 235 346 c 1
 207 369 191 404 191 443 c 0
 191 456 193 469 197 483 c 0
 220 568 306 636 392 636 c 0
 471 636 519 579 519 511 c 0
 519 498 517 485 513 471 c 0
 498 416 456 367 405 340 c 1
 443 315 464 274 464 225 c 0
 464 209 462 193 457 176 c 0
 430 76 333 0 233 0 c 0
 143 0 88 62 88 140 c 0
133 137 m 0
 133 81 172 45 233 45 c 0
 312 45 392 108 413 188 c 0
 417 202 419 215 419 227 c 0
 419 283 380 318 319 318 c 0
 239 318 161 257 139 176 c 0
 135 162 133 149 133 137 c 0
236 442 m 0
 236 396 269 364 319 364 c 0
 387 364 474 430 474 513 c 0
 474 559 442 591 392 591 c 0
 324 591 236 525 236 442 c 0
EndSplineSet
Substitution2: "'dnom' Denominators lookup 29 subtable" eight.dnom
Substitution2: "'numr' Numerators lookup 28 subtable" eight.numr
Substitution2: "Single Substitution lookup 25 subtable" eight.dnom
Substitution2: "Single Substitution lookup 23 subtable" eight.numr
Substitution2: "Single Substitution lookup 21 subtable" eight.numr
Substitution2: "Single Substitution lookup 19 subtable" eight.numr
Substitution2: "Single Substitution lookup 17 subtable" eight.numr
Substitution2: "Single Substitution lookup 15 subtable" eight.numr
Substitution2: "Single Substitution lookup 13 subtable" eight.numr
Substitution2: "Single Substitution lookup 11 subtable" eight.numr
Substitution2: "Single Substitution lookup 9 subtable" eight.numr
Substitution2: "Single Substitution lookup 7 subtable" eight.numr
Substitution2: "Single Substitution lookup 5 subtable" eight.numr
EndChar

StartChar: nine
Encoding: 57 57 29
Width: 409
GlyphClass: 2
Flags: W
TeX: 636 0
LayerCount: 2
Fore
SplineSet
142 23 m 0
 142 32 147 39 155 43 c 0
 214 71 290 136 333 189 c 0
 365 228 384 257 390 273 c 1
 284 273 l 2
 202 273 161 339 161 409 c 0
 161 426 163 443 168 460 c 0
 192 548 275 636 369 636 c 0
 451 636 491 570 491 500 c 0
 491 483 490 466 485 449 c 2
 436 267 l 2
 429 239 406 206 368 160 c 0
 320 102 243 35 175 2 c 0
 172 1 168 0 165 0 c 0
 154 0 142 9 142 23 c 0
206 408 m 0
 206 356 234 318 284 318 c 2
 403 318 l 1
 441 460 l 2
 445 474 446 488 446 501 c 0
 446 553 419 591 369 591 c 0
 296 591 206 504 206 408 c 0
EndSplineSet
Substitution2: "'dnom' Denominators lookup 29 subtable" nine.dnom
Substitution2: "'numr' Numerators lookup 28 subtable" nine.numr
Substitution2: "Single Substitution lookup 25 subtable" nine.dnom
Substitution2: "Single Substitution lookup 23 subtable" nine.numr
Substitution2: "Single Substitution lookup 21 subtable" nine.numr
Substitution2: "Single Substitution lookup 19 subtable" nine.numr
Substitution2: "Single Substitution lookup 17 subtable" nine.numr
Substitution2: "Single Substitution lookup 15 subtable" nine.numr
Substitution2: "Single Substitution lookup 13 subtable" nine.numr
Substitution2: "Single Substitution lookup 11 subtable" nine.numr
Substitution2: "Single Substitution lookup 9 subtable" nine.numr
Substitution2: "Single Substitution lookup 7 subtable" nine.numr
Substitution2: "Single Substitution lookup 5 subtable" nine.numr
EndChar

StartChar: colon
Encoding: 58 58 30
Width: 136
GlyphClass: 2
Flags: W
TeX: 318 0
LayerCount: 2
Fore
SplineSet
124 296 m 0
 124 309 134 318 147 318 c 0
 160 318 170 309 170 296 c 0
 170 283 160 273 147 273 c 0
 134 273 124 283 124 296 c 0
51 23 m 0
 51 36 61 45 74 45 c 0
 87 45 97 36 97 23 c 0
 97 10 87 0 74 0 c 0
 61 0 51 10 51 23 c 0
EndSplineSet
EndChar

StartChar: semicolon
Encoding: 59 59 31
Width: 136
GlyphClass: 2
Flags: W
TeX: 318 91
LayerCount: 2
Fore
SplineSet
124 296 m 0
 124 309 134 318 147 318 c 0
 160 318 170 309 170 296 c 0
 170 283 160 273 147 273 c 0
 134 273 124 283 124 296 c 0
5 -68 m 0
 5 -64 5 -61 7 -58 c 2
 54 33 l 2
 58 41 66 45 74 45 c 0
 88 45 97 34 97 23 c 0
 97 19 96 15 94 12 c 2
 47 -79 l 2
 43 -87 35 -91 27 -91 c 0
 13 -91 5 -79 5 -68 c 0
EndSplineSet
EndChar

StartChar: less
Encoding: 60 60 32
Width: 363
GlyphClass: 2
Flags: W
TeX: 364 -91
LayerCount: 2
Fore
SplineSet
101 227 m 0
 101 239 120 248 120 248 c 1
 378 362 l 2
 381 363 384 364 387 364 c 0
 398 364 410 355 410 341 c 0
 410 332 405 324 396 320 c 2
 179 225 l 1
 337 133 l 2
 344 129 349 122 349 114 c 0
 349 101 337 91 326 91 c 0
 322 91 319 92 315 94 c 2
 118 208 l 2
 106 215 101 221 101 227 c 0
EndSplineSet
EndChar

StartChar: equal
Encoding: 61 61 33
Width: 318
GlyphClass: 2
Flags: W
TeX: 318 -137
LayerCount: 2
Fore
SplineSet
66 159 m 0
 66 171 76 182 88 182 c 2
 316 182 l 2
 328 182 338 171 338 159 c 0
 338 147 328 137 316 137 c 2
 88 137 l 2
 76 137 66 147 66 159 c 0
102 295 m 0
 102 307 112 318 124 318 c 2
 352 318 l 2
 364 318 374 307 374 295 c 0
 374 283 364 273 352 273 c 2
 124 273 l 2
 112 273 102 283 102 295 c 0
EndSplineSet
EndChar

StartChar: greater
Encoding: 62 62 34
Width: 363
GlyphClass: 2
Flags: W
TeX: 386 -114
LayerCount: 2
Fore
SplineSet
82 136 m 0
 82 145 86 153 95 157 c 2
 312 253 l 1
 154 344 l 2
 147 348 143 356 143 364 c 0
 143 377 154 386 165 386 c 0
 169 386 173 385 177 383 c 2
 374 270 l 2
 386 263 390 256 390 250 c 0
 390 238 371 229 371 229 c 1
 114 115 l 2
 111 114 108 114 105 114 c 0
 94 114 82 122 82 136 c 0
EndSplineSet
EndChar

StartChar: question
Encoding: 63 63 35
Width: 363
GlyphClass: 2
Flags: W
TeX: 636 0
LayerCount: 2
Fore
SplineSet
165 23 m 0
 165 36 175 46 188 46 c 0
 201 46 210 36 210 23 c 0
 210 10 201 0 188 0 c 0
 175 0 165 10 165 23 c 0
198 568 m 0
 198 573 199 578 203 582 c 0
 235 619 284 636 346 636 c 0
 414 636 456 588 456 529 c 0
 456 434 366 384 324 352 c 0
 303 336 290 316 283 290 c 2
 246 153 l 2
 243 143 235 136 225 136 c 0
 211 136 202 148 202 159 c 0
 202 161 203 163 203 165 c 2
 239 301 l 2
 249 336 267 366 296 388 c 0
 340 422 395 456 408 506 c 0
 410 515 411 522 411 530 c 0
 411 566 385 591 346 591 c 0
 291 591 258 577 238 553 c 0
 233 548 226 545 220 545 c 0
 207 545 198 556 198 568 c 0
EndSplineSet
EndChar

StartChar: at
Encoding: 64 64 36
Width: 727
GlyphClass: 2
Flags: W
TeX: 636 182
LayerCount: 2
Fore
SplineSet
72 61 m 0
 72 86 75 114 83 142 c 2
 132 324 l 2
 157 418 220 496 282 545 c 0
 345 594 433 636 528 636 c 0
 624 636 694 593 732 540 c 0
 759 503 778 454 778 394 c 0
 778 369 774 341 766 312 c 2
 724 153 l 2
 701 68 616 0 529 0 c 0
 499 0 481 17 474 39 c 1
 444 15 407 0 369 0 c 0
 301 0 260 49 260 108 c 0
 260 119 262 130 265 142 c 2
 320 347 l 2
 336 407 395 455 457 455 c 2
 593 455 l 1
 594 455 l 2
 598 455 616 454 616 436 c 0
 616 433 616 430 615 426 c 0
 582 305 549 183 517 62 c 0
 516 59 516 57 516 55 c 0
 516 47 522 45 529 45 c 0
 594 45 663 100 680 165 c 2
 723 324 l 2
 730 349 732 372 732 394 c 0
 732 444 717 485 696 514 c 0
 666 555 609 591 528 591 c 0
 446 591 366 554 310 509 c 0
 254 464 197 394 175 312 c 2
 126 130 l 2
 120 105 117 82 117 61 c 0
 117 11 133 -30 154 -59 c 0
 184 -100 240 -136 321 -136 c 0
 333 -136 344 -147 344 -159 c 0
 344 -171 333 -182 321 -182 c 0
 225 -182 154 -138 116 -85 c 0
 90 -48 72 1 72 61 c 0
305 106 m 0
 305 69 330 45 370 45 c 0
 421 45 478 91 492 142 c 2
 564 409 l 1
 457 409 l 2
 418 409 374 375 363 335 c 2
 308 130 l 2
 306 121 305 114 305 106 c 0
EndSplineSet
EndChar

StartChar: A
Encoding: 65 65 37
Width: 454
GlyphClass: 2
Flags: W
TeX: 636 0
AnchorPoint: "Anchor-3" 209 -68 basechar 0
AnchorPoint: "Anchor-1" 428 750 basechar 0
AnchorPoint: "Anchor-0" 386 0 basechar 0
LayerCount: 2
Fore
SplineSet
51 23 m 0
 51 27 52 31 54 34 c 2
 371 625 l 2
 375 633 383 636 392 636 c 0
 404 636 415 626 415 614 c 2
 415 23 l 2
 415 11 404 0 392 0 c 0
 380 0 370 11 370 23 c 2
 370 182 l 1
 185 182 l 1
 94 12 l 2
 90 4 82 0 74 0 c 0
 60 0 51 12 51 23 c 0
210 227 m 1
 370 227 l 1
 370 525 l 1
 210 227 l 1
EndSplineSet
EndChar

StartChar: B
Encoding: 66 66 38
Width: 409
GlyphClass: 2
Flags: W
TeX: 636 0
AnchorPoint: "Anchor-3" 164 -68 basechar 0
AnchorPoint: "Anchor-1" 383 750 basechar 0
LayerCount: 2
Fore
SplineSet
51 19 m 0
 51 24 52 28 52 29 c 2
 211 620 l 2
 213 629 222 636 233 636 c 2
 346 636 l 2
 421 636 473 582 473 512 c 0
 473 499 472 485 468 471 c 0
 453 415 411 367 359 340 c 1
 398 315 418 273 418 225 c 0
 418 209 416 193 411 176 c 0
 384 76 289 0 188 0 c 2
 74 0 l 2
 54 0 51 11 51 19 c 0
104 45 m 1
 188 45 l 2
 267 45 347 108 368 188 c 0
 372 201 373 213 373 225 c 1
 373 225 l 1
 373 280 338 318 273 318 c 2
 177 318 l 1
 104 45 l 1
189 364 m 1
 273 364 l 2
 283 364 294 365 305 368 c 0
 359 382 410 430 424 483 c 0
 427 493 428 503 428 513 c 0
 428 558 397 591 346 591 c 2
 250 591 l 1
 189 364 l 1
EndSplineSet
EndChar

StartChar: C
Encoding: 67 67 39
Width: 363
GlyphClass: 2
Flags: W
TeX: 636 0
AnchorPoint: "Anchor-1" 405 750 basechar 0
LayerCount: 2
Fore
SplineSet
84 125 m 0
 84 138 85 151 89 165 c 2
 174 483 l 2
 197 568 283 636 369 636 c 2
 460 636 l 2
 472 636 483 626 483 614 c 0
 483 602 472 591 460 591 c 2
 369 591 l 2
 306 591 235 536 218 471 c 2
 133 154 l 2
 130 144 129 134 129 125 c 0
 129 80 160 45 210 45 c 2
 301 45 l 2
 313 45 324 35 324 23 c 0
 324 11 313 0 301 0 c 2
 210 0 l 2
 135 0 84 54 84 125 c 0
EndSplineSet
Substitution2: "'cv03' Character Variants 03 lookup 32 subtable" uni216D
EndChar

StartChar: D
Encoding: 68 68 40
Width: 409
GlyphClass: 2
Flags: W
TeX: 636 0
AnchorPoint: "Anchor-3" 164 -68 basechar 0
AnchorPoint: "Anchor-1" 383 750 basechar 0
LayerCount: 2
Fore
SplineSet
51 19 m 0
 51 22 51 25 52 29 c 2
 211 620 l 2
 214 630 224 636 233 636 c 2
 369 636 l 2
 448 636 496 579 496 511 c 0
 496 498 494 485 490 471 c 2
 405 154 l 2
 382 69 296 0 210 0 c 2
 74 0 l 1
 74 0 l 1
 70 0 51 1 51 19 c 0
104 45 m 1
 210 45 l 2
 273 45 345 100 362 165 c 2
 447 483 l 2
 450 493 451 504 451 513 c 0
 451 559 419 591 369 591 c 2
 250 591 l 1
 104 45 l 1
EndSplineSet
Substitution2: "'cv03' Character Variants 03 lookup 32 subtable" uni216E
EndChar

StartChar: E
Encoding: 69 69 41
Width: 363
GlyphClass: 2
Flags: W
TeX: 636 0
AnchorPoint: "Anchor-3" 164 -68 basechar 0
AnchorPoint: "Anchor-1" 383 750 basechar 0
AnchorPoint: "Anchor-0" 295 0 basechar 0
LayerCount: 2
Fore
SplineSet
51 19 m 0
 51 24 52 28 52 29 c 2
 211 620 l 2
 213 629 222 636 233 636 c 2
 460 636 l 2
 472 636 483 626 483 614 c 0
 483 602 472 591 460 591 c 2
 250 591 l 1
 189 364 l 1
 296 364 l 2
 308 364 319 353 319 341 c 0
 319 329 308 318 296 318 c 2
 177 318 l 1
 104 45 l 1
 301 45 l 2
 313 45 324 35 324 23 c 0
 324 11 313 0 301 0 c 2
 74 0 l 2
 54 0 51 11 51 19 c 0
EndSplineSet
EndChar

StartChar: F
Encoding: 70 70 42
Width: 363
GlyphClass: 2
Flags: W
TeX: 636 0
LayerCount: 2
Fore
SplineSet
51 23 m 0
 51 25 52 27 52 29 c 2
 211 620 l 2
 213 629 222 636 233 636 c 2
 460 636 l 2
 472 636 483 626 483 614 c 0
 483 602 472 591 460 591 c 2
 250 591 l 1
 189 364 l 1
 387 364 l 2
 399 364 410 353 410 341 c 0
 410 329 399 318 387 318 c 2
 177 318 l 1
 96 17 l 2
 93 7 84 0 74 0 c 0
 60 0 51 12 51 23 c 0
EndSplineSet
EndChar

StartChar: G
Encoding: 71 71 43
Width: 409
GlyphClass: 2
Flags: W
TeX: 636 0
AnchorPoint: "Anchor-3" 209 -68 basechar 0
AnchorPoint: "Anchor-1" 428 750 basechar 0
LayerCount: 2
Fore
SplineSet
84 125 m 0
 84 138 85 151 89 165 c 2
 174 483 l 2
 197 568 283 636 369 636 c 2
 505 636 l 2
 517 636 528 626 528 614 c 0
 528 602 517 591 505 591 c 2
 369 591 l 2
 306 591 235 536 218 471 c 2
 133 153 l 2
 130 143 129 133 129 124 c 0
 129 79 160 45 210 45 c 2
 330 45 l 1
 403 318 l 1
 341 318 l 2
 329 318 319 329 319 341 c 0
 319 353 329 364 341 364 c 2
 432 364 l 2
 452 364 455 353 455 345 c 0
 455 340 454 336 454 335 c 2
 369 17 l 2
 367 8 358 0 347 0 c 2
 210 0 l 2
 135 0 84 54 84 125 c 0
EndSplineSet
EndChar

StartChar: H
Encoding: 72 72 44
Width: 409
GlyphClass: 2
Flags: W
TeX: 636 0
AnchorPoint: "Anchor-3" 186 -68 basechar 0
AnchorPoint: "Anchor-1" 405 750 basechar 0
LayerCount: 2
Fore
SplineSet
51 23 m 0
 51 25 52 27 52 29 c 2
 211 620 l 2
 214 630 223 636 233 636 c 0
 247 636 255 625 255 614 c 2
 255 608 l 1
 189 364 l 1
 415 364 l 1
 484 620 l 2
 487 630 495 636 505 636 c 0
 519 636 528 625 528 614 c 0
 528 612 527 610 527 608 c 2
 455 336 l 1
 454 335 l 1
 369 17 l 2
 366 7 357 0 347 0 c 0
 333 0 324 12 324 23 c 0
 324 25 325 27 325 29 c 2
 403 318 l 1
 177 318 l 1
 96 17 l 2
 93 7 84 0 74 0 c 0
 60 0 51 12 51 23 c 0
EndSplineSet
EndChar

StartChar: I
Encoding: 73 73 45
Width: 136
GlyphClass: 2
Flags: W
TeX: 636 0
AnchorPoint: "Anchor-1" 269 750 basechar 0
LayerCount: 2
Fore
SplineSet
51 23 m 0
 51 25 52 27 52 29 c 2
 211 620 l 2
 214 630 223 636 233 636 c 0
 247 636 255 625 255 614 c 2
 255 608 l 1
 96 17 l 2
 93 7 84 0 74 0 c 0
 60 0 51 12 51 23 c 0
EndSplineSet
Substitution2: "'cv03' Character Variants 03 lookup 32 subtable" uni2160
EndChar

StartChar: J
Encoding: 74 74 46
Width: 318
GlyphClass: 2
Flags: W
TeX: 637 0
LayerCount: 2
Fore
SplineSet
51 23 m 0
 51 35 62 45 74 45 c 2
 120 45 l 2
 185 45 252 93 271 165 c 2
 393 620 l 2
 396 630 405 637 415 637 c 0
 429 637 437 625 437 614 c 0
 437 612 436 610 436 608 c 2
 315 153 l 2
 290 61 206 0 120 0 c 2
 74 0 l 2
 62 0 51 11 51 23 c 0
EndSplineSet
EndChar

StartChar: K
Encoding: 75 75 47
Width: 409
GlyphClass: 2
Flags: W
TeX: 636 0
AnchorPoint: "Anchor-3" 186 -68 basechar 0
LayerCount: 2
Fore
SplineSet
51 23 m 0
 51 25 52 27 52 29 c 2
 113 255 l 2
 113 256 114 256 114 257 c 2
 211 620 l 2
 214 630 223 636 233 636 c 0
 247 636 255 625 255 614 c 2
 255 608 l 1
 179 325 l 1
 490 630 l 2
 495 634 499 636 505 636 c 0
 517 636 528 626 528 614 c 0
 528 608 526 602 521 597 c 2
 280 360 l 1
 369 29 l 2
 369 27 370 25 370 23 c 0
 370 12 361 0 347 0 c 0
 337 0 328 7 325 17 c 2
 243 324 l 1
 155 238 l 1
 96 17 l 2
 93 7 84 0 74 0 c 0
 60 0 51 12 51 23 c 0
EndSplineSet
EndChar

StartChar: L
Encoding: 76 76 48
Width: 318
GlyphClass: 2
Flags: W
TeX: 636 0
AnchorPoint: "Anchor-4" 250 341 basechar 0
AnchorPoint: "Anchor-3" 141 -68 basechar 0
AnchorPoint: "Anchor-2" 324 614 basechar 0
AnchorPoint: "Anchor-1" 269 750 basechar 0
LayerCount: 2
Fore
SplineSet
51 19 m 0
 51 22 51 25 52 29 c 2
 211 620 l 2
 214 630 223 636 233 636 c 0
 247 636 255 625 255 614 c 2
 255 608 l 1
 104 45 l 1
 256 45 l 2
 268 45 279 35 279 23 c 0
 279 11 268 0 256 0 c 2
 74 0 l 1
 74 0 l 1
 70 0 51 1 51 19 c 0
EndSplineSet
Substitution2: "'cv03' Character Variants 03 lookup 32 subtable" uni216C
EndChar

StartChar: M
Encoding: 77 77 49
Width: 500
GlyphClass: 2
Flags: W
TeX: 636 0
AnchorPoint: "Anchor-3" 232 -68 basechar 0
AnchorPoint: "Anchor-1" 451 750 basechar 0
LayerCount: 2
Fore
SplineSet
51 23 m 0
 51 25 52 27 52 29 c 2
 211 620 l 2
 214 630 223 636 233 636 c 0
 243 636 252 630 255 620 c 2
 338 341 l 1
 578 628 l 2
 583 633 588 636 596 636 c 0
 610 636 619 625 619 614 c 0
 619 612 618 610 618 608 c 2
 460 17 l 2
 457 7 448 0 438 0 c 0
 424 0 415 12 415 23 c 0
 415 25 416 27 416 29 c 2
 548 521 l 1
 347 281 l 2
 342 276 337 273 330 273 c 0
 320 273 309 279 306 289 c 2
 234 531 l 1
 96 17 l 2
 93 7 84 0 74 0 c 0
 60 0 51 12 51 23 c 0
EndSplineSet
Substitution2: "'cv03' Character Variants 03 lookup 32 subtable" uni216F
EndChar

StartChar: N
Encoding: 78 78 50
Width: 409
GlyphClass: 2
Flags: W
TeX: 636 0
AnchorPoint: "Anchor-3" 186 -68 basechar 0
AnchorPoint: "Anchor-1" 405 750 basechar 0
LayerCount: 2
Fore
SplineSet
51 23 m 0
 51 25 52 27 52 29 c 2
 211 620 l 2
 214 630 223 636 233 636 c 0
 243 636 253 629 255 618 c 2
 350 123 l 1
 484 620 l 2
 487 630 495 636 505 636 c 0
 519 636 528 625 528 614 c 0
 528 612 527 610 527 608 c 2
 369 17 l 2
 366 7 356 0 346 0 c 0
 336 0 326 8 324 19 c 2
 229 513 l 1
 96 17 l 2
 93 7 84 0 74 0 c 0
 60 0 51 12 51 23 c 0
EndSplineSet
EndChar

StartChar: O
Encoding: 79 79 51
Width: 409
GlyphClass: 2
Flags: W
TeX: 636 0
AnchorPoint: "Anchor-1" 405 750 basechar 0
LayerCount: 2
Fore
SplineSet
84 125 m 0
 84 138 85 151 89 165 c 2
 174 483 l 2
 197 568 283 636 369 636 c 0
 448 636 496 579 496 511 c 0
 496 498 494 485 490 471 c 2
 405 153 l 2
 382 68 296 0 210 0 c 0
 131 0 84 57 84 125 c 0
129 124 m 0
 129 78 160 45 210 45 c 0
 273 45 345 100 362 165 c 2
 447 483 l 2
 450 493 451 504 451 513 c 0
 451 559 419 591 369 591 c 0
 306 591 235 536 218 471 c 2
 133 153 l 2
 130 143 129 133 129 124 c 0
EndSplineSet
EndChar

StartChar: P
Encoding: 80 80 52
Width: 409
GlyphClass: 2
Flags: W
TeX: 636 0
LayerCount: 2
Fore
SplineSet
51 23 m 0
 51 25 52 27 52 29 c 2
 125 300 l 1
 125 303 l 1
 211 620 l 2
 213 629 222 636 233 636 c 2
 346 636 l 2
 431 636 491 579 491 498 c 0
 491 482 490 466 485 449 c 0
 458 350 364 273 261 273 c 2
 165 273 l 1
 96 17 l 2
 93 7 84 0 74 0 c 0
 60 0 51 12 51 23 c 0
177 318 m 1
 261 318 l 2
 341 318 420 380 441 460 c 0
 445 473 446 487 446 498 c 1
 446 498 l 1
 446 553 410 591 346 591 c 2
 250 591 l 1
 177 318 l 1
EndSplineSet
EndChar

StartChar: Q
Encoding: 81 81 53
Width: 409
GlyphClass: 2
Flags: W
TeX: 636 1
LayerCount: 2
Fore
SplineSet
84 125 m 0
 84 138 85 151 89 165 c 2
 174 483 l 2
 197 568 283 636 369 636 c 0
 448 636 496 579 496 511 c 0
 496 498 494 485 490 471 c 2
 405 153 l 2
 398 126 384 101 366 79 c 1
 408 39 l 2
 413 34 415 29 415 23 c 0
 415 11 404 0 392 0 c 0
 387 0 382 2 377 6 c 2
 334 46 l 1
 302 20 216 -1 210 -1 c 2
 209 -1 l 1
 209 -1 209 0 210 0 c 1
 131 0 84 57 84 125 c 0
129 124 m 0
 129 78 160 45 210 45 c 0
 240 45 273 59 300 79 c 1
 232 143 l 2
 227 148 225 153 225 159 c 0
 225 171 235 182 247 182 c 0
 252 182 258 179 263 175 c 2
 333 110 l 1
 347 127 357 145 362 165 c 2
 447 483 l 2
 450 493 451 504 451 513 c 0
 451 559 419 591 369 591 c 0
 306 591 235 536 218 471 c 2
 133 153 l 2
 130 143 129 133 129 124 c 0
EndSplineSet
EndChar

StartChar: R
Encoding: 82 82 54
Width: 409
GlyphClass: 2
Flags: W
TeX: 636 0
AnchorPoint: "Anchor-3" 164 -68 basechar 0
AnchorPoint: "Anchor-1" 383 750 basechar 0
LayerCount: 2
Fore
SplineSet
51 23 m 0
 51 25 52 27 52 29 c 2
 125 300 l 1
 125 303 l 1
 211 620 l 2
 213 629 222 636 233 636 c 2
 346 636 l 2
 431 636 491 579 491 498 c 0
 491 482 490 466 485 449 c 0
 461 359 381 288 291 275 c 1
 369 30 l 2
 370 28 370 25 370 23 c 0
 370 12 361 0 347 0 c 0
 337 0 328 6 325 16 c 2
 244 273 l 1
 165 273 l 1
 96 17 l 2
 93 7 84 0 74 0 c 0
 60 0 51 12 51 23 c 0
177 318 m 1
 261 318 l 2
 341 318 420 380 441 460 c 0
 445 473 446 487 446 498 c 1
 446 498 l 1
 446 553 410 591 346 591 c 2
 250 591 l 1
 177 318 l 1
EndSplineSet
EndChar

StartChar: S
Encoding: 83 83 55
Width: 409
GlyphClass: 2
Flags: W
TeX: 636 0
AnchorPoint: "Anchor-3" 186 -68 basechar 0
AnchorPoint: "Anchor-1" 405 750 basechar 0
LayerCount: 2
Fore
SplineSet
64 68 m 0
 64 80 74 91 86 91 c 0
 92 91 97 89 102 85 c 0
 128 59 163 45 210 45 c 0
 290 45 358 87 358 166 c 0
 358 184 353 200 343 214 c 2
 200 419 l 2
 186 439 179 461 179 485 c 0
 179 495 180 506 183 516 c 0
 204 596 289 636 369 636 c 0
 425 636 473 620 509 585 c 0
 514 580 516 574 516 568 c 0
 516 556 505 545 493 545 c 0
 487 545 482 548 477 552 c 0
 451 577 416 591 369 591 c 0
 301 591 241 557 227 505 c 0
 225 498 224 491 224 484 c 0
 224 470 228 458 237 445 c 2
 380 240 l 2
 395 218 403 193 403 166 c 0
 403 54 303 0 210 0 c 0
 154 0 106 17 70 52 c 0
 65 57 64 62 64 68 c 0
EndSplineSet
EndChar

StartChar: T
Encoding: 84 84 56
Width: 409
GlyphClass: 2
Flags: W
TeX: 636 0
AnchorPoint: "Anchor-3" 186 -68 basechar 0
AnchorPoint: "Anchor-1" 405 750 basechar 0
LayerCount: 2
Fore
SplineSet
188 23 m 0
 188 25 189 27 189 29 c 2
 340 591 l 1
 233 591 l 2
 221 591 210 602 210 614 c 0
 210 626 221 636 233 636 c 2
 505 636 l 2
 517 636 528 626 528 614 c 0
 528 602 517 591 505 591 c 2
 386 591 l 1
 232 17 l 2
 229 7 220 0 210 0 c 0
 196 0 188 12 188 23 c 0
EndSplineSet
EndChar

StartChar: U
Encoding: 85 85 57
Width: 409
GlyphClass: 2
Flags: W
TeX: 636 0
AnchorPoint: "Anchor-1" 405 750 basechar 0
LayerCount: 2
Fore
SplineSet
84 125 m 0
 84 138 85 151 89 165 c 2
 211 620 l 2
 214 630 223 636 233 636 c 0
 247 636 255 625 255 614 c 2
 255 608 l 1
 133 153 l 2
 130 143 129 133 129 124 c 0
 129 79 160 45 210 45 c 0
 273 45 345 100 362 165 c 2
 484 620 l 2
 487 630 495 636 505 636 c 0
 519 636 528 625 528 614 c 0
 528 612 527 610 527 608 c 2
 405 153 l 2
 382 68 296 0 210 0 c 0
 135 0 84 54 84 125 c 0
EndSplineSet
EndChar

StartChar: V
Encoding: 86 86 58
Width: 454
GlyphClass: 2
Flags: W
TeX: 636 0
LayerCount: 2
Fore
SplineSet
210 23 m 2
 210 614 l 2
 210 626 221 636 233 636 c 0
 245 636 255 626 255 614 c 2
 255 111 l 1
 531 625 l 2
 535 633 543 636 551 636 c 0
 565 636 574 625 574 614 c 0
 574 610 573 606 571 603 c 2
 254 12 l 2
 250 4 242 0 233 0 c 0
 221 0 210 11 210 23 c 2
EndSplineSet
Substitution2: "'cv03' Character Variants 03 lookup 32 subtable" uni2164
EndChar

StartChar: W
Encoding: 87 87 59
Width: 636
GlyphClass: 2
Flags: W
TeX: 636 0
AnchorPoint: "Anchor-3" 300 -68 basechar 0
AnchorPoint: "Anchor-1" 519 750 basechar 0
LayerCount: 2
Fore
SplineSet
165 23 m 2
 165 25 l 1
 210 615 l 2
 211 627 221 636 233 636 c 0
 246 636 255 626 255 614 c 2
 255 612 l 1
 217 115 l 1
 414 444 l 2
 418 451 426 455 435 455 c 0
 447 455 456 445 457 433 c 2
 477 112 l 1
 712 623 l 2
 716 631 724 636 733 636 c 0
 747 636 755 625 755 614 c 0
 755 611 754 607 753 604 c 2
 481 13 l 2
 477 5 470 0 460 0 c 0
 448 0 438 9 437 21 c 2
 416 359 l 1
 208 11 l 2
 204 4 197 0 188 0 c 0
 175 0 165 11 165 23 c 2
EndSplineSet
EndChar

StartChar: X
Encoding: 88 88 60
Width: 454
GlyphClass: 2
Flags: W
TeX: 636 0
LayerCount: 2
Fore
SplineSet
51 23 m 0
 51 28 53 33 56 37 c 2
 288 324 l 1
 211 608 l 2
 211 610 210 612 210 614 c 0
 210 625 219 636 233 636 c 0
 243 636 252 630 255 620 c 2
 323 367 l 1
 533 628 l 2
 538 633 544 636 551 636 c 0
 564 636 574 626 574 614 c 0
 574 609 572 604 569 600 c 2
 337 313 l 1
 414 29 l 2
 414 27 415 25 415 23 c 0
 415 12 406 0 392 0 c 0
 382 0 373 7 370 17 c 2
 302 269 l 1
 92 9 l 2
 87 4 81 0 74 0 c 0
 61 0 51 11 51 23 c 0
EndSplineSet
Substitution2: "'cv03' Character Variants 03 lookup 32 subtable" uni2169
EndChar

StartChar: Y
Encoding: 89 89 61
Width: 454
GlyphClass: 2
Flags: W
TeX: 636 0
AnchorPoint: "Anchor-1" 428 750 basechar 0
LayerCount: 2
Fore
SplineSet
210 614 m 0
 210 625 219 636 233 636 c 0
 243 636 252 630 255 620 c 2
 323 367 l 1
 533 628 l 2
 538 633 544 636 551 636 c 0
 564 636 574 626 574 614 c 0
 574 609 572 604 569 600 c 2
 334 308 l 1
 255 17 l 2
 252 7 243 0 233 0 c 0
 219 0 210 12 210 23 c 0
 210 25 211 27 211 29 c 2
 289 318 l 1
 211 608 l 2
 211 610 210 612 210 614 c 0
EndSplineSet
EndChar

StartChar: Z
Encoding: 90 90 62
Width: 409
GlyphClass: 2
Flags: W
TeX: 636 0
AnchorPoint: "Anchor-1" 405 750 basechar 0
LayerCount: 2
Fore
SplineSet
51 23 m 0
 51 28 53 33 56 37 c 2
 460 591 l 1
 233 591 l 2
 221 591 210 602 210 614 c 0
 210 626 221 636 233 636 c 2
 505 636 l 2
 517 636 528 626 528 614 c 0
 528 609 526 604 523 600 c 2
 119 45 l 1
 347 45 l 2
 359 45 370 35 370 23 c 0
 370 11 359 0 347 0 c 2
 74 0 l 2
 62 0 51 11 51 23 c 0
EndSplineSet
EndChar

StartChar: bracketleft
Encoding: 91 91 63
Width: 181
GlyphClass: 2
Flags: W
TeX: 682 45
LayerCount: 2
Fore
SplineSet
39 -26 m 0
 39 -21 40 -18 40 -17 c 2
 223 665 l 2
 225 674 234 682 245 682 c 2
 290 682 l 2
 302 682 313 671 313 659 c 0
 313 647 302 636 290 636 c 2
 262 636 l 1
 92 0 l 1
 108 0 l 2
 120 0 130 -11 130 -23 c 0
 130 -35 120 -45 108 -45 c 2
 62 -45 l 2
 42 -45 39 -34 39 -26 c 0
EndSplineSet
EndChar

StartChar: backslash
Encoding: 92 92 64
Width: 500
GlyphClass: 2
Flags: W
TeX: 636 0
LayerCount: 2
Fore
SplineSet
210 614 m 0
 210 625 219 636 233 636 c 0
 243 636 251 630 254 621 c 2
 459 30 l 2
 460 28 460 25 460 23 c 0
 460 12 452 0 438 0 c 0
 428 0 419 6 416 15 c 2
 211 606 l 2
 210 608 210 612 210 614 c 0
EndSplineSet
EndChar

StartChar: bracketright
Encoding: 93 93 65
Width: 181
GlyphClass: 2
Flags: W
TeX: 682 45
LayerCount: 2
Fore
SplineSet
40 -23 m 0
 40 -11 50 0 62 0 c 2
 90 0 l 1
 261 636 l 1
 245 636 l 2
 233 636 222 647 222 659 c 0
 222 671 233 682 245 682 c 2
 290 682 l 2
 310 682 314 671 314 663 c 0
 314 658 312 654 312 653 c 2
 130 -29 l 2
 128 -38 119 -45 108 -45 c 2
 62 -45 l 2
 50 -45 40 -35 40 -23 c 0
EndSplineSet
EndChar

StartChar: asciicircum
Encoding: 94 94 66
Width: 227
GlyphClass: 2
Flags: W
TeX: 636 -545
LayerCount: 2
Fore
SplineSet
198 568 m 0
 198 575 202 581 207 586 c 2
 264 631 l 2
 268 634 274 636 279 636 c 0
 286 636 292 633 297 627 c 2
 330 581 l 2
 333 577 334 573 334 568 c 0
 334 556 325 545 312 545 c 0
 305 545 299 549 294 555 c 2
 274 581 l 1
 235 550 l 2
 231 547 226 545 221 545 c 0
 209 545 198 555 198 568 c 0
EndSplineSet
EndChar

StartChar: underscore
Encoding: 95 95 67
Width: 272
GlyphClass: 2
Flags: W
TeX: -45 91
LayerCount: 2
Fore
SplineSet
-41 -68 m 0
 -41 -56 -31 -45 -19 -45 c 2
 254 -45 l 2
 266 -45 277 -56 277 -68 c 0
 277 -80 266 -91 254 -91 c 2
 -19 -91 l 2
 -31 -91 -41 -80 -41 -68 c 0
EndSplineSet
EndChar

StartChar: grave
Encoding: 96 96 68
Width: 159
GlyphClass: 4
Flags: W
TeX: 636 -545
AnchorPoint: "Anchor-1" 255 614 mark 0
LayerCount: 2
Fore
SplineSet
210 614 m 2
 210 625 219 636 233 636 c 0
 243 636 253 629 255 619 c 2
 265 573 l 2
 265 571 266 570 266 568 c 0
 266 557 257 545 243 545 c 0
 233 545 223 553 221 563 c 2
 210 609 l 1
 210 614 l 2
EndSplineSet
EndChar

StartChar: a
Encoding: 97 97 69
Width: 409
GlyphClass: 2
Flags: W
TeX: 455 0
AnchorPoint: "Anchor-3" 164 -68 basechar 0
AnchorPoint: "Anchor-1" 369 614 basechar 0
AnchorPoint: "Anchor-0" 341 0 basechar 0
LayerCount: 2
Fore
SplineSet
78 108 m 0
 78 119 80 130 83 142 c 2
 138 347 l 2
 154 407 213 455 275 455 c 2
 411 455 l 1
 412 455 l 2
 416 455 435 454 435 436 c 0
 435 433 434 430 433 426 c 0
 400 305 367 183 335 62 c 0
 334 59 335 57 335 55 c 0
 335 47 340 45 347 45 c 0
 359 45 370 35 370 23 c 0
 370 11 359 0 347 0 c 0
 318 0 299 18 292 39 c 1
 262 15 225 0 187 0 c 0
 119 0 78 49 78 108 c 0
123 106 m 0
 123 69 148 45 188 45 c 0
 239 45 296 91 310 142 c 2
 382 409 l 1
 275 409 l 2
 236 409 192 375 181 335 c 2
 126 130 l 2
 124 121 123 114 123 106 c 0
EndSplineSet
Substitution2: "Single Substitution lookup 38 subtable" ordfeminine
EndChar

StartChar: b
Encoding: 98 98 70
Width: 363
GlyphClass: 2
Flags: W
TeX: 636 0
AnchorPoint: "Anchor-3" 164 -68 basechar 0
AnchorPoint: "Anchor-1" 269 750 basechar 0
LayerCount: 2
Fore
SplineSet
51 19 m 0
 51 22 51 25 52 29 c 2
 211 620 l 2
 214 630 223 636 233 636 c 0
 247 636 255 625 255 614 c 2
 255 608 l 1
 214 455 l 1
 320 455 l 2
 378 455 413 413 413 364 c 0
 413 354 412 345 409 335 c 2
 348 108 l 2
 331 46 274 0 210 0 c 2
 74 0 l 1
 74 0 l 1
 70 0 51 1 51 19 c 0
104 45 m 1
 210 45 l 2
 252 45 293 77 304 120 c 2
 365 347 l 2
 367 354 368 360 368 366 c 0
 368 393 349 409 320 409 c 2
 201 409 l 1
 104 45 l 1
EndSplineSet
EndChar

StartChar: c
Encoding: 99 99 71
Width: 318
GlyphClass: 2
Flags: W
TeX: 455 0
AnchorPoint: "Anchor-1" 346 614 basechar 0
LayerCount: 2
Fore
SplineSet
72 89 m 0
 72 99 74 110 77 120 c 2
 138 347 l 2
 154 407 213 455 275 455 c 2
 366 455 l 2
 378 455 389 444 389 432 c 0
 389 420 378 409 366 409 c 2
 275 409 l 2
 235 409 192 375 181 335 c 2
 120 108 l 2
 118 101 118 95 118 89 c 0
 118 64 134 45 165 45 c 2
 256 45 l 2
 268 45 279 35 279 23 c 0
 279 11 268 0 256 0 c 2
 165 0 l 2
 112 0 72 37 72 89 c 0
EndSplineSet
Substitution2: "'cv03' Character Variants 03 lookup 32 subtable" uni216D
EndChar

StartChar: d
Encoding: 100 100 72
Width: 363
GlyphClass: 2
Flags: W
TeX: 636 0
AnchorPoint: "Anchor-3" 164 -68 basechar 0
AnchorPoint: "Anchor-2" 551 614 basechar 0
AnchorPoint: "Anchor-1" 496 750 basechar 0
LayerCount: 2
Fore
SplineSet
72 87 m 0
 72 97 74 109 77 120 c 2
 138 347 l 2
 154 407 213 455 275 455 c 2
 394 455 l 1
 438 620 l 2
 441 630 450 636 460 636 c 0
 474 636 483 625 483 614 c 0
 483 612 482 610 482 608 c 2
 434 429 l 2
 434 427 432 425 432 423 c 2
 323 17 l 2
 321 8 312 0 301 0 c 2
 165 0 l 2
 111 0 72 36 72 87 c 0
118 87 m 0
 118 61 132 45 165 45 c 2
 284 45 l 1
 381 409 l 1
 275 409 l 2
 235 409 192 375 181 335 c 2
 120 108 l 2
 118 100 118 93 118 87 c 0
EndSplineSet
Substitution2: "'cv03' Character Variants 03 lookup 32 subtable" uni216E
EndChar

StartChar: e
Encoding: 101 101 73
Width: 363
GlyphClass: 2
Flags: W
TeX: 455 0
AnchorPoint: "Anchor-3" 164 -68 basechar 0
AnchorPoint: "Anchor-1" 346 614 basechar 0
AnchorPoint: "Anchor-0" 295 0 basechar 0
LayerCount: 2
Fore
SplineSet
73 90 m 0
 73 100 74 110 77 120 c 2
 107 231 l 2
 107 232 108 234 108 235 c 2
 132 324 l 2
 152 396 224 455 298 455 c 0
 366 455 408 406 408 347 c 0
 408 336 406 323 403 312 c 2
 378 221 l 2
 375 211 365 205 356 205 c 2
 147 205 l 1
 120 108 l 2
 118 101 118 95 118 89 c 0
 118 62 137 45 165 45 c 2
 301 45 l 2
 313 45 324 35 324 23 c 0
 324 11 313 0 301 0 c 2
 165 0 l 2
 107 0 73 41 73 90 c 0
159 250 m 1
 339 250 l 1
 359 324 l 2
 361 333 362 340 362 348 c 0
 362 384 337 409 298 409 c 0
 247 409 189 364 175 312 c 2
 159 250 l 1
EndSplineSet
EndChar

StartChar: f
Encoding: 102 102 74
Width: 272
GlyphClass: 2
Flags: W
TeX: 636 0
LayerCount: 2
Fore
SplineSet
97 23 m 0
 97 25 98 27 98 29 c 2
 200 409 l 1
 184 409 l 2
 172 409 161 420 161 432 c 0
 161 444 172 455 184 455 c 2
 212 455 l 1
 238 551 l 2
 251 598 297 636 346 636 c 2
 369 636 l 2
 381 636 392 626 392 614 c 0
 392 602 381 591 369 591 c 2
 346 591 l 2
 320 591 289 567 282 540 c 2
 259 455 l 1
 320 455 l 2
 332 455 343 444 343 432 c 0
 343 420 332 409 320 409 c 2
 247 409 l 1
 141 17 l 2
 138 7 130 0 120 0 c 0
 106 0 97 12 97 23 c 0
EndSplineSet
EndChar

StartChar: g
Encoding: 103 103 75
Width: 363
GlyphClass: 2
Flags: W
TeX: 455 182
AnchorPoint: "Anchor-1" 346 614 basechar 0
LayerCount: 2
Fore
SplineSet
3 -159 m 0
 3 -147 13 -136 25 -136 c 2
 162 -136 l 2
 202 -136 244 -104 255 -63 c 2
 272 0 l 1
 165 0 l 2
 107 0 73 41 73 90 c 0
 73 100 74 110 77 120 c 2
 138 347 l 2
 155 409 211 455 275 455 c 2
 411 455 l 1
 412 455 l 2
 416 455 435 454 435 436 c 0
 435 433 434 430 433 426 c 2
 299 -75 l 2
 283 -136 223 -182 162 -182 c 2
 25 -182 l 2
 13 -182 3 -171 3 -159 c 0
118 89 m 0
 118 62 136 45 165 45 c 2
 284 45 l 1
 382 409 l 1
 275 409 l 2
 233 409 192 378 181 335 c 2
 120 108 l 2
 118 101 118 95 118 89 c 0
EndSplineSet
EndChar

StartChar: h
Encoding: 104 104 76
Width: 363
GlyphClass: 2
Flags: W
TeX: 636 0
AnchorPoint: "Anchor-3" 164 -68 basechar 0
AnchorPoint: "Anchor-1" 269 750 basechar 0
LayerCount: 2
Fore
SplineSet
51 23 m 0
 51 25 52 27 52 29 c 2
 211 620 l 2
 214 630 223 636 233 636 c 0
 247 636 255 625 255 614 c 2
 255 608 l 1
 214 455 l 1
 320 455 l 2
 378 455 413 414 413 365 c 0
 413 355 412 345 409 335 c 2
 324 17 l 2
 321 7 312 0 302 0 c 0
 288 0 279 12 279 23 c 0
 279 25 280 27 280 29 c 2
 365 347 l 2
 367 354 368 360 368 366 c 0
 368 393 349 409 320 409 c 2
 201 409 l 1
 166 279 131 147 96 17 c 0
 93 7 84 0 74 0 c 0
 60 0 51 12 51 23 c 0
EndSplineSet
EndChar

StartChar: i
Encoding: 105 105 77
Width: 136
GlyphClass: 2
Flags: W
TeX: 637 0
AnchorPoint: "Anchor-1" 233 614 basechar 0
LayerCount: 2
Fore
SplineSet
51 23 m 0
 51 25 52 27 52 29 c 2
 162 438 l 2
 165 448 174 455 184 455 c 0
 198 455 207 443 207 432 c 0
 207 430 206 428 206 426 c 2
 96 17 l 2
 93 7 84 0 74 0 c 0
 60 0 51 12 51 23 c 0
210 614 m 0
 210 626 221 637 233 637 c 0
 245 637 255 626 255 614 c 0
 255 601 246 591 233 591 c 0
 220 591 210 601 210 614 c 0
EndSplineSet
Substitution2: "Single Substitution lookup 46 subtable" dotlessi
Substitution2: "'cv03' Character Variants 03 lookup 32 subtable" uni2160
Substitution2: "'dtls' Dotless Forms lookup 30 subtable" dotlessi
EndChar

StartChar: j
Encoding: 106 106 78
Width: 227
GlyphClass: 2
Flags: W
TeX: 637 182
AnchorPoint: "Anchor-1" 324 614 basechar 0
LayerCount: 2
Fore
SplineSet
3 -159 m 0
 3 -147 13 -136 25 -136 c 2
 48 -136 l 2
 74 -136 106 -112 113 -85 c 2
 253 438 l 2
 256 448 265 455 275 455 c 0
 289 455 298 443 298 432 c 0
 298 430 297 428 297 426 c 2
 156 -97 l 2
 143 -144 97 -182 48 -182 c 2
 25 -182 l 2
 13 -182 3 -171 3 -159 c 0
301 614 m 0
 301 626 312 637 324 637 c 0
 336 637 346 626 346 614 c 0
 346 601 337 591 324 591 c 0
 311 591 301 601 301 614 c 0
EndSplineSet
Substitution2: "Single Substitution lookup 46 subtable" uni0237
Substitution2: "'dtls' Dotless Forms lookup 30 subtable" uni0237
EndChar

StartChar: k
Encoding: 107 107 79
Width: 363
GlyphClass: 2
Flags: W
TeX: 636 0
AnchorPoint: "Anchor-3" 164 -68 basechar 0
AnchorPoint: "Anchor-1" 269 750 basechar 0
LayerCount: 2
Fore
SplineSet
51 23 m 0
 51 25 52 27 52 29 c 2
 211 620 l 2
 214 630 223 636 233 636 c 0
 247 636 255 625 255 614 c 2
 255 608 l 1
 163 265 l 1
 195 290 l 1
 196 291 l 1
 397 450 l 2
 401 453 406 455 411 455 c 0
 423 455 434 445 434 432 c 0
 434 425 430 419 425 414 c 2
 236 265 l 1
 323 30 l 2
 324 27 324 26 324 23 c 0
 324 12 315 0 301 0 c 0
 292 0 283 6 280 15 c 2
 199 235 l 1
 143 191 l 1
 96 17 l 2
 93 7 84 0 74 0 c 0
 60 0 51 12 51 23 c 0
EndSplineSet
EndChar

StartChar: l
Encoding: 108 108 80
Width: 227
GlyphClass: 2
Flags: W
TeX: 636 0
AnchorPoint: "Anchor-4" 250 341 basechar 0
AnchorPoint: "Anchor-3" 118 -68 basechar 0
AnchorPoint: "Anchor-2" 324 614 basechar 0
AnchorPoint: "Anchor-1" 269 750 basechar 0
LayerCount: 2
Fore
SplineSet
68 74 m 0
 68 81 69 89 71 97 c 2
 211 620 l 2
 214 630 223 636 233 636 c 0
 247 636 255 625 255 614 c 2
 255 608 l 1
 115 85 l 2
 114 81 113 77 113 73 c 0
 113 57 123 45 142 45 c 2
 165 45 l 2
 177 45 188 35 188 23 c 0
 188 11 177 0 165 0 c 2
 142 0 l 2
 99 0 68 32 68 74 c 0
EndSplineSet
Substitution2: "'cv03' Character Variants 03 lookup 32 subtable" uni216C
EndChar

StartChar: m
Encoding: 109 109 81
Width: 500
GlyphClass: 2
Flags: W
TeX: 455 0
AnchorPoint: "Anchor-3" 232 -68 basechar 0
AnchorPoint: "Anchor-1" 415 614 basechar 0
LayerCount: 2
Fore
SplineSet
51 23 m 0
 51 25 52 27 52 29 c 2
 162 438 l 2
 165 448 175 455 184 455 c 2
 457 455 l 2
 515 455 549 413 549 364 c 0
 549 354 548 345 545 335 c 2
 460 17 l 2
 457 7 448 0 438 0 c 0
 424 0 415 12 415 23 c 0
 415 25 416 27 416 29 c 2
 501 347 l 2
 503 354 504 360 504 366 c 0
 504 393 486 409 457 409 c 2
 383 409 l 1
 278 17 l 2
 275 7 266 0 256 0 c 0
 242 0 233 12 233 23 c 0
 233 25 234 27 234 29 c 2
 336 409 l 1
 201 409 l 1
 96 17 l 2
 93 7 84 0 74 0 c 0
 60 0 51 12 51 23 c 0
EndSplineSet
Substitution2: "'cv03' Character Variants 03 lookup 32 subtable" uni216F
EndChar

StartChar: n
Encoding: 110 110 82
Width: 363
GlyphClass: 2
Flags: W
TeX: 455 0
AnchorPoint: "Anchor-3" 164 -68 basechar 0
AnchorPoint: "Anchor-1" 346 614 basechar 0
LayerCount: 2
Fore
SplineSet
51 23 m 0
 51 25 52 27 52 29 c 2
 162 438 l 2
 165 448 175 455 184 455 c 2
 320 455 l 2
 378 455 413 414 413 365 c 0
 413 355 412 345 409 335 c 2
 323 17 l 2
 320 7 311 0 301 0 c 0
 287 0 279 12 279 23 c 0
 279 25 280 27 280 29 c 2
 365 347 l 2
 367 354 368 360 368 366 c 0
 368 393 349 409 320 409 c 2
 201 409 l 1
 96 17 l 2
 93 7 84 0 74 0 c 0
 60 0 51 12 51 23 c 0
EndSplineSet
EndChar

StartChar: o
Encoding: 111 111 83
Width: 363
GlyphClass: 2
Flags: W
TeX: 455 0
AnchorPoint: "Anchor-5" 243 227 basechar 0
AnchorPoint: "Anchor-1" 346 614 basechar 0
LayerCount: 2
Fore
SplineSet
78 109 m 0
 78 120 80 131 83 142 c 2
 132 324 l 2
 151 396 225 455 298 455 c 0
 366 455 407 405 407 346 c 0
 407 335 406 323 403 312 c 2
 354 130 l 2
 335 58 261 0 188 0 c 0
 120 0 78 51 78 109 c 0
123 108 m 0
 123 72 149 45 188 45 c 0
 238 45 296 90 310 142 c 2
 359 324 l 2
 361 332 362 340 362 347 c 0
 362 383 337 409 298 409 c 0
 248 409 189 364 175 312 c 2
 126 130 l 2
 124 122 123 115 123 108 c 0
EndSplineSet
Substitution2: "Single Substitution lookup 38 subtable" ordmasculine
EndChar

StartChar: p
Encoding: 112 112 84
Width: 363
GlyphClass: 2
Flags: W
TeX: 455 182
LayerCount: 2
Fore
SplineSet
3 -159 m 0
 3 -157 4 -155 4 -153 c 2
 51 26 l 2
 51 28 53 29 53 31 c 2
 162 438 l 2
 164 447 173 455 184 455 c 2
 320 455 l 2
 374 455 413 418 413 367 c 1
 413 367 l 1
 413 357 412 346 409 335 c 2
 348 108 l 2
 332 48 272 0 210 0 c 2
 92 0 l 1
 47 -165 l 2
 44 -175 35 -182 25 -182 c 0
 11 -182 3 -170 3 -159 c 0
104 45 m 1
 210 45 l 2
 250 45 293 80 304 120 c 2
 365 347 l 2
 367 355 368 361 368 367 c 1
 368 367 l 1
 368 393 353 409 320 409 c 2
 201 409 l 1
 104 45 l 1
EndSplineSet
EndChar

StartChar: q
Encoding: 113 113 85
Width: 363
GlyphClass: 2
Flags: W
TeX: 455 182
LayerCount: 2
Fore
SplineSet
73 90 m 0
 73 100 74 110 77 120 c 2
 138 347 l 2
 155 409 211 455 275 455 c 2
 411 455 l 1
 412 455 l 2
 416 455 435 454 435 436 c 0
 435 433 434 430 433 426 c 2
 275 -165 l 2
 272 -175 263 -182 253 -182 c 0
 239 -182 230 -170 230 -159 c 0
 230 -157 231 -155 231 -153 c 2
 272 0 l 1
 165 0 l 2
 107 0 73 41 73 90 c 0
118 89 m 0
 118 62 136 45 165 45 c 2
 284 45 l 1
 382 409 l 1
 275 409 l 2
 233 409 192 378 181 335 c 2
 120 108 l 2
 118 101 118 95 118 89 c 0
EndSplineSet
EndChar

StartChar: r
Encoding: 114 114 86
Width: 318
GlyphClass: 2
Flags: W
TeX: 455 0
AnchorPoint: "Anchor-3" 50 -68 basechar 0
AnchorPoint: "Anchor-1" 324 614 basechar 0
LayerCount: 2
Fore
SplineSet
51 23 m 0
 51 25 52 27 52 29 c 2
 162 438 l 2
 165 448 175 455 184 455 c 2
 298 455 l 2
 346 455 372 420 372 381 c 0
 372 361 367 341 347 341 c 0
 333 341 325 353 325 364 c 0
 325 370 327 378 327 383 c 0
 327 401 316 409 298 409 c 2
 201 409 l 1
 96 17 l 2
 93 7 84 0 74 0 c 0
 60 0 51 12 51 23 c 0
EndSplineSet
EndChar

StartChar: s
Encoding: 115 115 87
Width: 363
GlyphClass: 2
Flags: W
TeX: 455 0
AnchorPoint: "Anchor-3" 164 -68 basechar 0
AnchorPoint: "Anchor-1" 346 614 basechar 0
LayerCount: 2
Fore
SplineSet
60 57 m 0
 60 70 71 80 83 80 c 0
 88 80 95 78 99 74 c 0
 118 56 146 45 188 45 c 0
 247 45 304 76 304 130 c 0
 304 140 301 146 297 150 c 2
 158 279 l 2
 143 293 137 310 137 330 c 0
 137 339 138 348 141 358 c 0
 160 429 231 455 298 455 c 0
 346 455 387 442 417 415 c 0
 422 410 425 404 425 398 c 0
 425 385 414 375 402 375 c 0
 397 375 390 377 386 381 c 0
 366 399 339 409 298 409 c 0
 238 409 196 388 185 346 c 0
 183 339 182 334 182 329 c 0
 182 320 185 316 189 312 c 2
 328 184 l 2
 343 170 350 150 350 130 c 0
 350 38 258 0 188 0 c 0
 139 0 98 12 68 40 c 0
 63 45 60 51 60 57 c 0
EndSplineSet
EndChar

StartChar: t
Encoding: 116 116 88
Width: 272
GlyphClass: 2
Flags: W
TeX: 636 0
AnchorPoint: "Anchor-3" 95 -68 basechar 0
AnchorPoint: "Anchor-2" 369 614 basechar 0
AnchorPoint: "Anchor-1" 315 750 basechar 0
LayerCount: 2
Fore
SplineSet
97 23 m 0
 97 25 98 27 98 29 c 2
 200 409 l 1
 184 409 l 2
 172 409 161 420 161 432 c 0
 161 444 172 455 184 455 c 2
 212 455 l 1
 256 620 l 2
 259 630 268 636 278 636 c 0
 292 636 301 625 301 614 c 0
 301 612 300 610 300 608 c 2
 259 455 l 1
 320 455 l 2
 332 455 343 444 343 432 c 0
 343 420 332 409 320 409 c 2
 247 409 l 1
 141 17 l 2
 138 7 130 0 120 0 c 0
 106 0 97 12 97 23 c 0
EndSplineSet
EndChar

StartChar: u
Encoding: 117 117 89
Width: 363
GlyphClass: 2
Flags: W
TeX: 455 0
AnchorPoint: "Anchor-1" 346 614 basechar 0
LayerCount: 2
Fore
SplineSet
73 90 m 0
 73 100 74 110 77 120 c 2
 162 438 l 2
 165 448 174 455 184 455 c 0
 198 455 207 443 207 432 c 0
 207 430 206 428 206 426 c 2
 120 108 l 2
 118 101 118 94 118 88 c 0
 118 61 136 45 165 45 c 2
 284 45 l 1
 390 438 l 2
 393 448 401 455 411 455 c 0
 425 455 434 443 434 432 c 0
 434 430 433 428 433 426 c 2
 323 17 l 2
 320 7 310 0 301 0 c 2
 165 0 l 2
 107 0 73 41 73 90 c 0
EndSplineSet
EndChar

StartChar: v
Encoding: 118 118 90
Width: 363
GlyphClass: 2
Flags: W
TeX: 455 0
LayerCount: 2
Fore
SplineSet
161 432 m 1
 161 444 172 455 184 455 c 0
 196 455 207 444 207 432 c 2
 210 109 l 1
 391 443 l 2
 395 450 403 455 411 455 c 0
 425 455 434 443 434 432 c 0
 434 428 433 424 431 421 c 2
 208 12 l 2
 204 4 196 0 187 0 c 0
 175 0 165 11 165 23 c 2
 161 432 l 1
 161 432 l 1
EndSplineSet
Substitution2: "'cv03' Character Variants 03 lookup 32 subtable" uni2164
EndChar

StartChar: w
Encoding: 119 119 91
Width: 545
GlyphClass: 2
Flags: W
TeX: 455 0
AnchorPoint: "Anchor-1" 437 614 basechar 0
LayerCount: 2
Fore
SplineSet
142 23 m 2
 142 24 l 1
 161 433 l 2
 161 445 172 455 184 455 c 0
 197 455 207 444 207 432 c 2
 207 431 l 1
 191 107 l 1
 345 353 l 2
 350 360 356 364 365 364 c 0
 376 364 386 355 387 343 c 2
 408 105 l 1
 573 442 l 2
 577 450 584 455 593 455 c 0
 607 455 616 443 616 432 c 0
 616 429 615 425 614 422 c 2
 413 13 l 2
 409 5 402 0 392 0 c 0
 381 0 370 9 369 21 c 2
 348 272 l 1
 185 11 l 2
 181 4 174 0 165 0 c 0
 152 0 142 11 142 23 c 2
EndSplineSet
EndChar

StartChar: x
Encoding: 120 120 92
Width: 363
GlyphClass: 2
Flags: W
TeX: 455 0
AnchorPoint: "Anchor-1" 346 614 basechar 0
LayerCount: 2
Fore
SplineSet
51 23 m 0
 51 28 52 33 56 37 c 2
 218 233 l 1
 162 425 l 2
 162 427 161 430 161 432 c 0
 161 443 170 455 184 455 c 0
 194 455 203 448 206 438 c 2
 253 275 l 1
 394 446 l 2
 399 451 404 455 411 455 c 0
 424 455 434 444 434 432 c 0
 434 427 433 421 429 417 c 2
 268 222 l 1
 323 29 l 2
 323 27 324 25 324 23 c 0
 324 12 315 0 301 0 c 0
 291 0 283 6 280 16 c 2
 233 180 l 1
 92 8 l 2
 87 3 81 0 74 0 c 0
 61 0 51 11 51 23 c 0
EndSplineSet
Substitution2: "'cv03' Character Variants 03 lookup 32 subtable" uni2169
EndChar

StartChar: y
Encoding: 121 121 93
Width: 363
GlyphClass: 2
Flags: W
TeX: 455 182
AnchorPoint: "Anchor-3" 277 -68 basechar 0
AnchorPoint: "Anchor-1" 346 614 basechar 0
LayerCount: 2
Fore
SplineSet
3 -159 m 0
 3 -147 13 -136 25 -136 c 0
 65 -136 86 -117 106 -80 c 2
 165 27 l 1
 161 432 l 1
 161 432 l 1
 161 444 172 455 184 455 c 0
 196 455 207 444 207 432 c 2
 210 110 l 1
 391 443 l 2
 395 450 403 455 411 455 c 0
 425 455 434 443 434 432 c 0
 434 428 433 424 431 421 c 2
 146 -102 l 2
 122 -145 86 -182 25 -182 c 0
 13 -182 3 -171 3 -159 c 0
EndSplineSet
EndChar

StartChar: z
Encoding: 122 122 94
Width: 363
GlyphClass: 2
Flags: W
TeX: 455 0
AnchorPoint: "Anchor-1" 346 614 basechar 0
LayerCount: 2
Fore
SplineSet
48 16 m 0
 48 26 56 37 56 37 c 1
 363 409 l 1
 184 409 l 2
 172 409 161 420 161 432 c 0
 161 444 172 455 184 455 c 2
 411 455 l 1
 411 455 438 453 438 437 c 0
 438 432 436 425 429 417 c 2
 122 45 l 1
 301 45 l 2
 313 45 324 35 324 23 c 0
 324 11 313 0 301 0 c 2
 74 0 l 2
 54 0 48 8 48 16 c 0
EndSplineSet
EndChar

StartChar: braceleft
Encoding: 123 123 95
Width: 227
GlyphClass: 2
Flags: W
TeX: 682 45
LayerCount: 2
Fore
SplineSet
95 14 m 0
 95 19 97 24 98 29 c 2
 165 279 l 1
 165 282 l 2
 165 290 159 295 154 295 c 0
 142 295 131 306 131 318 c 0
 131 330 142 341 154 341 c 0
 164 341 186 359 189 370 c 2
 256 620 l 2
 265 654 302 682 336 682 c 0
 348 682 359 671 359 659 c 0
 359 647 348 636 336 636 c 0
 326 636 303 619 300 608 c 2
 233 358 l 2
 228 341 217 325 202 313 c 1
 207 304 211 293 211 282 c 0
 211 277 210 272 209 267 c 2
 141 17 l 1
 141 14 l 2
 141 7 146 0 153 0 c 0
 165 0 176 -11 176 -23 c 0
 176 -35 165 -45 153 -45 c 0
 118 -45 95 -16 95 14 c 0
EndSplineSet
EndChar

StartChar: bar
Encoding: 124 124 96
Width: 136
GlyphClass: 2
Flags: W
TeX: 682 45
LayerCount: 2
Fore
SplineSet
40 -23 m 2
 40 -17 l 1
 223 665 l 2
 226 675 235 682 245 682 c 0
 259 682 268 670 268 659 c 0
 268 657 267 655 267 653 c 2
 84 -29 l 2
 81 -39 72 -45 62 -45 c 0
 48 -45 40 -34 40 -23 c 2
EndSplineSet
EndChar

StartChar: braceright
Encoding: 125 125 97
Width: 227
GlyphClass: 2
Flags: W
TeX: 682 45
LayerCount: 2
Fore
SplineSet
40 -23 m 0
 40 -11 50 0 62 0 c 0
 72 0 95 17 98 29 c 2
 165 279 l 2
 170 296 181 312 196 323 c 1
 190 332 187 344 187 355 c 0
 187 360 188 365 189 370 c 2
 256 620 l 2
 256 621 257 622 257 623 c 0
 257 630 251 636 245 636 c 0
 233 636 222 647 222 659 c 0
 222 671 233 682 245 682 c 0
 280 682 302 652 302 623 c 0
 302 618 301 613 300 608 c 2
 233 358 l 2
 233 357 232 356 232 355 c 0
 232 347 240 341 245 341 c 0
 257 341 267 330 267 318 c 0
 267 306 257 295 245 295 c 0
 235 295 212 278 209 267 c 2
 141 17 l 2
 132 -17 96 -45 62 -45 c 0
 50 -45 40 -35 40 -23 c 0
EndSplineSet
EndChar

StartChar: asciitilde
Encoding: 126 126 98
Width: 409
GlyphClass: 2
Flags: W
TeX: 273 -182
LayerCount: 2
Fore
SplineSet
106 227 m 0
 106 235 110 242 117 246 c 0
 144 263 173 273 203 273 c 0
 233 273 261 264 281 244 c 0
 291 234 307 227 328 227 c 0
 349 227 369 233 390 246 c 0
 394 248 398 250 402 250 c 0
 413 250 425 240 425 227 c 0
 425 219 421 212 414 208 c 0
 387 191 358 182 328 182 c 0
 298 182 270 191 250 211 c 0
 240 221 224 227 203 227 c 0
 182 227 162 221 141 208 c 0
 137 206 133 205 129 205 c 0
 118 205 106 214 106 227 c 0
EndSplineSet
EndChar

StartChar: exclamdown
Encoding: 161 161 100
Width: 136
GlyphClass: 2
Flags: W
TeX: 636 0
LayerCount: 2
Fore
SplineSet
51 23 m 0
 51 25 52 27 52 29 c 2
 174 483 l 2
 177 493 186 500 196 500 c 0
 210 500 219 488 219 477 c 0
 219 475 218 473 218 471 c 2
 96 17 l 2
 93 7 84 0 74 0 c 0
 60 0 51 12 51 23 c 0
210 614 m 0
 210 627 220 636 233 636 c 0
 246 636 255 627 255 614 c 0
 255 601 246 591 233 591 c 0
 220 591 210 601 210 614 c 0
EndSplineSet
EndChar

StartChar: cent
Encoding: 162 162 101
Width: 363
GlyphClass: 2
Flags: W
TeX: 545 91
LayerCount: 2
Fore
SplineSet
72 89 m 0
 72 99 74 110 77 120 c 2
 138 347 l 2
 154 407 213 455 275 455 c 2
 303 455 l 1
 323 529 l 2
 326 539 335 545 345 545 c 0
 359 545 367 534 367 523 c 0
 367 521 366 519 366 517 c 2
 350 455 l 1
 411 455 l 2
 423 455 434 444 434 432 c 0
 434 420 423 409 411 409 c 2
 338 409 l 1
 240 45 l 1
 301 45 l 2
 313 45 324 35 324 23 c 0
 324 11 313 0 301 0 c 2
 228 0 l 1
 208 -74 l 2
 205 -84 196 -91 186 -91 c 0
 172 -91 164 -79 164 -68 c 0
 164 -66 165 -64 165 -62 c 2
 181 0 l 1
 165 0 l 2
 112 0 72 37 72 89 c 0
118 89 m 0
 118 64 134 45 165 45 c 2
 193 45 l 1
 290 409 l 1
 275 409 l 2
 235 409 192 375 181 335 c 2
 120 108 l 2
 118 101 118 95 118 89 c 0
EndSplineSet
EndChar

StartChar: sterling
Encoding: 163 163 102
Width: 409
GlyphClass: 2
Flags: W
TeX: 636 0
LayerCount: 2
Fore
SplineSet
51 23 m 0
 51 35 62 45 74 45 c 2
 77 45 l 2
 87 45 106 60 110 74 c 2
 175 318 l 1
 160 318 l 2
 148 318 137 329 137 341 c 0
 137 353 148 364 160 364 c 2
 187 364 l 1
 232 529 l 2
 248 589 309 636 369 636 c 0
 426 636 461 594 461 545 c 0
 461 524 456 500 435 500 c 0
 421 500 413 512 413 523 c 0
 413 531 416 539 416 546 c 0
 416 573 397 591 369 591 c 0
 331 591 285 556 275 517 c 2
 235 364 l 1
 296 364 l 2
 308 364 319 353 319 341 c 0
 319 329 308 318 296 318 c 2
 222 318 l 1
 154 62 l 2
 153 56 150 50 147 45 c 1
 279 45 l 2
 305 45 337 70 344 97 c 0
 347 107 355 114 365 114 c 0
 379 114 388 102 388 91 c 0
 388 89 387 87 387 85 c 0
 374 38 328 0 279 0 c 2
 74 0 l 2
 62 0 51 11 51 23 c 0
EndSplineSet
EndChar

StartChar: currency
Encoding: 164 164 103
Width: 636
GlyphClass: 2
Flags: W
TeX: 591 -45
LayerCount: 2
Fore
SplineSet
64 68 m 0
 64 75 67 81 72 86 c 2
 150 146 l 1
 134 174 122 212 122 253 c 0
 122 276 126 300 132 324 c 0
 151 395 193 455 243 499 c 1
 202 554 l 2
 199 558 198 563 198 568 c 0
 198 580 207 590 220 590 c 0
 227 590 234 587 239 581 c 2
 279 527 l 1
 329 562 401 591 470 591 c 0
 540 591 595 565 631 526 c 1
 706 585 l 2
 710 588 715 590 720 590 c 0
 732 590 743 581 743 568 c 0
 743 561 740 555 735 550 c 2
 658 490 l 1
 674 462 685 424 685 383 c 0
 685 360 681 336 675 312 c 0
 656 241 614 182 564 138 c 1
 605 82 l 2
 608 78 609 74 609 69 c 0
 609 57 599 46 586 46 c 0
 579 46 573 49 568 55 c 2
 529 110 l 1
 479 75 405 45 336 45 c 0
 266 45 212 71 176 110 c 1
 100 50 l 2
 96 47 91 45 86 45 c 0
 74 45 64 55 64 68 c 0
167 253 m 0
 167 234 170 217 175 200 c 0
 194 141 246 90 336 90 c 0
 377 90 418 101 460 122 c 0
 533 159 607 231 632 324 c 0
 637 345 640 364 640 383 c 0
 640 402 637 420 632 437 c 0
 613 495 561 545 470 545 c 0
 429 545 388 535 346 514 c 0
 273 477 200 405 175 312 c 0
 170 291 167 272 167 253 c 0
EndSplineSet
EndChar

StartChar: yen
Encoding: 165 165 104
Width: 454
GlyphClass: 2
Flags: W
TeX: 636 0
LayerCount: 2
Fore
SplineSet
135 250 m 0
 135 262 146 273 158 273 c 2
 277 273 l 1
 289 318 l 1
 182 318 l 2
 170 318 160 329 160 341 c 0
 160 353 170 364 182 364 c 2
 277 364 l 1
 211 608 l 2
 211 610 210 612 210 614 c 0
 210 625 219 636 233 636 c 0
 243 636 252 630 255 620 c 2
 323 367 l 1
 533 628 l 2
 538 633 544 636 551 636 c 0
 564 636 574 626 574 614 c 0
 574 609 572 604 569 600 c 2
 379 364 l 1
 455 364 l 2
 467 364 478 353 478 341 c 0
 478 329 467 318 455 318 c 2
 342 318 l 1
 334 308 l 1
 324 273 l 1
 430 273 l 2
 442 273 453 262 453 250 c 0
 453 238 442 227 430 227 c 2
 312 227 l 1
 255 17 l 2
 252 7 243 0 233 0 c 0
 219 0 210 12 210 23 c 0
 210 25 211 27 211 29 c 2
 265 227 l 1
 158 227 l 2
 146 227 135 238 135 250 c 0
EndSplineSet
EndChar

StartChar: brokenbar
Encoding: 166 166 105
Width: 136
GlyphClass: 2
Flags: W
TeX: 682 45
LayerCount: 2
Fore
SplineSet
40 -23 m 2
 40 -17 l 1
 113 256 l 2
 116 266 125 273 135 273 c 0
 149 273 158 261 158 250 c 0
 158 248 157 246 157 244 c 2
 84 -29 l 2
 81 -39 72 -45 62 -45 c 0
 48 -45 40 -34 40 -23 c 2
149 386 m 0
 149 388 150 390 150 392 c 2
 223 665 l 2
 226 675 235 682 245 682 c 0
 259 682 268 670 268 659 c 0
 268 657 267 655 267 653 c 2
 194 380 l 2
 191 370 182 364 172 364 c 0
 158 364 149 375 149 386 c 0
EndSplineSet
EndChar

StartChar: section
Encoding: 167 167 106
Width: 363
GlyphClass: 2
Flags: W
TeX: 682 45
LayerCount: 2
Fore
SplineSet
75 23 m 0
 75 34 83 46 97 46 c 0
 106 46 115 40 119 31 c 0
 127 11 141 0 176 0 c 0
 220 0 272 43 272 96 c 0
 272 106 270 114 265 119 c 0
 257 129 234 153 198 192 c 0
 167 225 136 260 136 317 c 0
 136 398 185 462 229 496 c 1
 220 510 217 525 217 541 c 0
 217 621 290 682 359 682 c 0
 406 682 442 661 458 621 c 0
 459 618 460 616 460 613 c 0
 460 602 451 590 437 590 c 0
 428 590 420 596 416 605 c 0
 408 625 393 636 359 636 c 0
 315 636 262 593 262 540 c 0
 262 530 265 524 270 518 c 0
 278 508 300 482 336 444 c 0
 367 411 398 377 398 320 c 0
 398 239 349 174 305 140 c 1
 314 127 318 112 318 96 c 0
 318 16 246 -45 176 -45 c 0
 130 -45 92 -25 76 15 c 0
 75 18 75 20 75 23 c 0
181 313 m 0
 181 274 200 254 230 223 c 0
 249 203 263 188 275 175 c 1
 311 202 353 257 353 323 c 0
 353 362 334 382 304 413 c 0
 285 433 270 448 259 461 c 1
 223 434 181 379 181 313 c 0
EndSplineSet
EndChar

StartChar: dieresis
Encoding: 168 168 107
Width: 272
GlyphClass: 4
Flags: W
TeX: 637 -591
AnchorPoint: "Anchor-1" 301 614 mark 0
LayerCount: 2
Fore
SplineSet
346 614 m 0
 346 626 357 637 369 637 c 0
 381 637 391 626 391 614 c 0
 391 601 382 591 369 591 c 0
 356 591 346 601 346 614 c 0
210 614 m 0
 210 626 221 637 233 637 c 0
 245 637 255 626 255 614 c 0
 255 601 246 591 233 591 c 0
 220 591 210 601 210 614 c 0
EndSplineSet
EndChar

StartChar: copyright
Encoding: 169 169 108
Width: 985
GlyphClass: 2
Flags: W
TeX: 750 -68
LayerCount: 2
Fore
SplineSet
259 409 m 0
 259 597 412 750 600 750 c 0
 788 750 940 597 940 409 c 0
 940 221 788 68 600 68 c 0
 498 68 406 114 343 185 c 1
 304 195 277 228 277 271 c 0
 277 278 278 285 279 293 c 0
 266 329 259 368 259 409 c 0
304 409 m 0
 304 402 305 396 305 389 c 1
 342 529 l 2
 358 589 418 636 480 636 c 2
 570 636 l 2
 582 636 593 626 593 614 c 0
 593 602 582 591 570 591 c 2
 480 591 l 2
 440 591 397 557 386 517 c 2
 327 296 l 1
 337 271 351 248 367 227 c 1
 370 227 l 1
 460 227 l 2
 472 227 483 217 483 205 c 0
 483 193 472 182 460 182 c 2
 411 182 l 1
 462 139 529 114 600 114 c 0
 762 114 895 247 895 409 c 0
 895 571 762 705 600 705 c 0
 438 705 304 571 304 409 c 0
EndSplineSet
EndChar

StartChar: ordfeminine
Encoding: 170 170 109
Width: 409
GlyphClass: 2
Flags: W
TeX: 636 -318
LayerCount: 2
Fore
SplineSet
153 392 m 0
 153 399 154 407 156 415 c 2
 193 551 l 2
 206 598 252 636 301 636 c 2
 415 636 l 1
 415 636 l 1
 419 636 438 636 438 618 c 0
 438 615 437 612 436 608 c 0
 416 532 395 456 375 380 c 0
 374 377 375 376 375 374 c 0
 375 366 380 364 387 364 c 0
 399 364 410 353 410 341 c 0
 410 329 399 318 387 318 c 0
 364 318 350 328 340 342 c 1
 321 327 297 318 273 318 c 2
 228 318 l 2
 181 318 153 352 153 392 c 0
198 391 m 0
 198 373 210 364 228 364 c 2
 273 364 l 2
 299 364 331 388 338 415 c 0
 354 474 369 532 385 591 c 1
 301 591 l 2
 275 591 243 567 236 540 c 2
 200 403 l 2
 199 398 198 395 198 391 c 0
EndSplineSet
EndChar

StartChar: guillemotleft
Encoding: 171 171 110
Width: 409
GlyphClass: 2
Flags: W
TeX: 409 -45
LayerCount: 2
Fore
SplineSet
129 227 m 0
 129 233 131 238 135 243 c 2
 292 402 l 2
 297 407 302 409 308 409 c 0
 320 409 331 398 331 386 c 0
 331 380 329 375 325 370 c 2
 179 222 l 1
 244 77 l 2
 245 74 245 71 245 68 c 0
 245 57 237 45 223 45 c 0
 214 45 206 51 202 59 c 2
 131 218 l 2
 130 221 129 224 129 227 c 0
288 227 m 0
 288 233 290 238 294 243 c 2
 451 402 l 2
 456 407 461 409 467 409 c 0
 479 409 490 398 490 386 c 0
 490 380 488 375 484 370 c 2
 338 222 l 1
 403 77 l 2
 404 74 404 71 404 68 c 0
 404 57 396 45 382 45 c 0
 373 45 365 51 361 59 c 2
 290 218 l 2
 289 221 288 224 288 227 c 0
EndSplineSet
EndChar

StartChar: logicalnot
Encoding: 172 172 111
Width: 409
GlyphClass: 2
Flags: W
TeX: 295 -159
LayerCount: 2
Fore
SplineSet
119 273 m 0
 119 285 129 295 141 295 c 2
 414 295 l 1
 415 295 l 2
 419 295 437 295 437 277 c 0
 437 274 437 271 436 267 c 2
 411 176 l 2
 408 166 400 159 390 159 c 0
 376 159 367 171 367 182 c 0
 367 184 368 186 368 188 c 2
 385 250 l 1
 141 250 l 2
 129 250 119 261 119 273 c 0
EndSplineSet
EndChar

StartChar: uni00AD
Encoding: 173 173 112
Width: 227
GlyphClass: 2
Flags: W
TeX: 250 -205
LayerCount: 2
Fore
SplineSet
106 227 m 0
 106 239 117 250 129 250 c 2
 220 250 l 2
 232 250 243 239 243 227 c 0
 243 215 232 205 220 205 c 2
 129 205 l 2
 117 205 106 215 106 227 c 0
EndSplineSet
EndChar

StartChar: registered
Encoding: 174 174 113
Width: 985
GlyphClass: 2
Flags: W
TeX: 750 -68
LayerCount: 2
Fore
SplineSet
259 409 m 0
 259 597 412 750 600 750 c 0
 788 750 940 597 940 409 c 0
 940 221 788 68 600 68 c 0
 497 68 405 115 342 187 c 1
 338 184 333 182 328 182 c 0
 314 182 305 194 305 205 c 0
 305 207 306 208 306 210 c 2
 310 229 l 1
 277 281 259 343 259 409 c 0
304 409 m 0
 304 368 313 328 328 293 c 1
 354 390 l 2
 354 391 355 393 355 394 c 2
 415 620 l 2
 417 629 426 636 437 636 c 2
 574 636 l 2
 634 636 662 585 662 536 c 1
 662 536 l 1
 662 522 660 508 656 494 c 0
 642 441 598 382 540 367 c 1
 577 210 l 2
 577 208 578 207 578 205 c 0
 578 194 569 182 555 182 c 0
 545 182 535 190 533 200 c 2
 495 364 l 1
 394 364 l 1
 360 237 l 1
 414 162 502 114 600 114 c 0
 762 114 895 247 895 409 c 0
 895 571 762 705 600 705 c 0
 438 705 304 571 304 409 c 0
406 409 m 1
 513 409 l 2
 560 409 616 471 616 536 c 0
 616 571 601 591 574 591 c 2
 455 591 l 1
 406 409 l 1
EndSplineSet
EndChar

StartChar: macron
Encoding: 175 175 114
Width: 227
GlyphClass: 4
Flags: W
TeX: 636 -591
AnchorPoint: "Anchor-1" 278 614 mark 0
LayerCount: 2
Fore
SplineSet
210 614 m 0
 210 626 221 636 233 636 c 2
 324 636 l 2
 336 636 347 626 347 614 c 0
 347 602 336 591 324 591 c 2
 233 591 l 2
 221 591 210 602 210 614 c 0
EndSplineSet
EndChar

StartChar: degree
Encoding: 176 176 115
Width: 455
GlyphClass: 2
Flags: W
TeX: 636 -455
LayerCount: 2
Fore
SplineSet
228 545 m 0
 228 595 269 636 319 636 c 0
 369 636 410 595 410 545 c 0
 410 495 369 455 319 455 c 0
 269 455 228 495 228 545 c 0
274 545 m 0
 274 520 294 500 319 500 c 0
 344 500 365 520 365 545 c 0
 365 570 344 591 319 591 c 0
 294 591 274 570 274 545 c 0
EndSplineSet
EndChar

StartChar: plusminus
Encoding: 177 177 116
Width: 363
GlyphClass: 2
Flags: W
TeX: 409 -23
LayerCount: 2
Fore
SplineSet
119 272 m 0
 119 284 129 295 141 295 c 2
 238 295 l 1
 264 392 l 2
 267 402 275 409 285 409 c 0
 299 409 308 397 308 386 c 0
 308 384 307 382 307 380 c 2
 285 295 l 1
 369 295 l 2
 381 295 391 284 391 272 c 0
 391 260 381 250 369 250 c 2
 272 250 l 1
 246 153 l 2
 243 143 235 136 225 136 c 0
 211 136 202 148 202 159 c 0
 202 161 203 163 203 165 c 2
 225 250 l 1
 141 250 l 2
 129 250 119 260 119 272 c 0
58 45 m 0
 58 57 68 68 80 68 c 2
 308 68 l 2
 320 68 330 57 330 45 c 0
 330 33 320 23 308 23 c 2
 80 23 l 2
 68 23 58 33 58 45 c 0
EndSplineSet
EndChar

StartChar: uni00B2
Encoding: 178 178 117
Width: 291
GlyphClass: 2
Flags: W
TeX: 863 -409
LayerCount: 2
Fore
SplineSet
145.428710938 425.428710938 m 0
 145.428710938 429.713867188 147.571289062 434 150.428710938 436.857421875 c 2
 405.428710938 712.571289062 l 2
 419.71484375 727.571289062 431.142578125 749 431.142578125 775.428710938 c 0
 431.142578125 808.286132812 408.286132812 831.142578125 372.571289062 831.142578125 c 0
 336.857421875 831.142578125 296.142578125 804.71484375 276.857421875 774 c 0
 274 769 268.286132812 766.142578125 262.571289062 766.142578125 c 0
 253.286132812 766.142578125 246.857421875 774.71484375 246.857421875 782.571289062 c 0
 246.857421875 785.428710938 247.571289062 788.286132812 249 791.142578125 c 0
 273.286132812 831.142578125 322.571289062 863.286132812 372.571289062 863.286132812 c 0
 429 863.286132812 463.286132812 822.571289062 463.286132812 774 c 0
 463.286132812 738.286132812 449.71484375 711.857421875 429.71484375 690.428710938 c 2
 199 441.142578125 l 1
 356.857421875 441.142578125 l 2
 365.428710938 441.142578125 373.286132812 434 373.286132812 425.428710938 c 0
 373.286132812 416.857421875 365.428710938 409 356.857421875 409 c 2
 161.857421875 409 l 2
 153.286132812 409 145.428710938 416.857421875 145.428710938 425.428710938 c 0
EndSplineSet
EndChar

StartChar: uni00B3
Encoding: 179 179 118
Width: 259
GlyphClass: 2
Flags: W
TeX: 863 -409
LayerCount: 2
Fore
SplineSet
145.428710938 425.428710938 m 0
 145.428710938 434 153.286132812 441.142578125 161.857421875 441.142578125 c 2
 210.428710938 441.142578125 l 2
 265.428710938 441.142578125 324 486.142578125 339 543.286132812 c 0
 341.142578125 551.857421875 342.571289062 560.428710938 342.571289062 569 c 0
 342.571289062 604.71484375 323.286132812 636.142578125 287.571289062 636.142578125 c 0
 279 636.142578125 271.857421875 643.286132812 271.857421875 651.857421875 c 0
 271.857421875 661.142578125 278.286132812 669 287.571289062 669 c 0
 331.857421875 669 366.142578125 704.71484375 379.71484375 754 c 0
 381.857421875 761.142578125 382.571289062 769 382.571289062 775.428710938 c 0
 382.571289062 808.286132812 359.71484375 831.142578125 324 831.142578125 c 2
 275.428710938 831.142578125 l 2
 266.857421875 831.142578125 259 839 259 847.571289062 c 0
 259 856.142578125 266.857421875 863.286132812 275.428710938 863.286132812 c 2
 324 863.286132812 l 2
 380.428710938 863.286132812 414.71484375 822.571289062 414.71484375 774 c 0
 414.71484375 764.71484375 413.286132812 755.428710938 410.428710938 745.428710938 c 0
 399.71484375 706.142578125 376.142578125 669 341.142578125 649.71484375 c 1
 364 630.428710938 374.71484375 600.428710938 374.71484375 569 c 0
 374.71484375 557.571289062 373.286132812 545.428710938 370.428710938 534.713867188 c 0
 351.142578125 463.286132812 281.142578125 409 210.428710938 409 c 2
 161.857421875 409 l 2
 153.286132812 409 145.428710938 416.857421875 145.428710938 425.428710938 c 0
EndSplineSet
Substitution2: "'cv01' Character Variants 01 lookup 1 subtable" three.alt.sup
EndChar

StartChar: acute
Encoding: 180 180 119
Width: 159
GlyphClass: 2
Flags: W
TeX: 636 -545
LayerCount: 2
Fore
SplineSet
198 568 m 0
 198 573 199 578 202 582 c 2
 237 628 l 2
 242 634 248 636 255 636 c 0
 268 636 278 626 278 614 c 0
 278 609 276 604 273 600 c 2
 238 554 l 2
 233 548 227 545 220 545 c 0
 207 545 198 556 198 568 c 0
EndSplineSet
EndChar

StartChar: mu
Encoding: 181 181 120
Width: 409
GlyphClass: 2
Flags: W
TeX: 455 182
LayerCount: 2
Fore
SplineSet
3 -159 m 0
 3 -157 4 -155 4 -153 c 0
 30 -54 57 43 83 142 c 2
 162 438 l 2
 165 448 174 455 184 455 c 0
 198 455 207 443 207 432 c 0
 207 430 206 428 206 426 c 0
 180 327 152 229 126 130 c 0
 124 121 123 114 123 106 c 0
 123 69 148 45 188 45 c 0
 239 45 297 92 310 142 c 1
 310 145 l 1
 390 438 l 2
 393 448 401 455 411 455 c 0
 425 455 434 443 434 432 c 0
 434 430 433 428 433 426 c 2
 335 62 l 1
 335 57 l 2
 335 50 339 45 347 45 c 0
 359 45 370 35 370 23 c 0
 370 11 359 0 347 0 c 0
 321 0 299 17 292 40 c 1
 262 15 225 0 187 0 c 0
 147 0 120 16 102 38 c 1
 47 -165 l 2
 44 -175 35 -182 25 -182 c 0
 11 -182 3 -170 3 -159 c 0
EndSplineSet
EndChar

StartChar: paragraph
Encoding: 182 182 121
Width: 500
GlyphClass: 2
Flags: W
TeX: 636 0
LayerCount: 2
Fore
SplineSet
169 443 m 0
 169 456 170 469 174 483 c 0
 197 568 283 636 369 636 c 2
 596 636 l 2
 608 636 619 626 619 614 c 0
 619 602 608 591 596 591 c 2
 545 591 l 1
 391 17 l 2
 388 7 380 0 370 0 c 0
 356 0 347 12 347 23 c 0
 347 25 348 27 348 29 c 2
 499 591 l 1
 409 591 l 1
 341 336 l 1
 340 335 l 1
 255 17 l 2
 252 7 243 0 233 0 c 0
 219 0 210 12 210 23 c 0
 210 25 211 27 211 29 c 2
 289 318 l 1
 219 321 169 374 169 443 c 0
214 443 m 0
 214 398 246 364 296 364 c 2
 301 364 l 1
 362 591 l 1
 301 587 235 533 218 471 c 0
 215 461 214 452 214 443 c 0
EndSplineSet
EndChar

StartChar: periodcentered
Encoding: 183 183 122
Width: 136
GlyphClass: 4
Flags: W
TeX: 250 -205
AnchorPoint: "Anchor-4" 129 227 mark 0
LayerCount: 2
Fore
SplineSet
106 228 m 0
 106 241 116 250 129 250 c 0
 142 250 152 241 152 228 c 0
 152 215 142 205 129 205 c 0
 116 205 106 215 106 228 c 0
EndSplineSet
EndChar

StartChar: uni00B9
Encoding: 185 185 123
Width: 194
GlyphClass: 2
Flags: W
TeX: 863 -409
LayerCount: 2
Fore
SplineSet
232.571289062 749.71484375 m 0
 232.571289062 754.71484375 235.428710938 759 239 762.571289062 c 2
 362.571289062 859.71484375 l 2
 365.428710938 861.857421875 369 863.286132812 372.571289062 863.286132812 c 2
 373.286132812 863.286132812 l 2
 376.142578125 863.286132812 389 863.286132812 389 850.428710938 c 0
 389 848.286132812 389 846.142578125 388.286132812 843.286132812 c 2
 274.713867188 421.142578125 l 2
 272.571289062 414 265.428710938 409 259 409 c 0
 249.713867188 409 244 416.857421875 244 426.142578125 c 0
 244 428.286132812 244 430.428710938 244.713867188 432.571289062 c 2
 344.71484375 804.71484375 l 1
 259 737.571289062 l 2
 256.142578125 735.428710938 252.571289062 734 249 734 c 0
 240.428710938 734 232.571289062 740.428710938 232.571289062 749.71484375 c 0
EndSplineSet
EndChar

StartChar: ordmasculine
Encoding: 186 186 124
Width: 272
GlyphClass: 2
Flags: W
TeX: 636 -318
LayerCount: 2
Fore
SplineSet
153 392 m 0
 153 399 154 407 156 415 c 2
 193 551 l 2
 206 598 252 636 301 636 c 0
 348 636 376 602 376 562 c 0
 376 555 375 548 373 540 c 2
 336 403 l 2
 323 356 277 318 228 318 c 0
 181 318 153 352 153 392 c 0
198 391 m 0
 198 374 210 364 228 364 c 0
 254 364 285 388 292 415 c 2
 329 551 l 2
 330 556 330 559 330 563 c 0
 330 580 319 591 301 591 c 0
 275 591 243 567 236 540 c 2
 200 403 l 2
 199 398 198 395 198 391 c 0
EndSplineSet
EndChar

StartChar: guillemotright
Encoding: 187 187 125
Width: 409
GlyphClass: 2
Flags: W
TeX: 409 -45
LayerCount: 2
Fore
SplineSet
64 68 m 0
 64 74 66 79 70 84 c 2
 215 232 l 1
 151 377 l 2
 150 380 149 383 149 386 c 0
 149 397 158 409 172 409 c 0
 181 409 189 403 193 395 c 2
 264 236 l 2
 265 233 265 230 265 227 c 0
 265 221 263 216 259 211 c 2
 103 52 l 2
 98 47 92 45 86 45 c 0
 74 45 64 56 64 68 c 0
223 68 m 0
 223 74 225 79 229 84 c 2
 374 232 l 1
 310 377 l 2
 309 380 308 383 308 386 c 0
 308 397 317 409 331 409 c 0
 340 409 348 403 352 395 c 2
 423 236 l 2
 424 233 424 230 424 227 c 0
 424 221 422 216 418 211 c 2
 262 52 l 2
 257 47 251 45 245 45 c 0
 233 45 223 56 223 68 c 0
EndSplineSet
EndChar

StartChar: questiondown
Encoding: 191 191 126
Width: 363
GlyphClass: 2
Flags: W
TeX: 636 0
LayerCount: 2
Fore
SplineSet
78 108 m 0
 78 203 168 253 210 285 c 0
 231 301 244 321 251 347 c 2
 288 483 l 2
 291 493 300 500 310 500 c 0
 324 500 332 488 332 477 c 0
 332 475 331 473 331 471 c 2
 295 335 l 2
 285 300 267 270 238 248 c 0
 194 214 139 180 126 130 c 0
 124 121 123 114 123 106 c 0
 123 70 149 45 188 45 c 0
 243 45 276 59 296 83 c 0
 301 88 308 91 314 91 c 0
 327 91 336 81 336 69 c 0
 336 64 335 58 331 54 c 0
 299 17 250 0 188 0 c 0
 120 0 78 49 78 108 c 0
323 613 m 0
 323 626 333 636 346 636 c 0
 359 636 369 626 369 613 c 0
 369 600 359 590 346 590 c 0
 333 590 323 600 323 613 c 0
EndSplineSet
EndChar

StartChar: Aacute
Encoding: 193 193 127
Width: 454
GlyphClass: 3
Flags: W
TeX: 772 0
LayerCount: 2
Fore
SplineSet
51 23 m 0
 51 27 52 31 54 34 c 2
 371 625 l 2
 375 633 383 636 392 636 c 0
 404 636 415 626 415 614 c 2
 415 23 l 2
 415 11 404 0 392 0 c 0
 380 0 370 11 370 23 c 2
 370 182 l 1
 185 182 l 1
 94 12 l 2
 90 4 82 0 74 0 c 0
 60 0 51 12 51 23 c 0
210 227 m 1
 370 227 l 1
 370 525 l 1
 210 227 l 1
371 704 m 0
 371 709 372 714 375 718 c 2
 410 764 l 2
 415 770 421 772 428 772 c 0
 441 772 451 762 451 750 c 0
 451 745 449 740 446 736 c 2
 411 690 l 2
 406 684 400 681 393 681 c 0
 380 681 371 692 371 704 c 0
EndSplineSet
Ligature2: "'ccmp' Glyph Composition/Decomposition in Latin lookup 52 subtable" A acutecomb
Ligature2: "'ccmp' Glyph Composition/Decomposition in Latin lookup 48 subtable" A acutecomb
EndChar

StartChar: Acircumflex
Encoding: 194 194 128
Width: 454
GlyphClass: 3
Flags: W
TeX: 772 0
LayerCount: 2
Fore
SplineSet
51 23 m 0
 51 27 52 31 54 34 c 2
 371 625 l 2
 375 633 383 636 392 636 c 0
 404 636 415 626 415 614 c 2
 415 23 l 2
 415 11 404 0 392 0 c 0
 380 0 370 11 370 23 c 2
 370 182 l 1
 185 182 l 1
 94 12 l 2
 90 4 82 0 74 0 c 0
 60 0 51 12 51 23 c 0
210 227 m 1
 370 227 l 1
 370 525 l 1
 210 227 l 1
348 704 m 0
 348 711 352 717 357 722 c 2
 414 767 l 2
 418 770 424 772 429 772 c 0
 436 772 442 769 447 763 c 2
 480 717 l 2
 483 713 484 709 484 704 c 0
 484 692 475 681 462 681 c 0
 455 681 449 685 444 691 c 2
 424 717 l 1
 385 686 l 2
 381 683 376 681 371 681 c 0
 359 681 348 691 348 704 c 0
EndSplineSet
Ligature2: "'ccmp' Glyph Composition/Decomposition in Latin lookup 51 subtable" A uni0302
EndChar

StartChar: Adieresis
Encoding: 196 196 129
Width: 454
GlyphClass: 3
Flags: W
TeX: 773 0
LayerCount: 2
Fore
SplineSet
51 23 m 0
 51 27 52 31 54 34 c 2
 371 625 l 2
 375 633 383 636 392 636 c 0
 404 636 415 626 415 614 c 2
 415 23 l 2
 415 11 404 0 392 0 c 0
 380 0 370 11 370 23 c 2
 370 182 l 1
 185 182 l 1
 94 12 l 2
 90 4 82 0 74 0 c 0
 60 0 51 12 51 23 c 0
210 227 m 1
 370 227 l 1
 370 525 l 1
 210 227 l 1
473 750 m 0
 473 762 484 773 496 773 c 0
 508 773 518 762 518 750 c 0
 518 737 509 727 496 727 c 0
 483 727 473 737 473 750 c 0
337 750 m 0
 337 762 348 773 360 773 c 0
 372 773 382 762 382 750 c 0
 382 737 373 727 360 727 c 0
 347 727 337 737 337 750 c 0
EndSplineSet
Ligature2: "'ccmp' Glyph Composition/Decomposition in Latin lookup 52 subtable" A uni0308
Ligature2: "'ccmp' Glyph Composition/Decomposition in Latin lookup 52 subtable" A uni0308
Ligature2: "'ccmp' Glyph Composition/Decomposition in Latin lookup 49 subtable" A uni0308
EndChar

StartChar: AE
Encoding: 198 198 130
Width: 636
GlyphClass: 2
Flags: W
TeX: 636 0
LayerCount: 2
Fore
SplineSet
51 23 m 0
 51 27 52 31 54 34 c 2
 372 625 l 2
 376 632 383 636 392 636 c 2
 733 636 l 2
 745 636 755 626 755 614 c 0
 755 602 745 591 733 591 c 2
 523 591 l 1
 462 364 l 1
 562 364 l 2
 564 364 567 365 569 365 c 0
 582 365 591 354 591 341 c 0
 591 331 583 318 569 318 c 2
 450 318 l 1
 419 202 l 2
 419 200 418 197 417 195 c 2
 376 45 l 1
 574 45 l 2
 586 45 597 35 597 23 c 0
 597 11 586 0 574 0 c 2
 347 0 l 2
 327 0 324 11 324 19 c 0
 324 24 325 28 325 29 c 2
 366 182 l 1
 185 182 l 1
 94 12 l 2
 90 4 82 0 74 0 c 0
 60 0 51 12 51 23 c 0
210 227 m 1
 378 227 l 1
 476 591 l 1
 405 591 l 1
 210 227 l 1
EndSplineSet
EndChar

StartChar: Eacute
Encoding: 201 201 131
Width: 363
GlyphClass: 3
Flags: W
TeX: 772 0
LayerCount: 2
Fore
SplineSet
51 19 m 0
 51 24 52 28 52 29 c 2
 211 620 l 2
 213 629 222 636 233 636 c 2
 460 636 l 2
 472 636 483 626 483 614 c 0
 483 602 472 591 460 591 c 2
 250 591 l 1
 189 364 l 1
 296 364 l 2
 308 364 319 353 319 341 c 0
 319 329 308 318 296 318 c 2
 177 318 l 1
 104 45 l 1
 301 45 l 2
 313 45 324 35 324 23 c 0
 324 11 313 0 301 0 c 2
 74 0 l 2
 54 0 51 11 51 19 c 0
325 704 m 0
 325 709 326 714 329 718 c 2
 364 764 l 2
 369 770 375 772 382 772 c 0
 395 772 405 762 405 750 c 0
 405 745 403 740 400 736 c 2
 365 690 l 2
 360 684 354 681 347 681 c 0
 334 681 325 692 325 704 c 0
EndSplineSet
Ligature2: "'ccmp' Glyph Composition/Decomposition in Latin lookup 52 subtable" E acutecomb
Ligature2: "'ccmp' Glyph Composition/Decomposition in Latin lookup 48 subtable" E acutecomb
EndChar

StartChar: Iacute
Encoding: 205 205 132
Width: 136
GlyphClass: 3
Flags: W
TeX: 772 0
LayerCount: 2
Fore
SplineSet
51 23 m 0
 51 25 52 27 52 29 c 2
 211 620 l 2
 214 630 223 636 233 636 c 0
 247 636 255 625 255 614 c 2
 255 608 l 1
 96 17 l 2
 93 7 84 0 74 0 c 0
 60 0 51 12 51 23 c 0
212 704 m 0
 212 709 213 714 216 718 c 2
 251 764 l 2
 256 770 262 772 269 772 c 0
 282 772 292 762 292 750 c 0
 292 745 290 740 287 736 c 2
 252 690 l 2
 247 684 241 681 234 681 c 0
 221 681 212 692 212 704 c 0
EndSplineSet
Ligature2: "'ccmp' Glyph Composition/Decomposition in Latin lookup 52 subtable" I acutecomb
Ligature2: "'ccmp' Glyph Composition/Decomposition in Latin lookup 48 subtable" I acutecomb
EndChar

StartChar: Icircumflex
Encoding: 206 206 133
Width: 136
GlyphClass: 3
Flags: W
TeX: 772 0
LayerCount: 2
Fore
SplineSet
51 23 m 0
 51 25 52 27 52 29 c 2
 211 620 l 2
 214 630 223 636 233 636 c 0
 247 636 255 625 255 614 c 2
 255 608 l 1
 96 17 l 2
 93 7 84 0 74 0 c 0
 60 0 51 12 51 23 c 0
189 704 m 0
 189 711 193 717 198 722 c 2
 255 767 l 2
 259 770 265 772 270 772 c 0
 277 772 283 769 288 763 c 2
 321 717 l 2
 324 713 325 709 325 704 c 0
 325 692 316 681 303 681 c 0
 296 681 290 685 285 691 c 2
 265 717 l 1
 226 686 l 2
 222 683 217 681 212 681 c 0
 200 681 189 691 189 704 c 0
EndSplineSet
Ligature2: "'ccmp' Glyph Composition/Decomposition in Latin lookup 51 subtable" I uni0302
EndChar

StartChar: Oacute
Encoding: 211 211 134
Width: 409
GlyphClass: 3
Flags: W
TeX: 772 0
LayerCount: 2
Fore
SplineSet
84 125 m 0
 84 138 85 151 89 165 c 2
 174 483 l 2
 197 568 283 636 369 636 c 0
 448 636 496 579 496 511 c 0
 496 498 494 485 490 471 c 2
 405 153 l 2
 382 68 296 0 210 0 c 0
 131 0 84 57 84 125 c 0
129 124 m 0
 129 78 160 45 210 45 c 0
 273 45 345 100 362 165 c 2
 447 483 l 2
 450 493 451 504 451 513 c 0
 451 559 419 591 369 591 c 0
 306 591 235 536 218 471 c 2
 133 153 l 2
 130 143 129 133 129 124 c 0
348 704 m 0
 348 709 349 714 352 718 c 2
 387 764 l 2
 392 770 398 772 405 772 c 0
 418 772 428 762 428 750 c 0
 428 745 426 740 423 736 c 2
 388 690 l 2
 383 684 377 681 370 681 c 0
 357 681 348 692 348 704 c 0
EndSplineSet
Ligature2: "'ccmp' Glyph Composition/Decomposition in Latin lookup 52 subtable" O acutecomb
Ligature2: "'ccmp' Glyph Composition/Decomposition in Latin lookup 50 subtable" O acutecomb
Ligature2: "'ccmp' Glyph Composition/Decomposition in Latin lookup 48 subtable" O acutecomb
EndChar

StartChar: Ocircumflex
Encoding: 212 212 135
Width: 409
GlyphClass: 3
Flags: W
TeX: 772 0
LayerCount: 2
Fore
SplineSet
84 125 m 0
 84 138 85 151 89 165 c 2
 174 483 l 2
 197 568 283 636 369 636 c 0
 448 636 496 579 496 511 c 0
 496 498 494 485 490 471 c 2
 405 153 l 2
 382 68 296 0 210 0 c 0
 131 0 84 57 84 125 c 0
129 124 m 0
 129 78 160 45 210 45 c 0
 273 45 345 100 362 165 c 2
 447 483 l 2
 450 493 451 504 451 513 c 0
 451 559 419 591 369 591 c 0
 306 591 235 536 218 471 c 2
 133 153 l 2
 130 143 129 133 129 124 c 0
325 704 m 0
 325 711 329 717 334 722 c 2
 391 767 l 2
 395 770 401 772 406 772 c 0
 413 772 419 769 424 763 c 2
 457 717 l 2
 460 713 461 709 461 704 c 0
 461 692 452 681 439 681 c 0
 432 681 426 685 421 691 c 2
 401 717 l 1
 362 686 l 2
 358 683 353 681 348 681 c 0
 336 681 325 691 325 704 c 0
EndSplineSet
Ligature2: "'ccmp' Glyph Composition/Decomposition in Latin lookup 52 subtable" O uni0302
EndChar

StartChar: Odieresis
Encoding: 214 214 136
Width: 409
GlyphClass: 3
Flags: W
TeX: 773 0
LayerCount: 2
Fore
SplineSet
84 125 m 0
 84 138 85 151 89 165 c 2
 174 483 l 2
 197 568 283 636 369 636 c 0
 448 636 496 579 496 511 c 0
 496 498 494 485 490 471 c 2
 405 153 l 2
 382 68 296 0 210 0 c 0
 131 0 84 57 84 125 c 0
129 124 m 0
 129 78 160 45 210 45 c 0
 273 45 345 100 362 165 c 2
 447 483 l 2
 450 493 451 504 451 513 c 0
 451 559 419 591 369 591 c 0
 306 591 235 536 218 471 c 2
 133 153 l 2
 130 143 129 133 129 124 c 0
451 750 m 0
 451 762 462 773 474 773 c 0
 486 773 496 762 496 750 c 0
 496 737 487 727 474 727 c 0
 461 727 451 737 451 750 c 0
315 750 m 0
 315 762 326 773 338 773 c 0
 350 773 360 762 360 750 c 0
 360 737 351 727 338 727 c 0
 325 727 315 737 315 750 c 0
EndSplineSet
Ligature2: "'ccmp' Glyph Composition/Decomposition in Latin lookup 49 subtable" O uni0308
Ligature2: "'ccmp' Glyph Composition/Decomposition in Latin lookup 48 subtable" O uni0308
EndChar

StartChar: multiply
Encoding: 215 215 137
Width: 363
GlyphClass: 2
Flags: W
TeX: 364 -91
LayerCount: 2
Fore
SplineSet
76 114 m 0
 76 121 80 126 85 131 c 2
 211 231 l 1
 141 327 l 2
 138 331 137 336 137 341 c 0
 137 353 147 364 160 364 c 0
 167 364 173 361 178 355 c 2
 247 260 l 1
 373 359 l 2
 377 362 382 364 387 364 c 0
 399 364 410 354 410 341 c 0
 410 334 406 328 401 323 c 2
 274 223 l 1
 344 127 l 2
 347 123 349 119 349 114 c 0
 349 102 339 91 326 91 c 0
 319 91 313 94 308 100 c 2
 238 195 l 1
 113 96 l 2
 109 93 104 91 99 91 c 0
 87 91 76 101 76 114 c 0
EndSplineSet
EndChar

StartChar: Oslash
Encoding: 216 216 138
Width: 409
GlyphClass: 2
Flags: W
TeX: 636 0
LayerCount: 2
Fore
SplineSet
51 23 m 0
 51 28 53 32 56 36 c 2
 90 83 l 1
 86 96 84 110 84 125 c 0
 84 138 85 151 89 165 c 2
 174 483 l 2
 197 568 283 636 369 636 c 0
 412 636 444 620 465 596 c 1
 487 627 l 2
 492 633 498 636 505 636 c 0
 518 636 528 626 528 614 c 0
 528 609 527 604 524 600 c 2
 490 553 l 1
 494 540 496 526 496 511 c 0
 496 498 494 485 490 471 c 2
 405 153 l 2
 382 68 296 0 210 0 c 0
 167 0 136 16 115 40 c 1
 92 10 l 2
 87 4 81 0 74 0 c 0
 61 0 51 11 51 23 c 0
130 137 m 1
 437 559 l 1
 423 579 401 591 369 591 c 0
 306 591 235 536 218 471 c 2
 133 153 l 2
 132 148 130 142 130 137 c 1
142 78 m 1
 156 58 178 45 210 45 c 0
 273 45 345 100 362 165 c 2
 447 483 l 2
 448 488 450 494 450 499 c 1
 142 78 l 1
EndSplineSet
EndChar

StartChar: Uacute
Encoding: 218 218 139
Width: 409
GlyphClass: 3
Flags: W
TeX: 772 0
LayerCount: 2
Fore
SplineSet
84 125 m 0
 84 138 85 151 89 165 c 2
 211 620 l 2
 214 630 223 636 233 636 c 0
 247 636 255 625 255 614 c 2
 255 608 l 1
 133 153 l 2
 130 143 129 133 129 124 c 0
 129 79 160 45 210 45 c 0
 273 45 345 100 362 165 c 2
 484 620 l 2
 487 630 495 636 505 636 c 0
 519 636 528 625 528 614 c 0
 528 612 527 610 527 608 c 2
 405 153 l 2
 382 68 296 0 210 0 c 0
 135 0 84 54 84 125 c 0
348 704 m 0
 348 709 349 714 352 718 c 2
 387 764 l 2
 392 770 398 772 405 772 c 0
 418 772 428 762 428 750 c 0
 428 745 426 740 423 736 c 2
 388 690 l 2
 383 684 377 681 370 681 c 0
 357 681 348 692 348 704 c 0
EndSplineSet
Ligature2: "'ccmp' Glyph Composition/Decomposition in Latin lookup 52 subtable" U acutecomb
Ligature2: "'ccmp' Glyph Composition/Decomposition in Latin lookup 48 subtable" U acutecomb
EndChar

StartChar: Udieresis
Encoding: 220 220 140
Width: 409
GlyphClass: 3
Flags: W
TeX: 773 0
LayerCount: 2
Fore
SplineSet
84 125 m 0
 84 138 85 151 89 165 c 2
 211 620 l 2
 214 630 223 636 233 636 c 0
 247 636 255 625 255 614 c 2
 255 608 l 1
 133 153 l 2
 130 143 129 133 129 124 c 0
 129 79 160 45 210 45 c 0
 273 45 345 100 362 165 c 2
 484 620 l 2
 487 630 495 636 505 636 c 0
 519 636 528 625 528 614 c 0
 528 612 527 610 527 608 c 2
 405 153 l 2
 382 68 296 0 210 0 c 0
 135 0 84 54 84 125 c 0
451 750 m 0
 451 762 462 773 474 773 c 0
 486 773 496 762 496 750 c 0
 496 737 487 727 474 727 c 0
 461 727 451 737 451 750 c 0
315 750 m 0
 315 762 326 773 338 773 c 0
 350 773 360 762 360 750 c 0
 360 737 351 727 338 727 c 0
 325 727 315 737 315 750 c 0
EndSplineSet
Ligature2: "'ccmp' Glyph Composition/Decomposition in Latin lookup 49 subtable" U uni0308
Ligature2: "'ccmp' Glyph Composition/Decomposition in Latin lookup 48 subtable" U uni0308
EndChar

StartChar: Yacute
Encoding: 221 221 141
Width: 454
GlyphClass: 3
Flags: W
TeX: 772 0
LayerCount: 2
Fore
SplineSet
210 614 m 0
 210 625 219 636 233 636 c 0
 243 636 252 630 255 620 c 2
 323 367 l 1
 533 628 l 2
 538 633 544 636 551 636 c 0
 564 636 574 626 574 614 c 0
 574 609 572 604 569 600 c 2
 334 308 l 1
 255 17 l 2
 252 7 243 0 233 0 c 0
 219 0 210 12 210 23 c 0
 210 25 211 27 211 29 c 2
 289 318 l 1
 211 608 l 2
 211 610 210 612 210 614 c 0
371 704 m 0
 371 709 372 714 375 718 c 2
 410 764 l 2
 415 770 421 772 428 772 c 0
 441 772 451 762 451 750 c 0
 451 745 449 740 446 736 c 2
 411 690 l 2
 406 684 400 681 393 681 c 0
 380 681 371 692 371 704 c 0
EndSplineSet
Ligature2: "'ccmp' Glyph Composition/Decomposition in Latin lookup 52 subtable" Y acutecomb
EndChar

StartChar: germandbls
Encoding: 223 223 142
Width: 409
GlyphClass: 3
Flags: W
TeX: 636 0
LayerCount: 2
Fore
SplineSet
51 23 m 0
 51 25 52 27 52 29 c 2
 193 551 l 2
 206 599 252 636 301 636 c 2
 369 636 l 2
 444 636 496 584 496 513 c 0
 496 500 494 485 490 471 c 0
 477 423 448 380 405 353 c 1
 427 339 439 316 439 290 c 0
 439 283 438 275 436 267 c 2
 387 85 l 2
 374 38 328 0 279 0 c 2
 256 0 l 2
 244 0 233 11 233 23 c 0
 233 35 244 45 256 45 c 2
 279 45 l 2
 305 45 337 70 344 97 c 2
 392 279 l 2
 393 283 394 286 394 290 c 0
 394 306 384 318 364 318 c 2
 341 318 l 1
 341 318 318 331 318 345 c 0
 318 350 322 355 330 360 c 2
 378 390 l 2
 412 410 437 444 447 483 c 0
 450 493 451 504 451 514 c 0
 451 559 421 591 369 591 c 2
 301 591 l 2
 275 591 244 568 236 540 c 2
 96 17 l 2
 93 7 84 0 74 0 c 0
 60 0 51 12 51 23 c 0
EndSplineSet
Ligature2: "'rlig' Required Ligatures in Latin lookup 40 subtable" s s
EndChar

StartChar: aacute
Encoding: 225 225 143
Width: 409
GlyphClass: 3
Flags: W
TeX: 636 0
LayerCount: 2
Fore
SplineSet
78 108 m 0
 78 119 80 130 83 142 c 2
 138 347 l 2
 154 407 213 455 275 455 c 2
 411 455 l 1
 412 455 l 2
 416 455 435 454 435 436 c 0
 435 433 434 430 433 426 c 0
 400 305 367 183 335 62 c 0
 334 59 335 57 335 55 c 0
 335 47 340 45 347 45 c 0
 359 45 370 35 370 23 c 0
 370 11 359 0 347 0 c 0
 318 0 299 18 292 39 c 1
 262 15 225 0 187 0 c 0
 119 0 78 49 78 108 c 0
123 106 m 0
 123 69 148 45 188 45 c 0
 239 45 296 91 310 142 c 2
 382 409 l 1
 275 409 l 2
 236 409 192 375 181 335 c 2
 126 130 l 2
 124 121 123 114 123 106 c 0
312 568 m 0
 312 573 313 578 316 582 c 2
 351 628 l 2
 356 634 362 636 369 636 c 0
 382 636 392 626 392 614 c 0
 392 609 390 604 387 600 c 2
 352 554 l 2
 347 548 341 545 334 545 c 0
 321 545 312 556 312 568 c 0
EndSplineSet
Ligature2: "'ccmp' Glyph Composition/Decomposition in Latin lookup 52 subtable" a acutecomb
Ligature2: "'ccmp' Glyph Composition/Decomposition in Latin lookup 48 subtable" a acutecomb
EndChar

StartChar: acircumflex
Encoding: 226 226 144
Width: 409
GlyphClass: 3
Flags: W
TeX: 636 0
LayerCount: 2
Fore
SplineSet
78 108 m 0
 78 119 80 130 83 142 c 2
 138 347 l 2
 154 407 213 455 275 455 c 2
 411 455 l 1
 412 455 l 2
 416 455 435 454 435 436 c 0
 435 433 434 430 433 426 c 0
 400 305 367 183 335 62 c 0
 334 59 335 57 335 55 c 0
 335 47 340 45 347 45 c 0
 359 45 370 35 370 23 c 0
 370 11 359 0 347 0 c 0
 318 0 299 18 292 39 c 1
 262 15 225 0 187 0 c 0
 119 0 78 49 78 108 c 0
123 106 m 0
 123 69 148 45 188 45 c 0
 239 45 296 91 310 142 c 2
 382 409 l 1
 275 409 l 2
 236 409 192 375 181 335 c 2
 126 130 l 2
 124 121 123 114 123 106 c 0
289 568 m 0
 289 575 293 581 298 586 c 2
 355 631 l 2
 359 634 365 636 370 636 c 0
 377 636 383 633 388 627 c 2
 421 581 l 2
 424 577 425 573 425 568 c 0
 425 556 416 545 403 545 c 0
 396 545 390 549 385 555 c 2
 365 581 l 1
 326 550 l 2
 322 547 317 545 312 545 c 0
 300 545 289 555 289 568 c 0
EndSplineSet
Ligature2: "'ccmp' Glyph Composition/Decomposition in Latin lookup 51 subtable" a uni0302
EndChar

StartChar: adieresis
Encoding: 228 228 145
Width: 409
GlyphClass: 3
Flags: W
TeX: 637 0
LayerCount: 2
Fore
SplineSet
78 108 m 0
 78 119 80 130 83 142 c 2
 138 347 l 2
 154 407 213 455 275 455 c 2
 411 455 l 1
 412 455 l 2
 416 455 435 454 435 436 c 0
 435 433 434 430 433 426 c 0
 400 305 367 183 335 62 c 0
 334 59 335 57 335 55 c 0
 335 47 340 45 347 45 c 0
 359 45 370 35 370 23 c 0
 370 11 359 0 347 0 c 0
 318 0 299 18 292 39 c 1
 262 15 225 0 187 0 c 0
 119 0 78 49 78 108 c 0
123 106 m 0
 123 69 148 45 188 45 c 0
 239 45 296 91 310 142 c 2
 382 409 l 1
 275 409 l 2
 236 409 192 375 181 335 c 2
 126 130 l 2
 124 121 123 114 123 106 c 0
414 614 m 0
 414 626 425 637 437 637 c 0
 449 637 459 626 459 614 c 0
 459 601 450 591 437 591 c 0
 424 591 414 601 414 614 c 0
278 614 m 0
 278 626 289 637 301 637 c 0
 313 637 323 626 323 614 c 0
 323 601 314 591 301 591 c 0
 288 591 278 601 278 614 c 0
EndSplineSet
Ligature2: "'ccmp' Glyph Composition/Decomposition in Latin lookup 49 subtable" a uni0308
EndChar

StartChar: ae
Encoding: 230 230 146
Width: 590
GlyphClass: 2
Flags: W
TeX: 455 0
LayerCount: 2
Fore
SplineSet
68 74 m 0
 68 81 69 89 71 97 c 2
 89 165 l 2
 102 212 149 250 197 250 c 2
 339 250 l 1
 371 370 l 2
 372 375 373 378 373 382 c 0
 373 399 361 409 343 409 c 2
 207 409 l 2
 195 409 184 420 184 432 c 0
 184 444 195 455 207 455 c 2
 343 455 l 2
 372 455 393 442 405 424 c 1
 425 443 453 455 480 455 c 2
 570 455 l 2
 613 455 645 423 645 381 c 0
 645 374 644 366 642 358 c 2
 605 221 l 2
 603 212 595 205 584 205 c 2
 374 205 l 1
 342 85 l 2
 341 81 340 77 340 73 c 0
 340 57 351 45 370 45 c 2
 529 45 l 2
 541 45 551 35 551 23 c 0
 551 11 541 0 529 0 c 2
 370 0 l 2
 345 0 322 11 308 31 c 1
 287 12 261 0 233 0 c 2
 142 0 l 2
 95 0 68 34 68 74 c 0
113 73 m 0
 113 56 124 45 142 45 c 2
 233 45 l 2
 258 45 290 69 298 97 c 2
 327 205 l 1
 197 205 l 2
 172 205 140 180 133 153 c 2
 115 85 l 2
 114 80 113 77 113 73 c 0
386 250 m 1
 566 250 l 1
 598 370 l 2
 599 374 600 377 600 381 c 0
 600 397 589 409 570 409 c 2
 480 409 l 2
 452 409 422 384 415 356 c 2
 386 250 l 1
EndSplineSet
EndChar

StartChar: eacute
Encoding: 233 233 147
Width: 363
GlyphClass: 3
Flags: W
TeX: 636 0
LayerCount: 2
Fore
SplineSet
73 90 m 0
 73 100 74 110 77 120 c 2
 107 231 l 2
 107 232 108 234 108 235 c 2
 132 324 l 2
 152 396 224 455 298 455 c 0
 366 455 408 406 408 347 c 0
 408 336 406 323 403 312 c 2
 378 221 l 2
 375 211 365 205 356 205 c 2
 147 205 l 1
 120 108 l 2
 118 101 118 95 118 89 c 0
 118 62 137 45 165 45 c 2
 301 45 l 2
 313 45 324 35 324 23 c 0
 324 11 313 0 301 0 c 2
 165 0 l 2
 107 0 73 41 73 90 c 0
159 250 m 1
 339 250 l 1
 359 324 l 2
 361 333 362 340 362 348 c 0
 362 384 337 409 298 409 c 0
 247 409 189 364 175 312 c 2
 159 250 l 1
289 568 m 0
 289 573 290 578 293 582 c 2
 328 628 l 2
 333 634 339 636 346 636 c 0
 359 636 369 626 369 614 c 0
 369 609 367 604 364 600 c 2
 329 554 l 2
 324 548 318 545 311 545 c 0
 298 545 289 556 289 568 c 0
EndSplineSet
Ligature2: "'ccmp' Glyph Composition/Decomposition in Latin lookup 52 subtable" e acutecomb
Ligature2: "'ccmp' Glyph Composition/Decomposition in Latin lookup 48 subtable" e acutecomb
EndChar

StartChar: iacute
Encoding: 237 237 148
Width: 136
GlyphClass: 3
Flags: W
TeX: 636 0
LayerCount: 2
Fore
SplineSet
51 23 m 0
 51 25 52 27 52 29 c 2
 162 438 l 2
 165 448 174 455 184 455 c 0
 198 455 207 443 207 432 c 0
 207 430 206 428 206 426 c 2
 96 17 l 2
 93 7 84 0 74 0 c 0
 60 0 51 12 51 23 c 0
175 568 m 0
 175 573 176 578 179 582 c 2
 214 628 l 2
 219 634 225 636 232 636 c 0
 245 636 255 626 255 614 c 0
 255 609 253 604 250 600 c 2
 215 554 l 2
 210 548 204 545 197 545 c 0
 184 545 175 556 175 568 c 0
EndSplineSet
Ligature2: "'ccmp' Glyph Composition/Decomposition in Latin lookup 52 subtable" i acutecomb
Ligature2: "'ccmp' Glyph Composition/Decomposition in Latin lookup 48 subtable" i acutecomb
EndChar

StartChar: icircumflex
Encoding: 238 238 149
Width: 136
GlyphClass: 3
Flags: W
TeX: 636 0
LayerCount: 2
Fore
SplineSet
51 23 m 0
 51 25 52 27 52 29 c 2
 162 438 l 2
 165 448 174 455 184 455 c 0
 198 455 207 443 207 432 c 0
 207 430 206 428 206 426 c 2
 96 17 l 2
 93 7 84 0 74 0 c 0
 60 0 51 12 51 23 c 0
153 568 m 0
 153 575 157 581 162 586 c 2
 219 631 l 2
 223 634 229 636 234 636 c 0
 241 636 247 633 252 627 c 2
 285 581 l 2
 288 577 289 573 289 568 c 0
 289 556 280 545 267 545 c 0
 260 545 254 549 249 555 c 2
 229 581 l 1
 190 550 l 2
 186 547 181 545 176 545 c 0
 164 545 153 555 153 568 c 0
EndSplineSet
Ligature2: "'ccmp' Glyph Composition/Decomposition in Latin lookup 51 subtable" i uni0302
EndChar

StartChar: oacute
Encoding: 243 243 150
Width: 363
GlyphClass: 3
Flags: W
TeX: 636 0
LayerCount: 2
Fore
SplineSet
78 109 m 0
 78 120 80 131 83 142 c 2
 132 324 l 2
 151 396 225 455 298 455 c 0
 366 455 407 405 407 346 c 0
 407 335 406 323 403 312 c 2
 354 130 l 2
 335 58 261 0 188 0 c 0
 120 0 78 51 78 109 c 0
123 108 m 0
 123 72 149 45 188 45 c 0
 238 45 296 90 310 142 c 2
 359 324 l 2
 361 332 362 340 362 347 c 0
 362 383 337 409 298 409 c 0
 248 409 189 364 175 312 c 2
 126 130 l 2
 124 122 123 115 123 108 c 0
289 568 m 0
 289 573 290 578 293 582 c 2
 328 628 l 2
 333 634 339 636 346 636 c 0
 359 636 369 626 369 614 c 0
 369 609 367 604 364 600 c 2
 329 554 l 2
 324 548 318 545 311 545 c 0
 298 545 289 556 289 568 c 0
EndSplineSet
Ligature2: "'ccmp' Glyph Composition/Decomposition in Latin lookup 52 subtable" o acutecomb
Ligature2: "'ccmp' Glyph Composition/Decomposition in Latin lookup 50 subtable" o acutecomb
Ligature2: "'ccmp' Glyph Composition/Decomposition in Latin lookup 48 subtable" o acutecomb
EndChar

StartChar: ocircumflex
Encoding: 244 244 151
Width: 363
GlyphClass: 3
Flags: W
TeX: 636 0
LayerCount: 2
Fore
SplineSet
78 109 m 0
 78 120 80 131 83 142 c 2
 132 324 l 2
 151 396 225 455 298 455 c 0
 366 455 407 405 407 346 c 0
 407 335 406 323 403 312 c 2
 354 130 l 2
 335 58 261 0 188 0 c 0
 120 0 78 51 78 109 c 0
123 108 m 0
 123 72 149 45 188 45 c 0
 238 45 296 90 310 142 c 2
 359 324 l 2
 361 332 362 340 362 347 c 0
 362 383 337 409 298 409 c 0
 248 409 189 364 175 312 c 2
 126 130 l 2
 124 122 123 115 123 108 c 0
266 568 m 0
 266 575 270 581 275 586 c 2
 332 631 l 2
 336 634 342 636 347 636 c 0
 354 636 360 633 365 627 c 2
 398 581 l 2
 401 577 402 573 402 568 c 0
 402 556 393 545 380 545 c 0
 373 545 367 549 362 555 c 2
 342 581 l 1
 303 550 l 2
 299 547 294 545 289 545 c 0
 277 545 266 555 266 568 c 0
EndSplineSet
Ligature2: "'ccmp' Glyph Composition/Decomposition in Latin lookup 52 subtable" o uni0302
EndChar

StartChar: odieresis
Encoding: 246 246 152
Width: 363
GlyphClass: 3
Flags: W
TeX: 637 0
LayerCount: 2
Fore
SplineSet
78 109 m 0
 78 120 80 131 83 142 c 2
 132 324 l 2
 151 396 225 455 298 455 c 0
 366 455 407 405 407 346 c 0
 407 335 406 323 403 312 c 2
 354 130 l 2
 335 58 261 0 188 0 c 0
 120 0 78 51 78 109 c 0
123 108 m 0
 123 72 149 45 188 45 c 0
 238 45 296 90 310 142 c 2
 359 324 l 2
 361 332 362 340 362 347 c 0
 362 383 337 409 298 409 c 0
 248 409 189 364 175 312 c 2
 126 130 l 2
 124 122 123 115 123 108 c 0
391 614 m 0
 391 626 402 637 414 637 c 0
 426 637 436 626 436 614 c 0
 436 601 427 591 414 591 c 0
 401 591 391 601 391 614 c 0
255 614 m 0
 255 626 266 637 278 637 c 0
 290 637 300 626 300 614 c 0
 300 601 291 591 278 591 c 0
 265 591 255 601 255 614 c 0
EndSplineSet
Ligature2: "'ccmp' Glyph Composition/Decomposition in Latin lookup 49 subtable" o uni0308
Ligature2: "'ccmp' Glyph Composition/Decomposition in Latin lookup 48 subtable" o uni0308
EndChar

StartChar: divide
Encoding: 247 247 153
Width: 318
GlyphClass: 2
Flags: W
TeX: 363 -91
LayerCount: 2
Fore
SplineSet
84 227 m 0
 84 239 94 250 106 250 c 2
 334 250 l 2
 346 250 356 239 356 227 c 0
 356 215 346 205 334 205 c 2
 106 205 l 2
 94 205 84 215 84 227 c 0
227 341 m 0
 227 354 237 363 250 363 c 0
 263 363 273 354 273 341 c 0
 273 328 263 318 250 318 c 0
 237 318 227 328 227 341 c 0
166 114 m 0
 166 127 176 136 189 136 c 0
 202 136 212 127 212 114 c 0
 212 101 202 91 189 91 c 0
 176 91 166 101 166 114 c 0
EndSplineSet
EndChar

StartChar: oslash
Encoding: 248 248 154
Width: 363
GlyphClass: 2
Flags: W
TeX: 455 0
LayerCount: 2
Fore
SplineSet
29 23 m 0
 29 28 31 33 35 38 c 2
 80 87 l 1
 79 94 78 101 78 109 c 0
 78 120 80 131 83 142 c 2
 132 324 l 2
 151 396 225 455 298 455 c 0
 339 455 367 437 385 413 c 1
 417 447 l 2
 422 452 428 455 434 455 c 0
 446 455 457 444 457 432 c 0
 457 427 455 421 451 416 c 2
 405 368 l 1
 406 361 407 353 407 346 c 0
 407 335 406 323 403 312 c 2
 354 130 l 2
 335 58 261 0 188 0 c 0
 147 0 118 17 100 41 c 1
 68 7 l 2
 63 2 57 0 51 0 c 0
 39 0 29 11 29 23 c 0
129 139 m 1
 354 380 l 1
 344 398 325 409 298 409 c 0
 248 409 189 364 175 312 c 2
 129 139 l 1
132 75 m 1
 142 57 161 45 188 45 c 0
 238 45 296 90 310 142 c 2
 357 316 l 1
 132 75 l 1
EndSplineSet
EndChar

StartChar: uacute
Encoding: 250 250 155
Width: 363
GlyphClass: 3
Flags: W
TeX: 636 0
LayerCount: 2
Fore
SplineSet
73 90 m 0
 73 100 74 110 77 120 c 2
 162 438 l 2
 165 448 174 455 184 455 c 0
 198 455 207 443 207 432 c 0
 207 430 206 428 206 426 c 2
 120 108 l 2
 118 101 118 94 118 88 c 0
 118 61 136 45 165 45 c 2
 284 45 l 1
 390 438 l 2
 393 448 401 455 411 455 c 0
 425 455 434 443 434 432 c 0
 434 430 433 428 433 426 c 2
 323 17 l 2
 320 7 310 0 301 0 c 2
 165 0 l 2
 107 0 73 41 73 90 c 0
289 568 m 0
 289 573 290 578 293 582 c 2
 328 628 l 2
 333 634 339 636 346 636 c 0
 359 636 369 626 369 614 c 0
 369 609 367 604 364 600 c 2
 329 554 l 2
 324 548 318 545 311 545 c 0
 298 545 289 556 289 568 c 0
EndSplineSet
Ligature2: "'ccmp' Glyph Composition/Decomposition in Latin lookup 52 subtable" u acutecomb
Ligature2: "'ccmp' Glyph Composition/Decomposition in Latin lookup 48 subtable" u acutecomb
EndChar

StartChar: udieresis
Encoding: 252 252 156
Width: 363
GlyphClass: 3
Flags: W
TeX: 637 0
LayerCount: 2
Fore
SplineSet
73 90 m 0
 73 100 74 110 77 120 c 2
 162 438 l 2
 165 448 174 455 184 455 c 0
 198 455 207 443 207 432 c 0
 207 430 206 428 206 426 c 2
 120 108 l 2
 118 101 118 94 118 88 c 0
 118 61 136 45 165 45 c 2
 284 45 l 1
 390 438 l 2
 393 448 401 455 411 455 c 0
 425 455 434 443 434 432 c 0
 434 430 433 428 433 426 c 2
 323 17 l 2
 320 7 310 0 301 0 c 2
 165 0 l 2
 107 0 73 41 73 90 c 0
391 614 m 0
 391 626 402 637 414 637 c 0
 426 637 436 626 436 614 c 0
 436 601 427 591 414 591 c 0
 401 591 391 601 391 614 c 0
255 614 m 0
 255 626 266 637 278 637 c 0
 290 637 300 626 300 614 c 0
 300 601 291 591 278 591 c 0
 265 591 255 601 255 614 c 0
EndSplineSet
Ligature2: "'ccmp' Glyph Composition/Decomposition in Latin lookup 49 subtable" u uni0308
Ligature2: "'ccmp' Glyph Composition/Decomposition in Latin lookup 48 subtable" u uni0308
EndChar

StartChar: yacute
Encoding: 253 253 157
Width: 363
GlyphClass: 3
Flags: W
TeX: 636 182
LayerCount: 2
Fore
SplineSet
3 -159 m 0
 3 -147 13 -136 25 -136 c 0
 65 -136 86 -117 106 -80 c 2
 165 27 l 1
 161 432 l 1
 161 432 l 1
 161 444 172 455 184 455 c 0
 196 455 207 444 207 432 c 2
 210 110 l 1
 391 443 l 2
 395 450 403 455 411 455 c 0
 425 455 434 443 434 432 c 0
 434 428 433 424 431 421 c 2
 146 -102 l 2
 122 -145 86 -182 25 -182 c 0
 13 -182 3 -171 3 -159 c 0
289 568 m 0
 289 573 290 578 293 582 c 2
 328 628 l 2
 333 634 339 636 346 636 c 0
 359 636 369 626 369 614 c 0
 369 609 367 604 364 600 c 2
 329 554 l 2
 324 548 318 545 311 545 c 0
 298 545 289 556 289 568 c 0
EndSplineSet
Ligature2: "'ccmp' Glyph Composition/Decomposition in Latin lookup 52 subtable" y acutecomb
EndChar

StartChar: Abreve
Encoding: 258 258 158
Width: 454
GlyphClass: 3
Flags: W
TeX: 772 0
LayerCount: 2
Fore
SplineSet
51 23 m 0
 51 27 52 31 54 34 c 2
 371 625 l 2
 375 633 383 636 392 636 c 0
 404 636 415 626 415 614 c 2
 415 23 l 2
 415 11 404 0 392 0 c 0
 380 0 370 11 370 23 c 2
 370 182 l 1
 185 182 l 1
 94 12 l 2
 90 4 82 0 74 0 c 0
 60 0 51 12 51 23 c 0
210 227 m 1
 370 227 l 1
 370 525 l 1
 210 227 l 1
359 739 m 0
 359 757 366 772 383 772 c 0
 397 772 406 761 406 750 c 0
 406 746 404 742 404 739 c 0
 404 731 409 727 416 727 c 0
 428 727 448 742 452 756 c 0
 455 766 464 772 474 772 c 0
 488 772 497 761 497 750 c 0
 497 748 496 746 496 744 c 0
 487 709 452 681 416 681 c 0
 381 681 359 709 359 739 c 0
EndSplineSet
Ligature2: "'ccmp' Glyph Composition/Decomposition in Latin lookup 51 subtable" A uni0306
EndChar

StartChar: abreve
Encoding: 259 259 159
Width: 409
GlyphClass: 3
Flags: W
TeX: 636 0
LayerCount: 2
Fore
SplineSet
78 108 m 0
 78 119 80 130 83 142 c 2
 138 347 l 2
 154 407 213 455 275 455 c 2
 411 455 l 1
 412 455 l 2
 416 455 435 454 435 436 c 0
 435 433 434 430 433 426 c 0
 400 305 367 183 335 62 c 0
 334 59 335 57 335 55 c 0
 335 47 340 45 347 45 c 0
 359 45 370 35 370 23 c 0
 370 11 359 0 347 0 c 0
 318 0 299 18 292 39 c 1
 262 15 225 0 187 0 c 0
 119 0 78 49 78 108 c 0
123 106 m 0
 123 69 148 45 188 45 c 0
 239 45 296 91 310 142 c 2
 382 409 l 1
 275 409 l 2
 236 409 192 375 181 335 c 2
 126 130 l 2
 124 121 123 114 123 106 c 0
300 603 m 0
 300 621 307 636 324 636 c 0
 338 636 347 625 347 614 c 0
 347 610 345 606 345 603 c 0
 345 595 350 591 357 591 c 0
 369 591 389 606 393 620 c 0
 396 630 405 636 415 636 c 0
 429 636 438 625 438 614 c 0
 438 612 437 610 437 608 c 0
 428 573 393 545 357 545 c 0
 322 545 300 573 300 603 c 0
EndSplineSet
Ligature2: "'ccmp' Glyph Composition/Decomposition in Latin lookup 51 subtable" a uni0306
EndChar

StartChar: Aogonek
Encoding: 260 260 160
Width: 454
GlyphClass: 3
Flags: W
TeX: 636 91
LayerCount: 2
Fore
SplineSet
51 23 m 0
 51 27 52 31 54 34 c 2
 371 625 l 2
 375 633 383 636 392 636 c 0
 404 636 415 626 415 614 c 2
 415 23 l 2
 415 11 404 0 392 0 c 0
 380 0 370 11 370 23 c 2
 370 182 l 1
 185 182 l 1
 94 12 l 2
 90 4 82 0 74 0 c 0
 60 0 51 12 51 23 c 0
210 227 m 1
 370 227 l 1
 370 525 l 1
 210 227 l 1
392 -68 m 2
 392 -62 l 1
 405 -17 l 2
 408 -7 417 0 427 0 c 0
 441 0 449 -12 449 -23 c 0
 449 -25 448 -27 448 -29 c 2
 436 -74 l 2
 433 -84 424 -91 414 -91 c 0
 400 -91 392 -79 392 -68 c 2
EndSplineSet
Ligature2: "'ccmp' Glyph Composition/Decomposition in Latin lookup 50 subtable" A uni0328
EndChar

StartChar: aogonek
Encoding: 261 261 161
Width: 409
GlyphClass: 3
Flags: W
TeX: 455 91
LayerCount: 2
Fore
SplineSet
78 108 m 0
 78 119 80 130 83 142 c 2
 138 347 l 2
 154 407 213 455 275 455 c 2
 411 455 l 1
 412 455 l 2
 416 455 435 454 435 436 c 0
 435 433 434 430 433 426 c 0
 400 305 367 183 335 62 c 0
 334 59 335 57 335 55 c 0
 335 47 340 45 347 45 c 0
 359 45 370 35 370 23 c 0
 370 11 359 0 347 0 c 0
 318 0 299 18 292 39 c 1
 262 15 225 0 187 0 c 0
 119 0 78 49 78 108 c 0
123 106 m 0
 123 69 148 45 188 45 c 0
 239 45 296 91 310 142 c 2
 382 409 l 1
 275 409 l 2
 236 409 192 375 181 335 c 2
 126 130 l 2
 124 121 123 114 123 106 c 0
346 -68 m 2
 346 -62 l 1
 359 -17 l 2
 362 -7 371 0 381 0 c 0
 395 0 403 -12 403 -23 c 0
 403 -25 402 -27 402 -29 c 2
 390 -74 l 2
 387 -84 378 -91 368 -91 c 0
 354 -91 346 -79 346 -68 c 2
EndSplineSet
Ligature2: "'ccmp' Glyph Composition/Decomposition in Latin lookup 50 subtable" a uni0328
EndChar

StartChar: Cacute
Encoding: 262 262 162
Width: 363
GlyphClass: 3
Flags: W
TeX: 772 0
LayerCount: 2
Fore
SplineSet
84 125 m 0
 84 138 85 151 89 165 c 2
 174 483 l 2
 197 568 283 636 369 636 c 2
 460 636 l 2
 472 636 483 626 483 614 c 0
 483 602 472 591 460 591 c 2
 369 591 l 2
 306 591 235 536 218 471 c 2
 133 154 l 2
 130 144 129 134 129 125 c 0
 129 80 160 45 210 45 c 2
 301 45 l 2
 313 45 324 35 324 23 c 0
 324 11 313 0 301 0 c 2
 210 0 l 2
 135 0 84 54 84 125 c 0
348 704 m 0
 348 709 349 714 352 718 c 2
 387 764 l 2
 392 770 398 772 405 772 c 0
 418 772 428 762 428 750 c 0
 428 745 426 740 423 736 c 2
 388 690 l 2
 383 684 377 681 370 681 c 0
 357 681 348 692 348 704 c 0
EndSplineSet
Ligature2: "'ccmp' Glyph Composition/Decomposition in Latin lookup 50 subtable" C acutecomb
EndChar

StartChar: cacute
Encoding: 263 263 163
Width: 318
GlyphClass: 3
Flags: W
TeX: 636 0
LayerCount: 2
Fore
SplineSet
72 89 m 0
 72 99 74 110 77 120 c 2
 138 347 l 2
 154 407 213 455 275 455 c 2
 366 455 l 2
 378 455 389 444 389 432 c 0
 389 420 378 409 366 409 c 2
 275 409 l 2
 235 409 192 375 181 335 c 2
 120 108 l 2
 118 101 118 95 118 89 c 0
 118 64 134 45 165 45 c 2
 256 45 l 2
 268 45 279 35 279 23 c 0
 279 11 268 0 256 0 c 2
 165 0 l 2
 112 0 72 37 72 89 c 0
289 568 m 0
 289 573 290 578 293 582 c 2
 328 628 l 2
 333 634 339 636 346 636 c 0
 359 636 369 626 369 614 c 0
 369 609 367 604 364 600 c 2
 329 554 l 2
 324 548 318 545 311 545 c 0
 298 545 289 556 289 568 c 0
EndSplineSet
Ligature2: "'ccmp' Glyph Composition/Decomposition in Latin lookup 50 subtable" c acutecomb
EndChar

StartChar: Ccaron
Encoding: 268 268 164
Width: 363
GlyphClass: 3
Flags: W
TeX: 772 0
LayerCount: 2
Fore
SplineSet
84 125 m 0
 84 138 85 151 89 165 c 2
 174 483 l 2
 197 568 283 636 369 636 c 2
 460 636 l 2
 472 636 483 626 483 614 c 0
 483 602 472 591 460 591 c 2
 369 591 l 2
 306 591 235 536 218 471 c 2
 133 154 l 2
 130 144 129 134 129 125 c 0
 129 80 160 45 210 45 c 2
 301 45 l 2
 313 45 324 35 324 23 c 0
 324 11 313 0 301 0 c 2
 210 0 l 2
 135 0 84 54 84 125 c 0
337 750 m 0
 337 762 347 772 360 772 c 0
 367 772 373 769 378 763 c 2
 398 736 l 1
 437 767 l 2
 441 770 446 772 451 772 c 0
 463 772 474 763 474 750 c 0
 474 743 470 737 465 732 c 2
 407 686 l 2
 402 682 398 681 393 681 c 0
 386 681 379 685 375 691 c 2
 342 736 l 2
 339 740 337 745 337 750 c 0
EndSplineSet
Ligature2: "'ccmp' Glyph Composition/Decomposition in Latin lookup 52 subtable" C uni030C
EndChar

StartChar: ccaron
Encoding: 269 269 165
Width: 318
GlyphClass: 3
Flags: W
TeX: 636 0
LayerCount: 2
Fore
SplineSet
72 89 m 0
 72 99 74 110 77 120 c 2
 138 347 l 2
 154 407 213 455 275 455 c 2
 366 455 l 2
 378 455 389 444 389 432 c 0
 389 420 378 409 366 409 c 2
 275 409 l 2
 235 409 192 375 181 335 c 2
 120 108 l 2
 118 101 118 95 118 89 c 0
 118 64 134 45 165 45 c 2
 256 45 l 2
 268 45 279 35 279 23 c 0
 279 11 268 0 256 0 c 2
 165 0 l 2
 112 0 72 37 72 89 c 0
278 614 m 0
 278 626 288 636 301 636 c 0
 308 636 314 633 319 627 c 2
 339 600 l 1
 378 631 l 2
 382 634 387 636 392 636 c 0
 404 636 415 627 415 614 c 0
 415 607 411 601 406 596 c 2
 348 550 l 2
 343 546 339 545 334 545 c 0
 327 545 320 549 316 555 c 2
 283 600 l 2
 280 604 278 609 278 614 c 0
EndSplineSet
Ligature2: "'ccmp' Glyph Composition/Decomposition in Latin lookup 52 subtable" c uni030C
EndChar

StartChar: Dcaron
Encoding: 270 270 166
Width: 409
GlyphClass: 3
Flags: W
TeX: 772 0
LayerCount: 2
Fore
SplineSet
51 19 m 0
 51 22 51 25 52 29 c 2
 211 620 l 2
 214 630 224 636 233 636 c 2
 369 636 l 2
 448 636 496 579 496 511 c 0
 496 498 494 485 490 471 c 2
 405 154 l 2
 382 69 296 0 210 0 c 2
 74 0 l 1
 74 0 l 1
 70 0 51 1 51 19 c 0
104 45 m 1
 210 45 l 2
 273 45 345 100 362 165 c 2
 447 483 l 2
 450 493 451 504 451 513 c 0
 451 559 419 591 369 591 c 2
 250 591 l 1
 104 45 l 1
315 750 m 0
 315 762 325 772 338 772 c 0
 345 772 351 769 356 763 c 2
 376 736 l 1
 415 767 l 2
 419 770 424 772 429 772 c 0
 441 772 452 763 452 750 c 0
 452 743 448 737 443 732 c 2
 385 686 l 2
 380 682 376 681 371 681 c 0
 364 681 357 685 353 691 c 2
 320 736 l 2
 317 740 315 745 315 750 c 0
EndSplineSet
Ligature2: "'ccmp' Glyph Composition/Decomposition in Latin lookup 52 subtable" D uni030C
EndChar

StartChar: dcaron
Encoding: 271 271 167
Width: 454
GlyphClass: 3
Flags: W
TeX: 636 0
LayerCount: 2
Fore
SplineSet
72 87 m 0
 72 97 74 109 77 120 c 2
 138 347 l 2
 154 407 213 455 275 455 c 2
 394 455 l 1
 438 620 l 2
 441 630 450 636 460 636 c 0
 474 636 483 625 483 614 c 0
 483 612 482 610 482 608 c 2
 434 429 l 2
 434 427 432 425 432 423 c 2
 323 17 l 2
 321 8 312 0 301 0 c 2
 165 0 l 2
 111 0 72 36 72 87 c 0
118 87 m 0
 118 61 132 45 165 45 c 2
 284 45 l 1
 381 409 l 1
 275 409 l 2
 235 409 192 375 181 335 c 2
 120 108 l 2
 118 100 118 93 118 87 c 0
516 568 m 2
 516 574 l 1
 529 620 l 2
 532 630 541 636 551 636 c 0
 565 636 573 625 573 614 c 0
 573 612 572 610 572 608 c 2
 560 562 l 2
 557 552 548 545 538 545 c 0
 524 545 516 557 516 568 c 2
EndSplineSet
Ligature2: "'ccmp' Glyph Composition/Decomposition in Latin lookup 52 subtable" d uni0315
Ligature2: "'ccmp' Glyph Composition/Decomposition in Latin lookup 52 subtable" d uni030C
EndChar

StartChar: Eogonek
Encoding: 280 280 168
Width: 363
GlyphClass: 3
Flags: W
TeX: 636 91
LayerCount: 2
Fore
SplineSet
51 19 m 0
 51 24 52 28 52 29 c 2
 211 620 l 2
 213 629 222 636 233 636 c 2
 460 636 l 2
 472 636 483 626 483 614 c 0
 483 602 472 591 460 591 c 2
 250 591 l 1
 189 364 l 1
 296 364 l 2
 308 364 319 353 319 341 c 0
 319 329 308 318 296 318 c 2
 177 318 l 1
 104 45 l 1
 301 45 l 2
 313 45 324 35 324 23 c 0
 324 11 313 0 301 0 c 2
 74 0 l 2
 54 0 51 11 51 19 c 0
301 -68 m 2
 301 -62 l 1
 314 -17 l 2
 317 -7 326 0 336 0 c 0
 350 0 358 -12 358 -23 c 0
 358 -25 357 -27 357 -29 c 2
 345 -74 l 2
 342 -84 333 -91 323 -91 c 0
 309 -91 301 -79 301 -68 c 2
EndSplineSet
Ligature2: "'ccmp' Glyph Composition/Decomposition in Latin lookup 50 subtable" E uni0328
EndChar

StartChar: eogonek
Encoding: 281 281 169
Width: 363
GlyphClass: 3
Flags: W
TeX: 455 91
LayerCount: 2
Fore
SplineSet
73 90 m 0
 73 100 74 110 77 120 c 2
 107 231 l 2
 107 232 108 234 108 235 c 2
 132 324 l 2
 152 396 224 455 298 455 c 0
 366 455 408 406 408 347 c 0
 408 336 406 323 403 312 c 2
 378 221 l 2
 375 211 365 205 356 205 c 2
 147 205 l 1
 120 108 l 2
 118 101 118 95 118 89 c 0
 118 62 137 45 165 45 c 2
 301 45 l 2
 313 45 324 35 324 23 c 0
 324 11 313 0 301 0 c 2
 165 0 l 2
 107 0 73 41 73 90 c 0
159 250 m 1
 339 250 l 1
 359 324 l 2
 361 333 362 340 362 348 c 0
 362 384 337 409 298 409 c 0
 247 409 189 364 175 312 c 2
 159 250 l 1
301 -68 m 2
 301 -62 l 1
 314 -17 l 2
 317 -7 326 0 336 0 c 0
 350 0 358 -12 358 -23 c 0
 358 -25 357 -27 357 -29 c 2
 345 -74 l 2
 342 -84 333 -91 323 -91 c 0
 309 -91 301 -79 301 -68 c 2
EndSplineSet
Ligature2: "'ccmp' Glyph Composition/Decomposition in Latin lookup 50 subtable" e uni0328
EndChar

StartChar: Ecaron
Encoding: 282 282 170
Width: 363
GlyphClass: 3
Flags: W
TeX: 772 0
LayerCount: 2
Fore
SplineSet
51 19 m 0
 51 24 52 28 52 29 c 2
 211 620 l 2
 213 629 222 636 233 636 c 2
 460 636 l 2
 472 636 483 626 483 614 c 0
 483 602 472 591 460 591 c 2
 250 591 l 1
 189 364 l 1
 296 364 l 2
 308 364 319 353 319 341 c 0
 319 329 308 318 296 318 c 2
 177 318 l 1
 104 45 l 1
 301 45 l 2
 313 45 324 35 324 23 c 0
 324 11 313 0 301 0 c 2
 74 0 l 2
 54 0 51 11 51 19 c 0
315 750 m 0
 315 762 325 772 338 772 c 0
 345 772 351 769 356 763 c 2
 376 736 l 1
 415 767 l 2
 419 770 424 772 429 772 c 0
 441 772 452 763 452 750 c 0
 452 743 448 737 443 732 c 2
 385 686 l 2
 380 682 376 681 371 681 c 0
 364 681 357 685 353 691 c 2
 320 736 l 2
 317 740 315 745 315 750 c 0
EndSplineSet
Ligature2: "'ccmp' Glyph Composition/Decomposition in Latin lookup 52 subtable" E uni030C
EndChar

StartChar: ecaron
Encoding: 283 283 171
Width: 363
GlyphClass: 3
Flags: W
TeX: 636 0
LayerCount: 2
Fore
SplineSet
73 90 m 0
 73 100 74 110 77 120 c 2
 107 231 l 2
 107 232 108 234 108 235 c 2
 132 324 l 2
 152 396 224 455 298 455 c 0
 366 455 408 406 408 347 c 0
 408 336 406 323 403 312 c 2
 378 221 l 2
 375 211 365 205 356 205 c 2
 147 205 l 1
 120 108 l 2
 118 101 118 95 118 89 c 0
 118 62 137 45 165 45 c 2
 301 45 l 2
 313 45 324 35 324 23 c 0
 324 11 313 0 301 0 c 2
 165 0 l 2
 107 0 73 41 73 90 c 0
159 250 m 1
 339 250 l 1
 359 324 l 2
 361 333 362 340 362 348 c 0
 362 384 337 409 298 409 c 0
 247 409 189 364 175 312 c 2
 159 250 l 1
278 614 m 0
 278 626 288 636 301 636 c 0
 308 636 314 633 319 627 c 2
 339 600 l 1
 378 631 l 2
 382 634 387 636 392 636 c 0
 404 636 415 627 415 614 c 0
 415 607 411 601 406 596 c 2
 348 550 l 2
 343 546 339 545 334 545 c 0
 327 545 320 549 316 555 c 2
 283 600 l 2
 280 604 278 609 278 614 c 0
EndSplineSet
Ligature2: "'ccmp' Glyph Composition/Decomposition in Latin lookup 52 subtable" e uni030C
EndChar

StartChar: dotlessi
Encoding: 305 305 172
Width: 136
GlyphClass: 2
Flags: W
TeX: 455 0
AnchorPoint: "Anchor-1" 233 614 basechar 0
LayerCount: 2
Fore
SplineSet
51 23 m 0
 51 25 52 27 52 29 c 2
 162 438 l 2
 165 448 174 455 184 455 c 0
 198 455 207 443 207 432 c 0
 207 430 206 428 206 426 c 2
 96 17 l 2
 93 7 84 0 74 0 c 0
 60 0 51 12 51 23 c 0
EndSplineSet
EndChar

StartChar: Lacute
Encoding: 313 313 173
Width: 318
GlyphClass: 3
Flags: W
TeX: 772 0
LayerCount: 2
Fore
SplineSet
51 19 m 0
 51 22 51 25 52 29 c 2
 211 620 l 2
 214 630 223 636 233 636 c 0
 247 636 255 625 255 614 c 2
 255 608 l 1
 104 45 l 1
 256 45 l 2
 268 45 279 35 279 23 c 0
 279 11 268 0 256 0 c 2
 74 0 l 1
 74 0 l 1
 70 0 51 1 51 19 c 0
212 704 m 0
 212 709 213 714 216 718 c 2
 251 764 l 2
 256 770 262 772 269 772 c 0
 282 772 292 762 292 750 c 0
 292 745 290 740 287 736 c 2
 252 690 l 2
 247 684 241 681 234 681 c 0
 221 681 212 692 212 704 c 0
EndSplineSet
Ligature2: "'ccmp' Glyph Composition/Decomposition in Latin lookup 52 subtable" L acutecomb
EndChar

StartChar: lacute
Encoding: 314 314 174
Width: 227
GlyphClass: 3
Flags: W
TeX: 772 0
LayerCount: 2
Fore
SplineSet
68 74 m 0
 68 81 69 89 71 97 c 2
 211 620 l 2
 214 630 223 636 233 636 c 0
 247 636 255 625 255 614 c 2
 255 608 l 1
 115 85 l 2
 114 81 113 77 113 73 c 0
 113 57 123 45 142 45 c 2
 165 45 l 2
 177 45 188 35 188 23 c 0
 188 11 177 0 165 0 c 2
 142 0 l 2
 99 0 68 32 68 74 c 0
212 704 m 0
 212 709 213 714 216 718 c 2
 251 764 l 2
 256 770 262 772 269 772 c 0
 282 772 292 762 292 750 c 0
 292 745 290 740 287 736 c 2
 252 690 l 2
 247 684 241 681 234 681 c 0
 221 681 212 692 212 704 c 0
EndSplineSet
Ligature2: "'ccmp' Glyph Composition/Decomposition in Latin lookup 52 subtable" l acutecomb
EndChar

StartChar: Lcaron
Encoding: 317 317 175
Width: 318
GlyphClass: 3
Flags: W
TeX: 636 0
LayerCount: 2
Fore
SplineSet
51 19 m 0
 51 22 51 25 52 29 c 2
 211 620 l 2
 214 630 223 636 233 636 c 0
 247 636 255 625 255 614 c 2
 255 608 l 1
 104 45 l 1
 256 45 l 2
 268 45 279 35 279 23 c 0
 279 11 268 0 256 0 c 2
 74 0 l 1
 74 0 l 1
 70 0 51 1 51 19 c 0
289 568 m 2
 289 574 l 1
 302 620 l 2
 305 630 314 636 324 636 c 0
 338 636 346 625 346 614 c 0
 346 612 345 610 345 608 c 2
 333 562 l 2
 330 552 321 545 311 545 c 0
 297 545 289 557 289 568 c 2
EndSplineSet
Ligature2: "'ccmp' Glyph Composition/Decomposition in Latin lookup 52 subtable" L uni0315
Ligature2: "'ccmp' Glyph Composition/Decomposition in Latin lookup 52 subtable" L uni030C
EndChar

StartChar: lcaron
Encoding: 318 318 176
Width: 227
GlyphClass: 3
Flags: W
TeX: 636 0
LayerCount: 2
Fore
SplineSet
68 74 m 0
 68 81 69 89 71 97 c 2
 211 620 l 2
 214 630 223 636 233 636 c 0
 247 636 255 625 255 614 c 2
 255 608 l 1
 115 85 l 2
 114 81 113 77 113 73 c 0
 113 57 123 45 142 45 c 2
 165 45 l 2
 177 45 188 35 188 23 c 0
 188 11 177 0 165 0 c 2
 142 0 l 2
 99 0 68 32 68 74 c 0
289 568 m 2
 289 574 l 1
 302 620 l 2
 305 630 314 636 324 636 c 0
 338 636 346 625 346 614 c 0
 346 612 345 610 345 608 c 2
 333 562 l 2
 330 552 321 545 311 545 c 0
 297 545 289 557 289 568 c 2
EndSplineSet
Ligature2: "'ccmp' Glyph Composition/Decomposition in Latin lookup 52 subtable" l uni0315
Ligature2: "'ccmp' Glyph Composition/Decomposition in Latin lookup 52 subtable" l uni030C
EndChar

StartChar: Lslash
Encoding: 321 321 177
Width: 363
GlyphClass: 2
Flags: W
TeX: 636 0
LayerCount: 2
Fore
SplineSet
96 19 m 0
 96 22 97 25 98 29 c 2
 177 326 l 1
 172 322 167 318 160 318 c 0
 148 318 137 328 137 341 c 0
 137 348 140 354 145 359 c 2
 197 400 l 1
 256 620 l 2
 259 630 268 636 278 636 c 0
 292 636 301 625 301 614 c 0
 301 612 300 610 300 608 c 2
 257 446 l 1
 262 450 268 455 275 455 c 0
 287 455 298 445 298 432 c 0
 298 425 294 419 289 414 c 2
 237 373 l 1
 149 45 l 1
 301 45 l 2
 313 45 324 35 324 23 c 0
 324 11 313 0 301 0 c 2
 120 0 l 1
 119 0 l 2
 115 0 96 1 96 19 c 0
EndSplineSet
EndChar

StartChar: lslash
Encoding: 322 322 178
Width: 272
GlyphClass: 2
Flags: W
TeX: 636 0
LayerCount: 2
Fore
SplineSet
113 74 m 0
 113 81 114 89 116 97 c 2
 178 326 l 1
 173 322 167 318 160 318 c 0
 148 318 137 328 137 341 c 0
 137 348 140 354 145 359 c 2
 197 400 l 1
 256 620 l 2
 259 630 268 636 278 636 c 0
 292 636 301 625 301 614 c 0
 301 612 300 610 300 608 c 2
 257 446 l 1
 262 450 268 455 275 455 c 0
 287 455 298 445 298 432 c 0
 298 425 294 419 289 414 c 2
 237 373 l 1
 160 85 l 2
 159 81 159 77 159 73 c 0
 159 57 169 45 188 45 c 2
 210 45 l 2
 222 45 233 35 233 23 c 0
 233 11 222 0 210 0 c 2
 188 0 l 2
 145 0 113 32 113 74 c 0
EndSplineSet
EndChar

StartChar: Nacute
Encoding: 323 323 179
Width: 409
GlyphClass: 3
Flags: W
TeX: 772 0
LayerCount: 2
Fore
SplineSet
51 23 m 0
 51 25 52 27 52 29 c 2
 211 620 l 2
 214 630 223 636 233 636 c 0
 243 636 253 629 255 618 c 2
 350 123 l 1
 484 620 l 2
 487 630 495 636 505 636 c 0
 519 636 528 625 528 614 c 0
 528 612 527 610 527 608 c 2
 369 17 l 2
 366 7 356 0 346 0 c 0
 336 0 326 8 324 19 c 2
 229 513 l 1
 96 17 l 2
 93 7 84 0 74 0 c 0
 60 0 51 12 51 23 c 0
348 704 m 0
 348 709 349 714 352 718 c 2
 387 764 l 2
 392 770 398 772 405 772 c 0
 418 772 428 762 428 750 c 0
 428 745 426 740 423 736 c 2
 388 690 l 2
 383 684 377 681 370 681 c 0
 357 681 348 692 348 704 c 0
EndSplineSet
Ligature2: "'ccmp' Glyph Composition/Decomposition in Latin lookup 50 subtable" N acutecomb
EndChar

StartChar: nacute
Encoding: 324 324 180
Width: 363
GlyphClass: 3
Flags: W
TeX: 636 0
LayerCount: 2
Fore
SplineSet
51 23 m 0
 51 25 52 27 52 29 c 2
 162 438 l 2
 165 448 175 455 184 455 c 2
 320 455 l 2
 378 455 413 414 413 365 c 0
 413 355 412 345 409 335 c 2
 323 17 l 2
 320 7 311 0 301 0 c 0
 287 0 279 12 279 23 c 0
 279 25 280 27 280 29 c 2
 365 347 l 2
 367 354 368 360 368 366 c 0
 368 393 349 409 320 409 c 2
 201 409 l 1
 96 17 l 2
 93 7 84 0 74 0 c 0
 60 0 51 12 51 23 c 0
289 568 m 0
 289 573 290 578 293 582 c 2
 328 628 l 2
 333 634 339 636 346 636 c 0
 359 636 369 626 369 614 c 0
 369 609 367 604 364 600 c 2
 329 554 l 2
 324 548 318 545 311 545 c 0
 298 545 289 556 289 568 c 0
EndSplineSet
Ligature2: "'ccmp' Glyph Composition/Decomposition in Latin lookup 50 subtable" n acutecomb
EndChar

StartChar: Ncaron
Encoding: 327 327 181
Width: 409
GlyphClass: 3
Flags: W
TeX: 772 0
LayerCount: 2
Fore
SplineSet
51 23 m 0
 51 25 52 27 52 29 c 2
 211 620 l 2
 214 630 223 636 233 636 c 0
 243 636 253 629 255 618 c 2
 350 123 l 1
 484 620 l 2
 487 630 495 636 505 636 c 0
 519 636 528 625 528 614 c 0
 528 612 527 610 527 608 c 2
 369 17 l 2
 366 7 356 0 346 0 c 0
 336 0 326 8 324 19 c 2
 229 513 l 1
 96 17 l 2
 93 7 84 0 74 0 c 0
 60 0 51 12 51 23 c 0
337 750 m 0
 337 762 347 772 360 772 c 0
 367 772 373 769 378 763 c 2
 398 736 l 1
 437 767 l 2
 441 770 446 772 451 772 c 0
 463 772 474 763 474 750 c 0
 474 743 470 737 465 732 c 2
 407 686 l 2
 402 682 398 681 393 681 c 0
 386 681 379 685 375 691 c 2
 342 736 l 2
 339 740 337 745 337 750 c 0
EndSplineSet
Ligature2: "'ccmp' Glyph Composition/Decomposition in Latin lookup 52 subtable" N uni030C
EndChar

StartChar: ncaron
Encoding: 328 328 182
Width: 363
GlyphClass: 3
Flags: W
TeX: 636 0
LayerCount: 2
Fore
SplineSet
51 23 m 0
 51 25 52 27 52 29 c 2
 162 438 l 2
 165 448 175 455 184 455 c 2
 320 455 l 2
 378 455 413 414 413 365 c 0
 413 355 412 345 409 335 c 2
 323 17 l 2
 320 7 311 0 301 0 c 0
 287 0 279 12 279 23 c 0
 279 25 280 27 280 29 c 2
 365 347 l 2
 367 354 368 360 368 366 c 0
 368 393 349 409 320 409 c 2
 201 409 l 1
 96 17 l 2
 93 7 84 0 74 0 c 0
 60 0 51 12 51 23 c 0
278 614 m 0
 278 626 288 636 301 636 c 0
 308 636 314 633 319 627 c 2
 339 600 l 1
 378 631 l 2
 382 634 387 636 392 636 c 0
 404 636 415 627 415 614 c 0
 415 607 411 601 406 596 c 2
 348 550 l 2
 343 546 339 545 334 545 c 0
 327 545 320 549 316 555 c 2
 283 600 l 2
 280 604 278 609 278 614 c 0
EndSplineSet
Ligature2: "'ccmp' Glyph Composition/Decomposition in Latin lookup 52 subtable" n uni030C
EndChar

StartChar: Ohungarumlaut
Encoding: 336 336 183
Width: 409
GlyphClass: 3
Flags: W
TeX: 772 0
LayerCount: 2
Fore
SplineSet
84 125 m 0
 84 138 85 151 89 165 c 2
 174 483 l 2
 197 568 283 636 369 636 c 0
 448 636 496 579 496 511 c 0
 496 498 494 485 490 471 c 2
 405 153 l 2
 382 68 296 0 210 0 c 0
 131 0 84 57 84 125 c 0
129 124 m 0
 129 78 160 45 210 45 c 0
 273 45 345 100 362 165 c 2
 447 483 l 2
 450 493 451 504 451 513 c 0
 451 559 419 591 369 591 c 0
 306 591 235 536 218 471 c 2
 133 153 l 2
 130 143 129 133 129 124 c 0
303 704 m 0
 303 709 304 714 307 718 c 2
 342 764 l 2
 347 770 353 772 360 772 c 0
 373 772 383 762 383 750 c 0
 383 745 381 740 378 736 c 2
 343 690 l 2
 338 684 332 681 325 681 c 0
 312 681 303 692 303 704 c 0
439 704 m 0
 439 709 440 714 443 718 c 2
 478 764 l 2
 483 770 489 772 496 772 c 0
 509 772 519 762 519 750 c 0
 519 745 517 740 514 736 c 2
 479 690 l 2
 474 684 468 681 461 681 c 0
 448 681 439 692 439 704 c 0
EndSplineSet
Ligature2: "'ccmp' Glyph Composition/Decomposition in Latin lookup 48 subtable" O uni030B
EndChar

StartChar: ohungarumlaut
Encoding: 337 337 184
Width: 363
GlyphClass: 3
Flags: W
TeX: 636 0
LayerCount: 2
Fore
SplineSet
78 109 m 0
 78 120 80 131 83 142 c 2
 132 324 l 2
 151 396 225 455 298 455 c 0
 366 455 407 405 407 346 c 0
 407 335 406 323 403 312 c 2
 354 130 l 2
 335 58 261 0 188 0 c 0
 120 0 78 51 78 109 c 0
123 108 m 0
 123 72 149 45 188 45 c 0
 238 45 296 90 310 142 c 2
 359 324 l 2
 361 332 362 340 362 347 c 0
 362 383 337 409 298 409 c 0
 248 409 189 364 175 312 c 2
 126 130 l 2
 124 122 123 115 123 108 c 0
243 568 m 0
 243 573 244 578 247 582 c 2
 282 628 l 2
 287 634 293 636 300 636 c 0
 313 636 323 626 323 614 c 0
 323 609 321 604 318 600 c 2
 283 554 l 2
 278 548 272 545 265 545 c 0
 252 545 243 556 243 568 c 0
379 568 m 0
 379 573 380 578 383 582 c 2
 418 628 l 2
 423 634 429 636 436 636 c 0
 449 636 459 626 459 614 c 0
 459 609 457 604 454 600 c 2
 419 554 l 2
 414 548 408 545 401 545 c 0
 388 545 379 556 379 568 c 0
EndSplineSet
Ligature2: "'ccmp' Glyph Composition/Decomposition in Latin lookup 48 subtable" o uni030B
EndChar

StartChar: OE
Encoding: 338 338 185
Width: 636
GlyphClass: 2
Flags: W
TeX: 636 0
LayerCount: 2
Fore
SplineSet
84 125 m 0
 84 138 85 151 89 165 c 2
 174 483 l 2
 197 568 283 636 369 636 c 2
 733 636 l 2
 745 636 755 626 755 614 c 0
 755 602 745 591 733 591 c 2
 523 591 l 1
 462 364 l 1
 562 364 l 2
 564 364 567 365 569 365 c 0
 582 365 591 354 591 341 c 0
 591 331 583 318 569 318 c 2
 450 318 l 1
 376 45 l 1
 574 45 l 2
 586 45 597 35 597 23 c 0
 597 11 586 0 574 0 c 2
 347 0 l 1
 210 0 l 2
 135 0 84 54 84 125 c 0
129 124 m 0
 129 79 160 45 210 45 c 2
 330 45 l 1
 476 591 l 1
 369 591 l 2
 306 591 235 536 218 471 c 2
 133 153 l 2
 130 143 129 133 129 124 c 0
EndSplineSet
EndChar

StartChar: oe
Encoding: 339 339 186
Width: 590
GlyphClass: 2
Flags: W
TeX: 455 0
LayerCount: 2
Fore
SplineSet
78 109 m 0
 78 120 80 131 83 142 c 2
 132 324 l 2
 151 396 225 455 298 455 c 0
 342 455 372 434 390 407 c 1
 411 435 445 455 480 455 c 2
 570 455 l 2
 613 455 645 423 645 381 c 0
 645 374 644 366 642 358 c 2
 605 221 l 2
 603 212 595 205 584 205 c 2
 374 205 l 1
 342 86 l 2
 341 81 340 77 340 73 c 0
 340 56 353 45 370 45 c 2
 529 45 l 2
 541 45 551 35 551 23 c 0
 551 11 541 0 529 0 c 2
 370 0 l 2
 334 0 310 20 300 46 c 1
 269 18 228 0 188 0 c 0
 120 0 78 51 78 109 c 0
123 108 m 0
 123 72 149 45 188 45 c 0
 238 45 296 91 310 142 c 0
 310 143 311 144 311 145 c 2
 361 332 l 2
 362 337 362 342 362 347 c 0
 362 384 337 409 298 409 c 0
 248 409 189 364 175 312 c 2
 126 130 l 2
 124 122 123 115 123 108 c 0
386 250 m 1
 566 250 l 1
 598 370 l 2
 599 374 600 377 600 381 c 0
 600 397 589 409 570 409 c 2
 480 409 l 2
 452 409 422 384 415 356 c 2
 405 321 l 1
 402 309 l 1
 386 250 l 1
EndSplineSet
EndChar

StartChar: Racute
Encoding: 340 340 187
Width: 409
GlyphClass: 3
Flags: W
TeX: 772 0
LayerCount: 2
Fore
SplineSet
51 23 m 0
 51 25 52 27 52 29 c 2
 125 300 l 1
 125 303 l 1
 211 620 l 2
 213 629 222 636 233 636 c 2
 346 636 l 2
 431 636 491 579 491 498 c 0
 491 482 490 466 485 449 c 0
 461 359 381 288 291 275 c 1
 369 30 l 2
 370 28 370 25 370 23 c 0
 370 12 361 0 347 0 c 0
 337 0 328 6 325 16 c 2
 244 273 l 1
 165 273 l 1
 96 17 l 2
 93 7 84 0 74 0 c 0
 60 0 51 12 51 23 c 0
177 318 m 1
 261 318 l 2
 341 318 420 380 441 460 c 0
 445 473 446 487 446 498 c 1
 446 498 l 1
 446 553 410 591 346 591 c 2
 250 591 l 1
 177 318 l 1
325 704 m 0
 325 709 326 714 329 718 c 2
 364 764 l 2
 369 770 375 772 382 772 c 0
 395 772 405 762 405 750 c 0
 405 745 403 740 400 736 c 2
 365 690 l 2
 360 684 354 681 347 681 c 0
 334 681 325 692 325 704 c 0
EndSplineSet
Ligature2: "'ccmp' Glyph Composition/Decomposition in Latin lookup 52 subtable" R acutecomb
EndChar

StartChar: racute
Encoding: 341 341 188
Width: 318
GlyphClass: 3
Flags: W
TeX: 636 0
LayerCount: 2
Fore
SplineSet
51 23 m 0
 51 25 52 27 52 29 c 2
 162 438 l 2
 165 448 175 455 184 455 c 2
 298 455 l 2
 346 455 372 420 372 381 c 0
 372 361 367 341 347 341 c 0
 333 341 325 353 325 364 c 0
 325 370 327 378 327 383 c 0
 327 401 316 409 298 409 c 2
 201 409 l 1
 96 17 l 2
 93 7 84 0 74 0 c 0
 60 0 51 12 51 23 c 0
266 568 m 0
 266 573 267 578 270 582 c 2
 305 628 l 2
 310 634 316 636 323 636 c 0
 336 636 346 626 346 614 c 0
 346 609 344 604 341 600 c 2
 306 554 l 2
 301 548 295 545 288 545 c 0
 275 545 266 556 266 568 c 0
EndSplineSet
Ligature2: "'ccmp' Glyph Composition/Decomposition in Latin lookup 52 subtable" r acutecomb
EndChar

StartChar: Rcaron
Encoding: 344 344 189
Width: 409
GlyphClass: 3
Flags: W
TeX: 772 0
LayerCount: 2
Fore
SplineSet
51 23 m 0
 51 25 52 27 52 29 c 2
 125 300 l 1
 125 303 l 1
 211 620 l 2
 213 629 222 636 233 636 c 2
 346 636 l 2
 431 636 491 579 491 498 c 0
 491 482 490 466 485 449 c 0
 461 359 381 288 291 275 c 1
 369 30 l 2
 370 28 370 25 370 23 c 0
 370 12 361 0 347 0 c 0
 337 0 328 6 325 16 c 2
 244 273 l 1
 165 273 l 1
 96 17 l 2
 93 7 84 0 74 0 c 0
 60 0 51 12 51 23 c 0
177 318 m 1
 261 318 l 2
 341 318 420 380 441 460 c 0
 445 473 446 487 446 498 c 1
 446 498 l 1
 446 553 410 591 346 591 c 2
 250 591 l 1
 177 318 l 1
315 750 m 0
 315 762 325 772 338 772 c 0
 345 772 351 769 356 763 c 2
 376 736 l 1
 415 767 l 2
 419 770 424 772 429 772 c 0
 441 772 452 763 452 750 c 0
 452 743 448 737 443 732 c 2
 385 686 l 2
 380 682 376 681 371 681 c 0
 364 681 357 685 353 691 c 2
 320 736 l 2
 317 740 315 745 315 750 c 0
EndSplineSet
Ligature2: "'ccmp' Glyph Composition/Decomposition in Latin lookup 52 subtable" R uni030C
EndChar

StartChar: rcaron
Encoding: 345 345 190
Width: 318
GlyphClass: 3
Flags: W
TeX: 636 0
LayerCount: 2
Fore
SplineSet
51 23 m 0
 51 25 52 27 52 29 c 2
 162 438 l 2
 165 448 175 455 184 455 c 2
 298 455 l 2
 346 455 372 420 372 381 c 0
 372 361 367 341 347 341 c 0
 333 341 325 353 325 364 c 0
 325 370 327 378 327 383 c 0
 327 401 316 409 298 409 c 2
 201 409 l 1
 96 17 l 2
 93 7 84 0 74 0 c 0
 60 0 51 12 51 23 c 0
255 614 m 0
 255 626 265 636 278 636 c 0
 285 636 291 633 296 627 c 2
 316 600 l 1
 355 631 l 2
 359 634 364 636 369 636 c 0
 381 636 392 627 392 614 c 0
 392 607 388 601 383 596 c 2
 325 550 l 2
 320 546 316 545 311 545 c 0
 304 545 297 549 293 555 c 2
 260 600 l 2
 257 604 255 609 255 614 c 0
EndSplineSet
Ligature2: "'ccmp' Glyph Composition/Decomposition in Latin lookup 52 subtable" r uni030C
EndChar

StartChar: Sacute
Encoding: 346 346 191
Width: 409
GlyphClass: 3
Flags: W
TeX: 772 0
LayerCount: 2
Fore
SplineSet
64 68 m 0
 64 80 74 91 86 91 c 0
 92 91 97 89 102 85 c 0
 128 59 163 45 210 45 c 0
 290 45 358 87 358 166 c 0
 358 184 353 200 343 214 c 2
 200 419 l 2
 186 439 179 461 179 485 c 0
 179 495 180 506 183 516 c 0
 204 596 289 636 369 636 c 0
 425 636 473 620 509 585 c 0
 514 580 516 574 516 568 c 0
 516 556 505 545 493 545 c 0
 487 545 482 548 477 552 c 0
 451 577 416 591 369 591 c 0
 301 591 241 557 227 505 c 0
 225 498 224 491 224 484 c 0
 224 470 228 458 237 445 c 2
 380 240 l 2
 395 218 403 193 403 166 c 0
 403 54 303 0 210 0 c 0
 154 0 106 17 70 52 c 0
 65 57 64 62 64 68 c 0
348 704 m 0
 348 709 349 714 352 718 c 2
 387 764 l 2
 392 770 398 772 405 772 c 0
 418 772 428 762 428 750 c 0
 428 745 426 740 423 736 c 2
 388 690 l 2
 383 684 377 681 370 681 c 0
 357 681 348 692 348 704 c 0
EndSplineSet
Ligature2: "'ccmp' Glyph Composition/Decomposition in Latin lookup 50 subtable" S acutecomb
EndChar

StartChar: sacute
Encoding: 347 347 192
Width: 363
GlyphClass: 3
Flags: W
TeX: 636 0
LayerCount: 2
Fore
SplineSet
60 57 m 0
 60 70 71 80 83 80 c 0
 88 80 95 78 99 74 c 0
 118 56 146 45 188 45 c 0
 247 45 304 76 304 130 c 0
 304 140 301 146 297 150 c 2
 158 279 l 2
 143 293 137 310 137 330 c 0
 137 339 138 348 141 358 c 0
 160 429 231 455 298 455 c 0
 346 455 387 442 417 415 c 0
 422 410 425 404 425 398 c 0
 425 385 414 375 402 375 c 0
 397 375 390 377 386 381 c 0
 366 399 339 409 298 409 c 0
 238 409 196 388 185 346 c 0
 183 339 182 334 182 329 c 0
 182 320 185 316 189 312 c 2
 328 184 l 2
 343 170 350 150 350 130 c 0
 350 38 258 0 188 0 c 0
 139 0 98 12 68 40 c 0
 63 45 60 51 60 57 c 0
289 568 m 0
 289 573 290 578 293 582 c 2
 328 628 l 2
 333 634 339 636 346 636 c 0
 359 636 369 626 369 614 c 0
 369 609 367 604 364 600 c 2
 329 554 l 2
 324 548 318 545 311 545 c 0
 298 545 289 556 289 568 c 0
EndSplineSet
Ligature2: "'ccmp' Glyph Composition/Decomposition in Latin lookup 50 subtable" s acutecomb
EndChar

StartChar: Scaron
Encoding: 352 352 193
Width: 409
GlyphClass: 3
Flags: W
TeX: 772 0
LayerCount: 2
Fore
SplineSet
64 68 m 0
 64 80 74 91 86 91 c 0
 92 91 97 89 102 85 c 0
 128 59 163 45 210 45 c 0
 290 45 358 87 358 166 c 0
 358 184 353 200 343 214 c 2
 200 419 l 2
 186 439 179 461 179 485 c 0
 179 495 180 506 183 516 c 0
 204 596 289 636 369 636 c 0
 425 636 473 620 509 585 c 0
 514 580 516 574 516 568 c 0
 516 556 505 545 493 545 c 0
 487 545 482 548 477 552 c 0
 451 577 416 591 369 591 c 0
 301 591 241 557 227 505 c 0
 225 498 224 491 224 484 c 0
 224 470 228 458 237 445 c 2
 380 240 l 2
 395 218 403 193 403 166 c 0
 403 54 303 0 210 0 c 0
 154 0 106 17 70 52 c 0
 65 57 64 62 64 68 c 0
337 750 m 0
 337 762 347 772 360 772 c 0
 367 772 373 769 378 763 c 2
 398 736 l 1
 437 767 l 2
 441 770 446 772 451 772 c 0
 463 772 474 763 474 750 c 0
 474 743 470 737 465 732 c 2
 407 686 l 2
 402 682 398 681 393 681 c 0
 386 681 379 685 375 691 c 2
 342 736 l 2
 339 740 337 745 337 750 c 0
EndSplineSet
Ligature2: "'ccmp' Glyph Composition/Decomposition in Latin lookup 52 subtable" S uni030C
EndChar

StartChar: scaron
Encoding: 353 353 194
Width: 363
GlyphClass: 3
Flags: W
TeX: 636 0
LayerCount: 2
Fore
SplineSet
60 57 m 0
 60 70 71 80 83 80 c 0
 88 80 95 78 99 74 c 0
 118 56 146 45 188 45 c 0
 247 45 304 76 304 130 c 0
 304 140 301 146 297 150 c 2
 158 279 l 2
 143 293 137 310 137 330 c 0
 137 339 138 348 141 358 c 0
 160 429 231 455 298 455 c 0
 346 455 387 442 417 415 c 0
 422 410 425 404 425 398 c 0
 425 385 414 375 402 375 c 0
 397 375 390 377 386 381 c 0
 366 399 339 409 298 409 c 0
 238 409 196 388 185 346 c 0
 183 339 182 334 182 329 c 0
 182 320 185 316 189 312 c 2
 328 184 l 2
 343 170 350 150 350 130 c 0
 350 38 258 0 188 0 c 0
 139 0 98 12 68 40 c 0
 63 45 60 51 60 57 c 0
278 614 m 0
 278 626 288 636 301 636 c 0
 308 636 314 633 319 627 c 2
 339 600 l 1
 378 631 l 2
 382 634 387 636 392 636 c 0
 404 636 415 627 415 614 c 0
 415 607 411 601 406 596 c 2
 348 550 l 2
 343 546 339 545 334 545 c 0
 327 545 320 549 316 555 c 2
 283 600 l 2
 280 604 278 609 278 614 c 0
EndSplineSet
Ligature2: "'ccmp' Glyph Composition/Decomposition in Latin lookup 52 subtable" s uni030C
EndChar

StartChar: Tcaron
Encoding: 356 356 195
Width: 409
GlyphClass: 3
Flags: W
TeX: 772 0
LayerCount: 2
Fore
SplineSet
188 23 m 0
 188 25 189 27 189 29 c 2
 340 591 l 1
 233 591 l 2
 221 591 210 602 210 614 c 0
 210 626 221 636 233 636 c 2
 505 636 l 2
 517 636 528 626 528 614 c 0
 528 602 517 591 505 591 c 2
 386 591 l 1
 232 17 l 2
 229 7 220 0 210 0 c 0
 196 0 188 12 188 23 c 0
337 750 m 0
 337 762 347 772 360 772 c 0
 367 772 373 769 378 763 c 2
 398 736 l 1
 437 767 l 2
 441 770 446 772 451 772 c 0
 463 772 474 763 474 750 c 0
 474 743 470 737 465 732 c 2
 407 686 l 2
 402 682 398 681 393 681 c 0
 386 681 379 685 375 691 c 2
 342 736 l 2
 339 740 337 745 337 750 c 0
EndSplineSet
Ligature2: "'ccmp' Glyph Composition/Decomposition in Latin lookup 52 subtable" T uni030C
EndChar

StartChar: tcaron
Encoding: 357 357 196
Width: 272
GlyphClass: 3
Flags: W
TeX: 636 0
LayerCount: 2
Fore
SplineSet
97 23 m 0
 97 25 98 27 98 29 c 2
 200 409 l 1
 184 409 l 2
 172 409 161 420 161 432 c 0
 161 444 172 455 184 455 c 2
 212 455 l 1
 256 620 l 2
 259 630 268 636 278 636 c 0
 292 636 301 625 301 614 c 0
 301 612 300 610 300 608 c 2
 259 455 l 1
 320 455 l 2
 332 455 343 444 343 432 c 0
 343 420 332 409 320 409 c 2
 247 409 l 1
 141 17 l 2
 138 7 130 0 120 0 c 0
 106 0 97 12 97 23 c 0
334 568 m 2
 334 574 l 1
 347 620 l 2
 350 630 359 636 369 636 c 0
 383 636 391 625 391 614 c 0
 391 612 390 610 390 608 c 2
 378 562 l 2
 375 552 366 545 356 545 c 0
 342 545 334 557 334 568 c 2
EndSplineSet
Ligature2: "'ccmp' Glyph Composition/Decomposition in Latin lookup 52 subtable" t uni0315
Ligature2: "'ccmp' Glyph Composition/Decomposition in Latin lookup 52 subtable" t uni030C
EndChar

StartChar: Uring
Encoding: 366 366 197
Width: 409
GlyphClass: 3
Flags: W
TeX: 772 0
LayerCount: 2
Fore
SplineSet
84 125 m 0
 84 138 85 151 89 165 c 2
 211 620 l 2
 214 630 223 636 233 636 c 0
 247 636 255 625 255 614 c 2
 255 608 l 1
 133 153 l 2
 130 143 129 133 129 124 c 0
 129 79 160 45 210 45 c 0
 273 45 345 100 362 165 c 2
 484 620 l 2
 487 630 495 636 505 636 c 0
 519 636 528 625 528 614 c 0
 528 612 527 610 527 608 c 2
 405 153 l 2
 382 68 296 0 210 0 c 0
 135 0 84 54 84 125 c 0
356 704 m 0
 356 741 386 772 424 772 c 0
 462 772 492 741 492 704 c 0
 492 667 461 636 424 636 c 0
 386 636 356 666 356 704 c 0
401 704 m 0
 401 692 412 681 424 681 c 0
 436 681 446 692 446 704 c 0
 446 717 437 727 424 727 c 0
 412 727 401 716 401 704 c 0
EndSplineSet
Ligature2: "'ccmp' Glyph Composition/Decomposition in Latin lookup 52 subtable" U uni030A
EndChar

StartChar: uring
Encoding: 367 367 198
Width: 363
GlyphClass: 3
Flags: W
TeX: 636 0
LayerCount: 2
Fore
SplineSet
73 90 m 0
 73 100 74 110 77 120 c 2
 162 438 l 2
 165 448 174 455 184 455 c 0
 198 455 207 443 207 432 c 0
 207 430 206 428 206 426 c 2
 120 108 l 2
 118 101 118 94 118 88 c 0
 118 61 136 45 165 45 c 2
 284 45 l 1
 390 438 l 2
 393 448 401 455 411 455 c 0
 425 455 434 443 434 432 c 0
 434 430 433 428 433 426 c 2
 323 17 l 2
 320 7 310 0 301 0 c 2
 165 0 l 2
 107 0 73 41 73 90 c 0
297 568 m 0
 297 605 327 636 365 636 c 0
 403 636 433 605 433 568 c 0
 433 531 402 500 365 500 c 0
 327 500 297 530 297 568 c 0
342 568 m 0
 342 556 353 545 365 545 c 0
 377 545 387 556 387 568 c 0
 387 581 378 591 365 591 c 0
 353 591 342 580 342 568 c 0
EndSplineSet
Ligature2: "'ccmp' Glyph Composition/Decomposition in Latin lookup 52 subtable" u uni030A
EndChar

StartChar: Uhungarumlaut
Encoding: 368 368 199
Width: 409
GlyphClass: 3
Flags: W
TeX: 772 0
LayerCount: 2
Fore
SplineSet
84 125 m 0
 84 138 85 151 89 165 c 2
 211 620 l 2
 214 630 223 636 233 636 c 0
 247 636 255 625 255 614 c 2
 255 608 l 1
 133 153 l 2
 130 143 129 133 129 124 c 0
 129 79 160 45 210 45 c 0
 273 45 345 100 362 165 c 2
 484 620 l 2
 487 630 495 636 505 636 c 0
 519 636 528 625 528 614 c 0
 528 612 527 610 527 608 c 2
 405 153 l 2
 382 68 296 0 210 0 c 0
 135 0 84 54 84 125 c 0
303 704 m 0
 303 709 304 714 307 718 c 2
 342 764 l 2
 347 770 353 772 360 772 c 0
 373 772 383 762 383 750 c 0
 383 745 381 740 378 736 c 2
 343 690 l 2
 338 684 332 681 325 681 c 0
 312 681 303 692 303 704 c 0
439 704 m 0
 439 709 440 714 443 718 c 2
 478 764 l 2
 483 770 489 772 496 772 c 0
 509 772 519 762 519 750 c 0
 519 745 517 740 514 736 c 2
 479 690 l 2
 474 684 468 681 461 681 c 0
 448 681 439 692 439 704 c 0
EndSplineSet
Ligature2: "'ccmp' Glyph Composition/Decomposition in Latin lookup 48 subtable" U uni030B
EndChar

StartChar: uhungarumlaut
Encoding: 369 369 200
Width: 363
GlyphClass: 3
Flags: W
TeX: 636 0
LayerCount: 2
Fore
SplineSet
73 90 m 0
 73 100 74 110 77 120 c 2
 162 438 l 2
 165 448 174 455 184 455 c 0
 198 455 207 443 207 432 c 0
 207 430 206 428 206 426 c 2
 120 108 l 2
 118 101 118 94 118 88 c 0
 118 61 136 45 165 45 c 2
 284 45 l 1
 390 438 l 2
 393 448 401 455 411 455 c 0
 425 455 434 443 434 432 c 0
 434 430 433 428 433 426 c 2
 323 17 l 2
 320 7 310 0 301 0 c 2
 165 0 l 2
 107 0 73 41 73 90 c 0
243 568 m 0
 243 573 244 578 247 582 c 2
 282 628 l 2
 287 634 293 636 300 636 c 0
 313 636 323 626 323 614 c 0
 323 609 321 604 318 600 c 2
 283 554 l 2
 278 548 272 545 265 545 c 0
 252 545 243 556 243 568 c 0
379 568 m 0
 379 573 380 578 383 582 c 2
 418 628 l 2
 423 634 429 636 436 636 c 0
 449 636 459 626 459 614 c 0
 459 609 457 604 454 600 c 2
 419 554 l 2
 414 548 408 545 401 545 c 0
 388 545 379 556 379 568 c 0
EndSplineSet
Ligature2: "'ccmp' Glyph Composition/Decomposition in Latin lookup 48 subtable" u uni030B
EndChar

StartChar: Zacute
Encoding: 377 377 201
Width: 409
GlyphClass: 3
Flags: W
TeX: 772 0
LayerCount: 2
Fore
SplineSet
51 23 m 0
 51 28 53 33 56 37 c 2
 460 591 l 1
 233 591 l 2
 221 591 210 602 210 614 c 0
 210 626 221 636 233 636 c 2
 505 636 l 2
 517 636 528 626 528 614 c 0
 528 609 526 604 523 600 c 2
 119 45 l 1
 347 45 l 2
 359 45 370 35 370 23 c 0
 370 11 359 0 347 0 c 2
 74 0 l 2
 62 0 51 11 51 23 c 0
348 704 m 0
 348 709 349 714 352 718 c 2
 387 764 l 2
 392 770 398 772 405 772 c 0
 418 772 428 762 428 750 c 0
 428 745 426 740 423 736 c 2
 388 690 l 2
 383 684 377 681 370 681 c 0
 357 681 348 692 348 704 c 0
EndSplineSet
Ligature2: "'ccmp' Glyph Composition/Decomposition in Latin lookup 50 subtable" Z acutecomb
EndChar

StartChar: zacute
Encoding: 378 378 202
Width: 363
GlyphClass: 3
Flags: W
TeX: 636 0
LayerCount: 2
Fore
SplineSet
48 16 m 0
 48 26 56 37 56 37 c 1
 363 409 l 1
 184 409 l 2
 172 409 161 420 161 432 c 0
 161 444 172 455 184 455 c 2
 411 455 l 1
 411 455 438 453 438 437 c 0
 438 432 436 425 429 417 c 2
 122 45 l 1
 301 45 l 2
 313 45 324 35 324 23 c 0
 324 11 313 0 301 0 c 2
 74 0 l 2
 54 0 48 8 48 16 c 0
289 568 m 0
 289 573 290 578 293 582 c 2
 328 628 l 2
 333 634 339 636 346 636 c 0
 359 636 369 626 369 614 c 0
 369 609 367 604 364 600 c 2
 329 554 l 2
 324 548 318 545 311 545 c 0
 298 545 289 556 289 568 c 0
EndSplineSet
Ligature2: "'ccmp' Glyph Composition/Decomposition in Latin lookup 50 subtable" z acutecomb
EndChar

StartChar: Zdotaccent
Encoding: 379 379 203
Width: 409
GlyphClass: 3
Flags: W
TeX: 773 0
LayerCount: 2
Fore
SplineSet
51 23 m 0
 51 28 53 33 56 37 c 2
 460 591 l 1
 233 591 l 2
 221 591 210 602 210 614 c 0
 210 626 221 636 233 636 c 2
 505 636 l 2
 517 636 528 626 528 614 c 0
 528 609 526 604 523 600 c 2
 119 45 l 1
 347 45 l 2
 359 45 370 35 370 23 c 0
 370 11 359 0 347 0 c 2
 74 0 l 2
 62 0 51 11 51 23 c 0
383 750 m 0
 383 762 394 773 406 773 c 0
 418 773 428 762 428 750 c 0
 428 737 419 727 406 727 c 0
 393 727 383 737 383 750 c 0
EndSplineSet
Ligature2: "'ccmp' Glyph Composition/Decomposition in Latin lookup 50 subtable" Z uni0307
EndChar

StartChar: zdotaccent
Encoding: 380 380 204
Width: 363
GlyphClass: 3
Flags: W
TeX: 637 0
LayerCount: 2
Fore
SplineSet
48 16 m 0
 48 26 56 37 56 37 c 1
 363 409 l 1
 184 409 l 2
 172 409 161 420 161 432 c 0
 161 444 172 455 184 455 c 2
 411 455 l 1
 411 455 438 453 438 437 c 0
 438 432 436 425 429 417 c 2
 122 45 l 1
 301 45 l 2
 313 45 324 35 324 23 c 0
 324 11 313 0 301 0 c 2
 74 0 l 2
 54 0 48 8 48 16 c 0
324 614 m 0
 324 626 335 637 347 637 c 0
 359 637 369 626 369 614 c 0
 369 601 360 591 347 591 c 0
 334 591 324 601 324 614 c 0
EndSplineSet
Ligature2: "'ccmp' Glyph Composition/Decomposition in Latin lookup 50 subtable" z uni0307
EndChar

StartChar: Zcaron
Encoding: 381 381 205
Width: 409
GlyphClass: 3
Flags: W
TeX: 772 0
LayerCount: 2
Fore
SplineSet
51 23 m 0
 51 28 53 33 56 37 c 2
 460 591 l 1
 233 591 l 2
 221 591 210 602 210 614 c 0
 210 626 221 636 233 636 c 2
 505 636 l 2
 517 636 528 626 528 614 c 0
 528 609 526 604 523 600 c 2
 119 45 l 1
 347 45 l 2
 359 45 370 35 370 23 c 0
 370 11 359 0 347 0 c 2
 74 0 l 2
 62 0 51 11 51 23 c 0
337 750 m 0
 337 762 347 772 360 772 c 0
 367 772 373 769 378 763 c 2
 398 736 l 1
 437 767 l 2
 441 770 446 772 451 772 c 0
 463 772 474 763 474 750 c 0
 474 743 470 737 465 732 c 2
 407 686 l 2
 402 682 398 681 393 681 c 0
 386 681 379 685 375 691 c 2
 342 736 l 2
 339 740 337 745 337 750 c 0
EndSplineSet
Ligature2: "'ccmp' Glyph Composition/Decomposition in Latin lookup 52 subtable" Z uni030C
EndChar

StartChar: zcaron
Encoding: 382 382 206
Width: 363
GlyphClass: 3
Flags: W
TeX: 636 0
LayerCount: 2
Fore
SplineSet
48 16 m 0
 48 26 56 37 56 37 c 1
 363 409 l 1
 184 409 l 2
 172 409 161 420 161 432 c 0
 161 444 172 455 184 455 c 2
 411 455 l 1
 411 455 438 453 438 437 c 0
 438 432 436 425 429 417 c 2
 122 45 l 1
 301 45 l 2
 313 45 324 35 324 23 c 0
 324 11 313 0 301 0 c 2
 74 0 l 2
 54 0 48 8 48 16 c 0
278 614 m 0
 278 626 288 636 301 636 c 0
 308 636 314 633 319 627 c 2
 339 600 l 1
 378 631 l 2
 382 634 387 636 392 636 c 0
 404 636 415 627 415 614 c 0
 415 607 411 601 406 596 c 2
 348 550 l 2
 343 546 339 545 334 545 c 0
 327 545 320 549 316 555 c 2
 283 600 l 2
 280 604 278 609 278 614 c 0
EndSplineSet
Ligature2: "'ccmp' Glyph Composition/Decomposition in Latin lookup 52 subtable" z uni030C
EndChar

StartChar: uni0194
Encoding: 404 404 207
Width: 363
GlyphClass: 2
Flags: W
TeX: 455 182
LayerCount: 2
Fore
SplineSet
129 -135 m 0
 129 -95 149 -34 166 29 c 0
 187 109 213 175 243 235 c 1
 243 243 l 1
 243 265 l 2
 240 378 212 409 184 409 c 0
 172 409 161 420 161 432 c 0
 161 444 172 455 184 455 c 0
 249 455 277 392 285 308 c 1
 316 356 353 401 395 447 c 0
 400 452 405 455 411 455 c 0
 424 455 434 444 434 432 c 0
 434 427 432 420 428 416 c 0
 370 352 326 295 288 223 c 1
 286 161 275 92 255 17 c 0
 225 -94 208 -182 162 -182 c 0
 138 -182 129 -160 129 -135 c 0
EndSplineSet
EndChar

StartChar: uni0218
Encoding: 536 536 208
Width: 409
GlyphClass: 3
Flags: W
TeX: 636 136
LayerCount: 2
Fore
SplineSet
64 68 m 0
 64 80 74 91 86 91 c 0
 92 91 97 89 102 85 c 0
 128 59 163 45 210 45 c 0
 290 45 358 87 358 166 c 0
 358 184 353 200 343 214 c 2
 200 419 l 2
 186 439 179 461 179 485 c 0
 179 495 180 506 183 516 c 0
 204 596 289 636 369 636 c 0
 425 636 473 620 509 585 c 0
 514 580 516 574 516 568 c 0
 516 556 505 545 493 545 c 0
 487 545 482 548 477 552 c 0
 451 577 416 591 369 591 c 0
 301 591 241 557 227 505 c 0
 225 498 224 491 224 484 c 0
 224 470 228 458 237 445 c 2
 380 240 l 2
 395 218 403 193 403 166 c 0
 403 54 303 0 210 0 c 0
 154 0 106 17 70 52 c 0
 65 57 64 62 64 68 c 0
152 -114 m 0
 152 -112 153 -110 153 -108 c 2
 165 -62 l 2
 168 -52 177 -45 187 -45 c 0
 201 -45 210 -57 210 -68 c 0
 210 -70 209 -72 209 -74 c 2
 196 -120 l 2
 193 -130 185 -136 175 -136 c 0
 161 -136 152 -125 152 -114 c 0
EndSplineSet
Ligature2: "'ccmp' Glyph Composition/Decomposition in Latin lookup 51 subtable" S uni0326
EndChar

StartChar: uni0219
Encoding: 537 537 209
Width: 363
GlyphClass: 3
Flags: W
TeX: 455 136
LayerCount: 2
Fore
SplineSet
60 57 m 0
 60 70 71 80 83 80 c 0
 88 80 95 78 99 74 c 0
 118 56 146 45 188 45 c 0
 247 45 304 76 304 130 c 0
 304 140 301 146 297 150 c 2
 158 279 l 2
 143 293 137 310 137 330 c 0
 137 339 138 348 141 358 c 0
 160 429 231 455 298 455 c 0
 346 455 387 442 417 415 c 0
 422 410 425 404 425 398 c 0
 425 385 414 375 402 375 c 0
 397 375 390 377 386 381 c 0
 366 399 339 409 298 409 c 0
 238 409 196 388 185 346 c 0
 183 339 182 334 182 329 c 0
 182 320 185 316 189 312 c 2
 328 184 l 2
 343 170 350 150 350 130 c 0
 350 38 258 0 188 0 c 0
 139 0 98 12 68 40 c 0
 63 45 60 51 60 57 c 0
129 -114 m 0
 129 -112 130 -110 130 -108 c 2
 142 -62 l 2
 145 -52 154 -45 164 -45 c 0
 178 -45 187 -57 187 -68 c 0
 187 -70 186 -72 186 -74 c 2
 173 -120 l 2
 170 -130 162 -136 152 -136 c 0
 138 -136 129 -125 129 -114 c 0
EndSplineSet
Ligature2: "'ccmp' Glyph Composition/Decomposition in Latin lookup 51 subtable" s uni0326
EndChar

StartChar: uni021A
Encoding: 538 538 210
Width: 409
GlyphClass: 3
Flags: W
TeX: 636 136
LayerCount: 2
Fore
SplineSet
188 23 m 0
 188 25 189 27 189 29 c 2
 340 591 l 1
 233 591 l 2
 221 591 210 602 210 614 c 0
 210 626 221 636 233 636 c 2
 505 636 l 2
 517 636 528 626 528 614 c 0
 528 602 517 591 505 591 c 2
 386 591 l 1
 232 17 l 2
 229 7 220 0 210 0 c 0
 196 0 188 12 188 23 c 0
152 -114 m 0
 152 -112 153 -110 153 -108 c 2
 165 -62 l 2
 168 -52 177 -45 187 -45 c 0
 201 -45 210 -57 210 -68 c 0
 210 -70 209 -72 209 -74 c 2
 196 -120 l 2
 193 -130 185 -136 175 -136 c 0
 161 -136 152 -125 152 -114 c 0
EndSplineSet
Ligature2: "'ccmp' Glyph Composition/Decomposition in Latin lookup 51 subtable" T uni0326
EndChar

StartChar: uni021B
Encoding: 539 539 211
Width: 272
GlyphClass: 3
Flags: W
TeX: 636 136
LayerCount: 2
Fore
SplineSet
97 23 m 0
 97 25 98 27 98 29 c 2
 200 409 l 1
 184 409 l 2
 172 409 161 420 161 432 c 0
 161 444 172 455 184 455 c 2
 212 455 l 1
 256 620 l 2
 259 630 268 636 278 636 c 0
 292 636 301 625 301 614 c 0
 301 612 300 610 300 608 c 2
 259 455 l 1
 320 455 l 2
 332 455 343 444 343 432 c 0
 343 420 332 409 320 409 c 2
 247 409 l 1
 141 17 l 2
 138 7 130 0 120 0 c 0
 106 0 97 12 97 23 c 0
61 -114 m 0
 61 -112 62 -110 62 -108 c 2
 74 -62 l 2
 77 -52 86 -45 96 -45 c 0
 110 -45 119 -57 119 -68 c 0
 119 -70 118 -72 118 -74 c 2
 105 -120 l 2
 102 -130 94 -136 84 -136 c 0
 70 -136 61 -125 61 -114 c 0
EndSplineSet
Ligature2: "'ccmp' Glyph Composition/Decomposition in Latin lookup 51 subtable" t uni0326
EndChar

StartChar: uni0237
Encoding: 567 567 212
Width: 227
GlyphClass: 2
Flags: W
TeX: 455 182
AnchorPoint: "Anchor-1" 324 614 basechar 0
LayerCount: 2
Fore
SplineSet
3 -159 m 0
 3 -147 13 -136 25 -136 c 2
 48 -136 l 2
 74 -136 106 -112 113 -85 c 2
 253 438 l 2
 256 448 265 455 275 455 c 0
 289 455 298 443 298 432 c 0
 298 430 297 428 297 426 c 2
 156 -97 l 2
 143 -144 97 -182 48 -182 c 2
 25 -182 l 2
 13 -182 3 -171 3 -159 c 0
EndSplineSet
EndChar

StartChar: uni025B
Encoding: 603 603 213
Width: 363
GlyphClass: 2
Flags: W
TeX: 455 0
LayerCount: 2
Fore
SplineSet
74 90 m 0
 74 102 76 116 80 130 c 0
 90 169 121 208 159 231 c 1
 141 251 131 278 131 306 c 0
 131 316 132 327 135 337 c 0
 155 413 217 455 298 455 c 0
 348 455 387 447 417 429 c 0
 424 425 428 417 428 409 c 0
 428 396 416 386 405 386 c 0
 401 386 397 388 393 390 c 0
 374 402 343 409 298 409 c 0
 233 409 194 380 179 325 c 0
 177 319 176 312 176 306 c 0
 176 276 194 250 220 250 c 2
 265 250 l 2
 277 250 288 239 288 227 c 0
 288 215 277 205 265 205 c 2
 220 205 l 2
 180 205 119 146 119 90 c 0
 119 62 134 45 188 45 c 0
 233 45 269 53 298 66 c 0
 301 67 305 68 308 68 c 0
 319 68 330 59 330 45 c 0
 330 36 325 29 317 25 c 0
 281 8 238 0 188 0 c 0
 123 0 74 30 74 90 c 0
EndSplineSet
EndChar

StartChar: uni0269
Encoding: 617 617 214
Width: 250
GlyphClass: 2
Flags: W
TeX: 455 0
LayerCount: 2
Fore
SplineSet
65 66 m 0
 65 72 66 79 68 85 c 2
 162 438 l 2
 165 448 174 455 184 455 c 0
 198 455 207 443 207 432 c 0
 207 430 206 428 206 426 c 2
 111 74 l 2
 110 71 110 68 110 65 c 0
 110 52 119 45 132 45 c 0
 146 45 172 61 178 70 c 0
 183 76 190 80 197 80 c 0
 210 80 220 69 220 57 c 0
 220 52 218 48 215 44 c 0
 199 19 164 0 132 0 c 0
 91 0 65 31 65 66 c 0
EndSplineSet
EndChar

StartChar: uni0278
Encoding: 632 632 215
Width: 454
GlyphClass: 2
Flags: W
TeX: 455 182
LayerCount: 2
Fore
SplineSet
88 140 m 0
 88 157 91 173 95 188 c 0
 120 279 157 365 210 445 c 0
 215 451 223 455 230 455 c 0
 243 455 252 444 252 432 c 0
 252 428 251 423 249 419 c 0
 199 343 163 263 139 176 c 0
 136 164 134 152 134 138 c 0
 134 87 165 52 216 46 c 1
 306 381 l 2
 317 422 357 455 400 455 c 0
 459 455 484 405 484 340 c 1
 484 340 l 1
 484 297 475 243 457 176 c 0
 432 82 345 9 251 1 c 1
 206 -165 l 2
 203 -175 195 -182 185 -182 c 0
 171 -182 162 -170 162 -159 c 0
 162 -157 163 -155 163 -153 c 2
 204 2 l 1
 133 14 88 70 88 140 c 0
264 49 m 1
 332 62 394 118 413 188 c 0
 430 253 439 304 439 340 c 1
 439 340 l 1
 439 397 424 409 400 409 c 0
 380 409 356 391 350 369 c 2
 264 49 l 1
EndSplineSet
EndChar

StartChar: uni02BB
Encoding: 699 699 216
Width: 159
GlyphClass: 2
Flags: W
TeX: 727 -591
LayerCount: 2
Fore
SplineSet
210 613 m 0
 210 617 210 621 212 624 c 2
 259 715 l 2
 263 723 271 727 279 727 c 0
 293 727 302 715 302 704 c 0
 302 700 301 697 299 694 c 2
 252 603 l 2
 248 595 240 591 232 591 c 0
 218 591 210 602 210 613 c 0
EndSplineSet
EndChar

StartChar: uni02BC
Encoding: 700 700 217
Width: 136
GlyphClass: 4
Flags: W
TeX: 636 -545
AnchorPoint: "Anchor-2" 233 614 mark 0
LayerCount: 2
Fore
SplineSet
198 568 m 2
 198 574 l 1
 211 620 l 2
 214 630 223 636 233 636 c 0
 247 636 255 625 255 614 c 0
 255 612 254 610 254 608 c 2
 242 562 l 2
 239 552 230 545 220 545 c 0
 206 545 198 557 198 568 c 2
EndSplineSet
EndChar

StartChar: uni02BD
Encoding: 701 701 218
Width: 159
GlyphClass: 2
Flags: W
TeX: 636 -500
LayerCount: 2
Fore
SplineSet
208 523 m 1
 209 614 l 2
 209 626 220 636 232 636 c 0
 244 636 255 626 255 614 c 2
 255 613 l 1
 253 522 l 2
 253 510 243 500 231 500 c 0
 219 500 208 511 208 523 c 1
 208 523 l 1
EndSplineSet
EndChar

StartChar: circumflex
Encoding: 710 710 219
Width: 227
GlyphClass: 4
Flags: W
TeX: 636 -545
AnchorPoint: "Anchor-1" 278 614 mark 0
LayerCount: 2
Fore
SplineSet
198 568 m 0
 198 575 202 581 207 586 c 2
 264 631 l 2
 268 634 274 636 279 636 c 0
 286 636 292 633 297 627 c 2
 330 581 l 2
 333 577 334 573 334 568 c 0
 334 556 325 545 312 545 c 0
 305 545 299 549 294 555 c 2
 274 581 l 1
 235 550 l 2
 231 547 226 545 221 545 c 0
 209 545 198 555 198 568 c 0
EndSplineSet
EndChar

StartChar: caron
Encoding: 711 711 220
Width: 227
GlyphClass: 4
Flags: W
TeX: 636 -545
AnchorPoint: "Anchor-1" 278 614 mark 0
LayerCount: 2
Fore
SplineSet
210 614 m 0
 210 626 220 636 233 636 c 0
 240 636 246 633 251 627 c 2
 271 600 l 1
 310 631 l 2
 314 634 319 636 324 636 c 0
 336 636 347 627 347 614 c 0
 347 607 343 601 338 596 c 2
 280 550 l 2
 275 546 271 545 266 545 c 0
 259 545 252 549 248 555 c 2
 215 600 l 2
 212 604 210 609 210 614 c 0
EndSplineSet
EndChar

StartChar: uni02C8
Encoding: 712 712 221
Width: 136
GlyphClass: 2
Flags: W
TeX: 636 -545
LayerCount: 2
Fore
SplineSet
198 568 m 2
 198 574 l 1
 211 620 l 2
 214 630 223 636 233 636 c 0
 247 636 255 625 255 614 c 0
 255 612 254 610 254 608 c 2
 242 562 l 2
 239 552 230 545 220 545 c 0
 206 545 198 557 198 568 c 2
EndSplineSet
EndChar

StartChar: uni02C9
Encoding: 713 713 222
Width: 227
GlyphClass: 2
Flags: W
TeX: 636 -591
LayerCount: 2
Fore
SplineSet
210 614 m 0
 210 626 221 636 233 636 c 2
 324 636 l 2
 336 636 347 626 347 614 c 0
 347 602 336 591 324 591 c 2
 233 591 l 2
 221 591 210 602 210 614 c 0
EndSplineSet
EndChar

StartChar: uni02CA
Encoding: 714 714 223
Width: 159
GlyphClass: 4
Flags: W
TeX: 636 -545
AnchorPoint: "Anchor-1" 255 614 mark 0
LayerCount: 2
Fore
SplineSet
198 568 m 0
 198 573 199 578 202 582 c 2
 237 628 l 2
 242 634 248 636 255 636 c 0
 268 636 278 626 278 614 c 0
 278 609 276 604 273 600 c 2
 238 554 l 2
 233 548 227 545 220 545 c 0
 207 545 198 556 198 568 c 0
EndSplineSet
EndChar

StartChar: uni02CB
Encoding: 715 715 224
Width: 159
GlyphClass: 2
Flags: W
TeX: 636 -545
LayerCount: 2
Fore
SplineSet
210 614 m 2
 210 625 219 636 233 636 c 0
 243 636 253 629 255 619 c 2
 265 573 l 2
 265 571 266 570 266 568 c 0
 266 557 257 545 243 545 c 0
 233 545 223 553 221 563 c 2
 210 609 l 1
 210 614 l 2
EndSplineSet
EndChar

StartChar: breve
Encoding: 728 728 225
Width: 227
GlyphClass: 4
Flags: W
TeX: 636 -545
AnchorPoint: "Anchor-1" 278 614 mark 0
LayerCount: 2
Fore
SplineSet
209 603 m 0
 209 621 216 636 233 636 c 0
 247 636 256 625 256 614 c 0
 256 610 254 606 254 603 c 0
 254 595 259 591 266 591 c 0
 278 591 298 606 302 620 c 0
 305 630 314 636 324 636 c 0
 338 636 347 625 347 614 c 0
 347 612 346 610 346 608 c 0
 337 573 302 545 266 545 c 0
 231 545 209 573 209 603 c 0
EndSplineSet
EndChar

StartChar: dotaccent
Encoding: 729 729 226
Width: 136
GlyphClass: 4
Flags: W
TeX: 637 -591
AnchorPoint: "Anchor-1" 233 614 mark 0
LayerCount: 2
Fore
SplineSet
210 614 m 0
 210 626 221 637 233 637 c 0
 245 637 255 626 255 614 c 0
 255 601 246 591 233 591 c 0
 220 591 210 601 210 614 c 0
EndSplineSet
EndChar

StartChar: ring
Encoding: 730 730 227
Width: 227
GlyphClass: 4
Flags: W
TeX: 636 -500
AnchorPoint: "Anchor-1" 278 614 mark 0
LayerCount: 2
Fore
SplineSet
229 568 m 0
 229 605 259 636 297 636 c 0
 335 636 365 605 365 568 c 0
 365 531 334 500 297 500 c 0
 259 500 229 530 229 568 c 0
274 568 m 0
 274 556 285 545 297 545 c 0
 309 545 319 556 319 568 c 0
 319 581 310 591 297 591 c 0
 285 591 274 580 274 568 c 0
EndSplineSet
EndChar

StartChar: ogonek
Encoding: 731 731 228
Width: 136
GlyphClass: 4
Flags: W
TeX: 0 91
AnchorPoint: "Anchor-0" 23 0 mark 0
LayerCount: 2
Fore
SplineSet
28 -68 m 2
 28 -62 l 1
 41 -17 l 2
 44 -7 53 0 63 0 c 0
 77 0 85 -12 85 -23 c 0
 85 -25 84 -27 84 -29 c 2
 72 -74 l 2
 69 -84 60 -91 50 -91 c 0
 36 -91 28 -79 28 -68 c 2
EndSplineSet
EndChar

StartChar: tilde
Encoding: 732 732 229
Width: 272
GlyphClass: 4
Flags: W
TeX: 648 -580
AnchorPoint: "Anchor-1" 301 614 mark 0
LayerCount: 2
Fore
SplineSet
210 614 m 0
 210 639 249 648 269 648 c 0
 312 648 320 625 331 625 c 0
 339 625 348 627 357 633 c 0
 361 635 365 636 369 636 c 0
 380 636 391 627 391 614 c 0
 391 589 351 580 331 580 c 0
 287 580 280 602 269 602 c 0
 261 602 255 601 245 595 c 0
 241 593 236 591 232 591 c 0
 221 591 210 601 210 614 c 0
EndSplineSet
EndChar

StartChar: hungarumlaut
Encoding: 733 733 230
Width: 295
GlyphClass: 4
Flags: W
TeX: 636 -545
AnchorPoint: "Anchor-1" 301 614 mark 0
LayerCount: 2
Fore
SplineSet
198 568 m 0
 198 573 199 578 202 582 c 2
 237 628 l 2
 242 634 248 636 255 636 c 0
 268 636 278 626 278 614 c 0
 278 609 276 604 273 600 c 2
 238 554 l 2
 233 548 227 545 220 545 c 0
 207 545 198 556 198 568 c 0
334 568 m 0
 334 573 335 578 338 582 c 2
 373 628 l 2
 378 634 384 636 391 636 c 0
 404 636 414 626 414 614 c 0
 414 609 412 604 409 600 c 2
 374 554 l 2
 369 548 363 545 356 545 c 0
 343 545 334 556 334 568 c 0
EndSplineSet
EndChar

StartChar: gravecomb
Encoding: 768 768 231
Width: 0
GlyphClass: 4
Flags: W
TeX: 636 -545
AnchorPoint: "Anchor-7" 165 614 mark 0
AnchorPoint: "Anchor-1" 165 614 mark 0
LayerCount: 2
Fore
SplineSet
142 614 m 2
 142 625 151 636 165 636 c 0
 175 636 185 629 187 619 c 2
 197 573 l 2
 197 571 198 570 198 568 c 0
 198 557 189 545 175 545 c 0
 165 545 155 553 153 563 c 2
 142 609 l 1
 142 614 l 2
EndSplineSet
EndChar

StartChar: acutecomb
Encoding: 769 769 232
Width: 0
GlyphClass: 4
Flags: W
TeX: 636 -545
AnchorPoint: "Anchor-7" 201 750 mark 0
AnchorPoint: "Anchor-1" 165 614 mark 0
LayerCount: 2
Fore
SplineSet
130 568 m 0
 130 573 131 578 134 582 c 2
 169 628 l 2
 174 634 180 636 187 636 c 0
 200 636 210 626 210 614 c 0
 210 609 208 604 205 600 c 2
 170 554 l 2
 165 548 159 545 152 545 c 0
 139 545 130 556 130 568 c 0
EndSplineSet
EndChar

StartChar: uni0302
Encoding: 770 770 233
Width: 0
GlyphClass: 4
Flags: W
TeX: 636 -545
AnchorPoint: "Anchor-7" 201 750 basemark 0
AnchorPoint: "Anchor-7" 165 614 mark 0
AnchorPoint: "Anchor-1" 165 614 mark 0
LayerCount: 2
Fore
SplineSet
84 568 m 0
 84 575 88 581 93 586 c 2
 150 631 l 2
 154 634 160 636 165 636 c 0
 172 636 178 633 183 627 c 2
 216 581 l 2
 219 577 220 573 220 568 c 0
 220 556 211 545 198 545 c 0
 191 545 185 549 180 555 c 2
 160 581 l 1
 121 550 l 2
 117 547 112 545 107 545 c 0
 95 545 84 555 84 568 c 0
EndSplineSet
EndChar

StartChar: tildecomb
Encoding: 771 771 234
Width: 0
GlyphClass: 4
Flags: W
TeX: 648 -580
AnchorPoint: "Anchor-7" 186 693 basemark 0
AnchorPoint: "Anchor-1" 165 614 mark 0
LayerCount: 2
Fore
SplineSet
74 614 m 0
 74 639 113 648 133 648 c 0
 176 648 184 625 195 625 c 0
 203 625 212 627 221 633 c 0
 225 635 229 636 233 636 c 0
 244 636 255 627 255 614 c 0
 255 589 215 580 195 580 c 0
 151 580 144 602 133 602 c 0
 125 602 119 601 109 595 c 0
 105 593 100 591 96 591 c 0
 85 591 74 601 74 614 c 0
EndSplineSet
EndChar

StartChar: uni0304
Encoding: 772 772 235
Width: 0
GlyphClass: 4
Flags: W
TeX: 636 -591
AnchorPoint: "Anchor-7" 201 750 basemark 0
AnchorPoint: "Anchor-7" 165 614 mark 0
AnchorPoint: "Anchor-1" 165 614 mark 0
LayerCount: 2
Fore
SplineSet
96 614 m 0
 96 626 107 636 119 636 c 2
 210 636 l 2
 222 636 233 626 233 614 c 0
 233 602 222 591 210 591 c 2
 119 591 l 2
 107 591 96 602 96 614 c 0
EndSplineSet
EndChar

StartChar: uni0305
Encoding: 773 773 236
Width: 0
GlyphClass: 4
Flags: W
TeX: 727 -682
AnchorPoint: "Anchor-1" 165 614 mark 0
LayerCount: 2
Fore
SplineSet
30 705 m 0
 30 717 40 727 52 727 c 2
 325 727 l 2
 337 727 348 717 348 705 c 0
 348 693 337 682 325 682 c 2
 52 682 l 2
 40 682 30 693 30 705 c 0
EndSplineSet
EndChar

StartChar: uni0306
Encoding: 774 774 237
Width: 0
GlyphClass: 4
Flags: W
TeX: 636 -545
AnchorPoint: "Anchor-7" 201 750 basemark 0
AnchorPoint: "Anchor-7" 165 614 mark 0
AnchorPoint: "Anchor-1" 165 614 mark 0
LayerCount: 2
Fore
SplineSet
95 603 m 0
 95 621 102 636 119 636 c 0
 133 636 142 625 142 614 c 0
 142 610 140 606 140 603 c 0
 140 595 145 591 152 591 c 0
 164 591 184 606 188 620 c 0
 191 630 200 636 210 636 c 0
 224 636 233 625 233 614 c 0
 233 612 232 610 232 608 c 0
 223 573 188 545 152 545 c 0
 117 545 95 573 95 603 c 0
EndSplineSet
EndChar

StartChar: uni0307
Encoding: 775 775 238
Width: 0
GlyphClass: 4
Flags: W
TeX: 637 -591
AnchorPoint: "Anchor-7" 201 750 basemark 0
AnchorPoint: "Anchor-7" 165 614 mark 0
AnchorPoint: "Anchor-1" 165 614 mark 0
LayerCount: 2
Fore
SplineSet
142 614 m 0
 142 626 153 637 165 637 c 0
 177 637 187 626 187 614 c 0
 187 601 178 591 165 591 c 0
 152 591 142 601 142 614 c 0
EndSplineSet
EndChar

StartChar: uni0308
Encoding: 776 776 239
Width: 0
GlyphClass: 4
Flags: W
TeX: 637 -591
AnchorPoint: "Anchor-7" 201 750 basemark 0
AnchorPoint: "Anchor-1" 165 614 mark 0
LayerCount: 2
Fore
SplineSet
210 614 m 0
 210 626 221 637 233 637 c 0
 245 637 255 626 255 614 c 0
 255 601 246 591 233 591 c 0
 220 591 210 601 210 614 c 0
74 614 m 0
 74 626 85 637 97 637 c 0
 109 637 119 626 119 614 c 0
 119 601 110 591 97 591 c 0
 84 591 74 601 74 614 c 0
EndSplineSet
EndChar

StartChar: uni030A
Encoding: 778 778 240
Width: 182
GlyphClass: 4
Flags: W
TeX: 636 -500
AnchorPoint: "Anchor-7" 183 750 basemark 0
AnchorPoint: "Anchor-7" 183 614 mark 0
AnchorPoint: "Anchor-1" 183 614 mark 0
LayerCount: 2
Fore
SplineSet
115 568 m 0
 115 605 145 636 183 636 c 0
 221 636 251 605 251 568 c 0
 251 531 220 500 183 500 c 0
 145 500 115 530 115 568 c 0
160 568 m 0
 160 556 171 545 183 545 c 0
 195 545 205 556 205 568 c 0
 205 581 196 591 183 591 c 0
 171 591 160 580 160 568 c 0
EndSplineSet
EndChar

StartChar: uni030B
Encoding: 779 779 241
Width: 0
GlyphClass: 4
Flags: W
TeX: 636 -545
AnchorPoint: "Anchor-7" 201 750 basemark 0
AnchorPoint: "Anchor-7" 165 614 mark 0
AnchorPoint: "Anchor-1" 165 614 mark 0
LayerCount: 2
Fore
SplineSet
39 568 m 0
 39 573 40 578 43 582 c 2
 78 628 l 2
 83 634 89 636 96 636 c 0
 109 636 119 626 119 614 c 0
 119 609 117 604 114 600 c 2
 79 554 l 2
 74 548 68 545 61 545 c 0
 48 545 39 556 39 568 c 0
175 568 m 0
 175 573 176 578 179 582 c 2
 214 628 l 2
 219 634 225 636 232 636 c 0
 245 636 255 626 255 614 c 0
 255 609 253 604 250 600 c 2
 215 554 l 2
 210 548 204 545 197 545 c 0
 184 545 175 556 175 568 c 0
EndSplineSet
EndChar

StartChar: uni030C
Encoding: 780 780 242
Width: 0
GlyphClass: 4
Flags: W
TeX: 636 -545
AnchorPoint: "Anchor-7" 201 750 basemark 0
AnchorPoint: "Anchor-7" 165 614 mark 0
AnchorPoint: "Anchor-1" 165 614 mark 0
LayerCount: 2
Fore
SplineSet
96 614 m 0
 96 626 106 636 119 636 c 0
 126 636 132 633 137 627 c 2
 157 600 l 1
 196 631 l 2
 200 634 205 636 210 636 c 0
 222 636 233 627 233 614 c 0
 233 607 229 601 224 596 c 2
 166 550 l 2
 161 546 157 545 152 545 c 0
 145 545 138 549 134 555 c 2
 101 600 l 2
 98 604 96 609 96 614 c 0
EndSplineSet
EndChar

StartChar: uni030D
Encoding: 781 781 243
Width: 0
GlyphClass: 4
Flags: W
TeX: 636 -545
AnchorPoint: "Anchor-7" 201 750 basemark 0
AnchorPoint: "Anchor-7" 165 614 mark 0
AnchorPoint: "Anchor-1" 165 614 mark 0
LayerCount: 2
Fore
SplineSet
130 568 m 2
 130 574 l 1
 143 620 l 2
 146 630 155 636 165 636 c 0
 179 636 187 625 187 614 c 0
 187 612 186 610 186 608 c 2
 174 562 l 2
 171 552 162 545 152 545 c 0
 138 545 130 557 130 568 c 2
EndSplineSet
EndChar

StartChar: uni030E
Encoding: 782 782 244
Width: 0
GlyphClass: 4
Flags: W
TeX: 636 -545
AnchorPoint: "Anchor-7" 201 750 basemark 0
AnchorPoint: "Anchor-7" 165 614 mark 0
AnchorPoint: "Anchor-1" 165 614 mark 0
LayerCount: 2
Fore
SplineSet
175 568 m 2
 175 574 l 1
 188 620 l 2
 191 630 200 636 210 636 c 0
 224 636 232 625 232 614 c 0
 232 612 231 610 231 608 c 2
 219 562 l 2
 216 552 207 545 197 545 c 0
 183 545 175 557 175 568 c 2
85 568 m 2
 85 574 l 1
 98 620 l 2
 101 630 110 636 120 636 c 0
 134 636 142 625 142 614 c 0
 142 612 141 610 141 608 c 2
 129 562 l 2
 126 552 117 545 107 545 c 0
 93 545 85 557 85 568 c 2
EndSplineSet
EndChar

StartChar: uni030F
Encoding: 783 783 245
Width: 0
GlyphClass: 4
Flags: W
TeX: 636 -545
AnchorPoint: "Anchor-7" 201 750 basemark 0
AnchorPoint: "Anchor-7" 165 614 mark 0
AnchorPoint: "Anchor-1" 165 614 mark 0
LayerCount: 2
Fore
SplineSet
187 614 m 2
 187 625 196 636 210 636 c 0
 220 636 230 629 232 619 c 2
 242 573 l 2
 242 571 243 570 243 568 c 0
 243 557 234 545 220 545 c 0
 210 545 200 553 198 563 c 2
 187 609 l 1
 187 614 l 2
97 614 m 2
 97 625 106 636 120 636 c 0
 130 636 140 629 142 619 c 2
 152 573 l 2
 152 571 153 570 153 568 c 0
 153 557 144 545 130 545 c 0
 120 545 110 553 108 563 c 2
 97 609 l 1
 97 614 l 2
EndSplineSet
EndChar

StartChar: uni0311
Encoding: 785 785 246
Width: 0
GlyphClass: 4
Flags: W
TeX: 636 -545
AnchorPoint: "Anchor-7" 201 750 basemark 0
AnchorPoint: "Anchor-7" 165 614 mark 0
AnchorPoint: "Anchor-1" 165 614 mark 0
LayerCount: 2
Fore
SplineSet
84 568 m 0
 84 570 85 572 85 574 c 0
 94 609 129 636 165 636 c 0
 200 636 222 609 222 579 c 0
 222 561 215 545 198 545 c 0
 184 545 175 557 175 568 c 0
 175 572 176 576 176 579 c 0
 176 587 172 591 165 591 c 0
 153 591 133 576 129 562 c 0
 126 552 117 545 107 545 c 0
 93 545 84 557 84 568 c 0
EndSplineSet
EndChar

StartChar: uni0312
Encoding: 786 786 247
Width: 0
GlyphClass: 4
Flags: W
TeX: 727 -591
AnchorPoint: "Anchor-7" 201 750 basemark 0
AnchorPoint: "Anchor-7" 165 614 mark 0
AnchorPoint: "Anchor-1" 165 614 mark 0
LayerCount: 2
Fore
SplineSet
142 613 m 0
 142 617 142 621 144 624 c 2
 191 715 l 2
 195 723 203 727 211 727 c 0
 225 727 234 715 234 704 c 0
 234 700 233 697 231 694 c 2
 184 603 l 2
 180 595 172 591 164 591 c 0
 150 591 142 602 142 613 c 0
EndSplineSet
EndChar

StartChar: uni0313
Encoding: 787 787 248
Width: 0
GlyphClass: 4
Flags: W
TeX: 636 -500
AnchorPoint: "Anchor-7" 201 750 basemark 0
AnchorPoint: "Anchor-7" 165 614 mark 0
AnchorPoint: "Anchor-1" 165 614 mark 0
LayerCount: 2
Fore
SplineSet
118 523 m 0
 118 527 118 530 120 533 c 2
 167 624 l 2
 171 632 179 636 187 636 c 0
 201 636 210 625 210 614 c 0
 210 610 209 606 207 603 c 2
 160 512 l 2
 156 504 148 500 140 500 c 0
 126 500 118 512 118 523 c 0
EndSplineSet
EndChar

StartChar: uni0314
Encoding: 788 788 249
Width: 0
GlyphClass: 4
Flags: W
TeX: 636 -500
AnchorPoint: "Anchor-7" 201 750 basemark 0
AnchorPoint: "Anchor-7" 165 614 mark 0
AnchorPoint: "Anchor-1" 165 614 mark 0
LayerCount: 2
Fore
SplineSet
117 523 m 1
 118 614 l 2
 118 626 129 636 141 636 c 0
 153 636 164 626 164 614 c 2
 164 613 l 1
 162 522 l 2
 162 510 152 500 140 500 c 0
 128 500 117 511 117 523 c 1
 117 523 l 1
EndSplineSet
EndChar

StartChar: uni0315
Encoding: 789 789 250
Width: 0
GlyphClass: 4
Flags: W
TeX: 636 -545
AnchorPoint: "Anchor-2" 165 614 mark 0
LayerCount: 2
Fore
SplineSet
130 568 m 2
 130 574 l 1
 143 620 l 2
 146 630 155 636 165 636 c 0
 179 636 187 625 187 614 c 0
 187 612 186 610 186 608 c 2
 174 562 l 2
 171 552 162 545 152 545 c 0
 138 545 130 557 130 568 c 2
EndSplineSet
EndChar

StartChar: uni0316
Encoding: 790 790 251
Width: 0
GlyphClass: 4
Flags: W
TeX: -46 137
AnchorPoint: "Anchor-3" -18 -68 mark 0
LayerCount: 2
Fore
SplineSet
-41 -68 m 2
 -41 -57 -32 -46 -18 -46 c 0
 -8 -46 2 -53 4 -63 c 2
 14 -109 l 2
 14 -111 15 -112 15 -114 c 0
 15 -125 6 -137 -8 -137 c 0
 -18 -137 -28 -129 -30 -119 c 2
 -41 -73 l 1
 -41 -68 l 2
EndSplineSet
EndChar

StartChar: uni0317
Encoding: 791 791 252
Width: 0
GlyphClass: 4
Flags: W
TeX: -46 137
AnchorPoint: "Anchor-3" -18 -68 mark 0
LayerCount: 2
Fore
SplineSet
-53 -114 m 0
 -53 -109 -52 -104 -49 -100 c 2
 -14 -54 l 2
 -9 -48 -3 -46 4 -46 c 0
 17 -46 27 -56 27 -68 c 0
 27 -73 25 -78 22 -82 c 2
 -13 -128 l 2
 -18 -134 -24 -137 -31 -137 c 0
 -44 -137 -53 -126 -53 -114 c 0
EndSplineSet
EndChar

StartChar: uni0326
Encoding: 806 806 253
Width: 0
GlyphClass: 4
Flags: W
TeX: -45 136
AnchorPoint: "Anchor-3" -18 -68 mark 0
LayerCount: 2
Fore
SplineSet
-53 -114 m 0
 -53 -112 -52 -110 -52 -108 c 2
 -40 -62 l 2
 -37 -52 -28 -45 -18 -45 c 0
 -4 -45 5 -57 5 -68 c 0
 5 -70 4 -72 4 -74 c 2
 -9 -120 l 2
 -12 -130 -20 -136 -30 -136 c 0
 -44 -136 -53 -125 -53 -114 c 0
EndSplineSet
EndChar

StartChar: uni0328
Encoding: 808 808 254
Width: 0
GlyphClass: 4
Flags: W
TeX: 0 91
AnchorPoint: "Anchor-0" 0 0 mark 0
LayerCount: 2
Fore
SplineSet
5 -68 m 2
 5 -62 l 1
 18 -17 l 2
 21 -7 30 0 40 0 c 0
 54 0 62 -12 62 -23 c 0
 62 -25 61 -27 61 -29 c 2
 49 -74 l 2
 46 -84 37 -91 27 -91 c 0
 13 -91 5 -79 5 -68 c 2
EndSplineSet
EndChar

StartChar: uni0332
Encoding: 818 818 255
Width: 0
GlyphClass: 2
Flags: W
TeX: -45 91
LayerCount: 2
Fore
SplineSet
-177 -68 m 0
 -177 -56 -167 -45 -155 -45 c 2
 118 -45 l 2
 130 -45 141 -56 141 -68 c 0
 141 -80 130 -91 118 -91 c 2
 -155 -91 l 2
 -167 -91 -177 -80 -177 -68 c 0
EndSplineSet
EndChar

StartChar: uni0333
Encoding: 819 819 256
Width: 0
GlyphClass: 2
Flags: W
TeX: -45 182
LayerCount: 2
Fore
SplineSet
-177 -68 m 0
 -177 -56 -167 -45 -155 -45 c 2
 118 -45 l 2
 130 -45 141 -56 141 -68 c 0
 141 -80 130 -91 118 -91 c 2
 -155 -91 l 2
 -167 -91 -177 -80 -177 -68 c 0
-202 -159 m 0
 -202 -147 -192 -136 -180 -136 c 2
 93 -136 l 2
 105 -136 116 -147 116 -159 c 0
 116 -171 105 -182 93 -182 c 2
 -180 -182 l 2
 -192 -182 -202 -171 -202 -159 c 0
EndSplineSet
EndChar

StartChar: uni0337
Encoding: 823 823 257
Width: 0
GlyphClass: 4
Flags: W
TeX: 455 0
AnchorPoint: "Anchor-5" 61 227 mark 0
LayerCount: 2
Fore
SplineSet
-153 23 m 0
 -153 28 -151 33 -147 38 c 2
 235 447 l 2
 240 452 246 455 252 455 c 0
 264 455 275 444 275 432 c 0
 275 427 273 421 269 416 c 2
 -114 7 l 2
 -119 2 -124 0 -130 0 c 0
 -142 0 -153 11 -153 23 c 0
EndSplineSet
EndChar

StartChar: uni0338
Encoding: 824 824 258
Width: 0
GlyphClass: 4
Flags: W
TeX: 636 0
AnchorPoint: "Anchor-5" 85 318 mark 0
LayerCount: 2
Fore
SplineSet
-153 23 m 0
 -153 28 -152 32 -149 36 c 2
 283 627 l 2
 288 633 294 636 301 636 c 0
 314 636 324 626 324 614 c 0
 324 609 322 604 319 600 c 2
 -112 10 l 2
 -117 4 -123 0 -130 0 c 0
 -143 0 -153 11 -153 23 c 0
EndSplineSet
EndChar

StartChar: uni033F
Encoding: 831 831 259
Width: 0
GlyphClass: 2
Flags: W
TeX: 819 -682
LayerCount: 2
Fore
SplineSet
54 796 m 0
 54 808 64 819 76 819 c 2
 349 819 l 2
 361 819 372 808 372 796 c 0
 372 784 361 773 349 773 c 2
 76 773 l 2
 64 773 54 784 54 796 c 0
29 705 m 0
 29 717 39 728 51 728 c 2
 324 728 l 2
 336 728 347 717 347 705 c 0
 347 693 336 682 324 682 c 2
 51 682 l 2
 39 682 29 693 29 705 c 0
EndSplineSet
EndChar

StartChar: uni0340
Encoding: 832 832 260
Width: 0
GlyphClass: 4
Flags: W
TeX: 636 -545
AnchorPoint: "Anchor-7" 165 614 mark 0
AnchorPoint: "Anchor-1" 165 614 mark 0
LayerCount: 2
Fore
SplineSet
142 614 m 2
 142 625 151 636 165 636 c 0
 175 636 185 629 187 619 c 2
 197 573 l 2
 197 571 198 570 198 568 c 0
 198 557 189 545 175 545 c 0
 165 545 155 553 153 563 c 2
 142 609 l 1
 142 614 l 2
EndSplineSet
EndChar

StartChar: uni0341
Encoding: 833 833 261
Width: 0
GlyphClass: 4
Flags: W
TeX: 636 -545
AnchorPoint: "Anchor-7" 165 614 mark 0
AnchorPoint: "Anchor-1" 165 614 mark 0
LayerCount: 2
Fore
SplineSet
130 568 m 0
 130 573 131 578 134 582 c 2
 169 628 l 2
 174 634 180 636 187 636 c 0
 200 636 210 626 210 614 c 0
 210 609 208 604 205 600 c 2
 170 554 l 2
 165 548 159 545 152 545 c 0
 139 545 130 556 130 568 c 0
EndSplineSet
EndChar

StartChar: tonos
Encoding: 900 900 262
Width: 181
GlyphClass: 4
Flags: W
TeX: 636 -500
AnchorPoint: "Anchor-7" 208 523 mark 0
AnchorPoint: "Anchor-6" 278 614 mark 0
LayerCount: 2
Fore
SplineSet
185 523 m 0
 185 528 187 533 190 537 c 2
 260 628 l 2
 265 634 271 636 278 636 c 0
 291 636 301 626 301 614 c 0
 301 609 299 604 296 600 c 2
 226 509 l 2
 221 503 215 500 208 500 c 0
 195 500 185 511 185 523 c 0
EndSplineSet
EndChar

StartChar: Alpha
Encoding: 913 913 263
Width: 454
GlyphClass: 2
Flags: W
TeX: 636 0
AnchorPoint: "Anchor-6" 301 614 basechar 0
AnchorPoint: "Anchor-1" 428 750 basechar 0
LayerCount: 2
Fore
SplineSet
51 23 m 0
 51 27 52 31 54 34 c 2
 371 625 l 2
 375 633 383 636 392 636 c 0
 404 636 415 626 415 614 c 2
 415 23 l 2
 415 11 404 0 392 0 c 0
 380 0 370 11 370 23 c 2
 370 182 l 1
 185 182 l 1
 94 12 l 2
 90 4 82 0 74 0 c 0
 60 0 51 12 51 23 c 0
210 227 m 1
 370 227 l 1
 370 525 l 1
 210 227 l 1
EndSplineSet
EndChar

StartChar: Beta
Encoding: 914 914 264
Width: 409
GlyphClass: 2
Flags: W
TeX: 636 0
AnchorPoint: "Anchor-1" 383 750 basechar 0
LayerCount: 2
Fore
SplineSet
51 19 m 0
 51 24 52 28 52 29 c 2
 211 620 l 2
 213 629 222 636 233 636 c 2
 346 636 l 2
 421 636 473 582 473 512 c 0
 473 499 472 485 468 471 c 0
 453 415 411 367 359 340 c 1
 398 315 418 273 418 225 c 0
 418 209 416 193 411 176 c 0
 384 76 289 0 188 0 c 2
 74 0 l 2
 54 0 51 11 51 19 c 0
104 45 m 1
 188 45 l 2
 267 45 347 108 368 188 c 0
 372 201 373 213 373 225 c 1
 373 225 l 1
 373 280 338 318 273 318 c 2
 177 318 l 1
 104 45 l 1
189 364 m 1
 273 364 l 2
 283 364 294 365 305 368 c 0
 359 382 410 430 424 483 c 0
 427 493 428 503 428 513 c 0
 428 558 397 591 346 591 c 2
 250 591 l 1
 189 364 l 1
EndSplineSet
EndChar

StartChar: Gamma
Encoding: 915 915 265
Width: 363
GlyphClass: 2
Flags: W
TeX: 636 0
AnchorPoint: "Anchor-1" 383 750 basechar 0
LayerCount: 2
Fore
SplineSet
51 23 m 0
 51 25 52 27 52 29 c 2
 211 620 l 2
 213 629 222 636 233 636 c 2
 460 636 l 2
 472 636 483 626 483 614 c 0
 483 602 472 591 460 591 c 2
 250 591 l 1
 96 17 l 2
 93 7 84 0 74 0 c 0
 60 0 51 12 51 23 c 0
EndSplineSet
EndChar

StartChar: uni0394
Encoding: 916 916 266
Width: 454
GlyphClass: 2
Flags: W
TeX: 636 0
AnchorPoint: "Anchor-1" 428 750 basechar 0
LayerCount: 2
Fore
SplineSet
52 23 m 0
 52 27 53 31 55 35 c 2
 371 625 l 2
 375 633 383 636 392 636 c 0
 404 636 415 626 415 614 c 2
 415 24 l 2
 415 10 404 0 392 0 c 2
 74 0 l 2
 61 0 52 11 52 23 c 0
112 45 m 1
 370 45 l 1
 370 525 l 1
 112 45 l 1
EndSplineSet
EndChar

StartChar: Epsilon
Encoding: 917 917 267
Width: 363
GlyphClass: 2
Flags: W
TeX: 636 0
AnchorPoint: "Anchor-6" 142 614 basechar 0
AnchorPoint: "Anchor-1" 383 750 basechar 0
LayerCount: 2
Fore
SplineSet
51 19 m 0
 51 24 52 28 52 29 c 2
 211 620 l 2
 213 629 222 636 233 636 c 2
 460 636 l 2
 472 636 483 626 483 614 c 0
 483 602 472 591 460 591 c 2
 250 591 l 1
 189 364 l 1
 296 364 l 2
 308 364 319 353 319 341 c 0
 319 329 308 318 296 318 c 2
 177 318 l 1
 104 45 l 1
 301 45 l 2
 313 45 324 35 324 23 c 0
 324 11 313 0 301 0 c 2
 74 0 l 2
 54 0 51 11 51 19 c 0
EndSplineSet
EndChar

StartChar: Zeta
Encoding: 918 918 268
Width: 409
GlyphClass: 2
Flags: W
TeX: 636 0
AnchorPoint: "Anchor-1" 405 750 basechar 0
LayerCount: 2
Fore
SplineSet
51 23 m 0
 51 28 53 33 56 37 c 2
 460 591 l 1
 233 591 l 2
 221 591 210 602 210 614 c 0
 210 626 221 636 233 636 c 2
 505 636 l 2
 517 636 528 626 528 614 c 0
 528 609 526 604 523 600 c 2
 119 45 l 1
 347 45 l 2
 359 45 370 35 370 23 c 0
 370 11 359 0 347 0 c 2
 74 0 l 2
 62 0 51 11 51 23 c 0
EndSplineSet
EndChar

StartChar: Eta
Encoding: 919 919 269
Width: 409
GlyphClass: 2
Flags: W
TeX: 636 0
AnchorPoint: "Anchor-6" 142 614 basechar 0
AnchorPoint: "Anchor-1" 405 750 basechar 0
LayerCount: 2
Fore
SplineSet
51 23 m 0
 51 25 52 27 52 29 c 2
 211 620 l 2
 214 630 223 636 233 636 c 0
 247 636 255 625 255 614 c 2
 255 608 l 1
 189 364 l 1
 415 364 l 1
 484 620 l 2
 487 630 495 636 505 636 c 0
 519 636 528 625 528 614 c 0
 528 612 527 610 527 608 c 2
 455 336 l 1
 454 335 l 1
 369 17 l 2
 366 7 357 0 347 0 c 0
 333 0 324 12 324 23 c 0
 324 25 325 27 325 29 c 2
 403 318 l 1
 177 318 l 1
 96 17 l 2
 93 7 84 0 74 0 c 0
 60 0 51 12 51 23 c 0
EndSplineSet
EndChar

StartChar: Theta
Encoding: 920 920 270
Width: 409
GlyphClass: 2
Flags: W
TeX: 636 0
AnchorPoint: "Anchor-1" 405 750 basechar 0
LayerCount: 2
Fore
SplineSet
84 125 m 0
 84 138 85 151 89 165 c 2
 174 483 l 2
 197 568 283 636 369 636 c 0
 448 636 496 579 496 511 c 0
 496 498 494 485 490 471 c 2
 405 153 l 2
 382 68 296 0 210 0 c 0
 131 0 84 57 84 125 c 0
129 124 m 0
 129 78 160 45 210 45 c 0
 273 45 345 100 362 165 c 2
 447 483 l 2
 450 493 451 504 451 513 c 0
 451 559 419 591 369 591 c 0
 306 591 235 536 218 471 c 2
 133 153 l 2
 130 143 129 133 129 124 c 0
228 341 m 0
 228 353 238 364 250 364 c 2
 341 364 l 2
 353 364 364 353 364 341 c 0
 364 329 353 318 341 318 c 2
 250 318 l 2
 238 318 228 329 228 341 c 0
EndSplineSet
EndChar

StartChar: Iota
Encoding: 921 921 271
Width: 136
GlyphClass: 2
Flags: W
TeX: 636 0
AnchorPoint: "Anchor-6" 142 614 basechar 0
AnchorPoint: "Anchor-1" 269 750 basechar 0
LayerCount: 2
Fore
SplineSet
51 23 m 0
 51 25 52 27 52 29 c 2
 211 620 l 2
 214 630 223 636 233 636 c 0
 247 636 255 625 255 614 c 2
 255 608 l 1
 96 17 l 2
 93 7 84 0 74 0 c 0
 60 0 51 12 51 23 c 0
EndSplineSet
EndChar

StartChar: Kappa
Encoding: 922 922 272
Width: 409
GlyphClass: 2
Flags: W
TeX: 636 0
AnchorPoint: "Anchor-1" 405 750 basechar 0
LayerCount: 2
Fore
SplineSet
51 23 m 0
 51 25 52 27 52 29 c 2
 113 255 l 2
 113 256 114 256 114 257 c 2
 211 620 l 2
 214 630 223 636 233 636 c 0
 247 636 255 625 255 614 c 2
 255 608 l 1
 179 325 l 1
 490 630 l 2
 495 634 499 636 505 636 c 0
 517 636 528 626 528 614 c 0
 528 608 526 602 521 597 c 2
 280 360 l 1
 369 29 l 2
 369 27 370 25 370 23 c 0
 370 12 361 0 347 0 c 0
 337 0 328 7 325 17 c 2
 243 324 l 1
 155 238 l 1
 96 17 l 2
 93 7 84 0 74 0 c 0
 60 0 51 12 51 23 c 0
EndSplineSet
EndChar

StartChar: Lambda
Encoding: 923 923 273
Width: 454
GlyphClass: 2
Flags: W
TeX: 636 0
AnchorPoint: "Anchor-1" 428 750 basechar 0
LayerCount: 2
Fore
SplineSet
51 23 m 0
 51 27 52 31 54 34 c 2
 371 625 l 2
 375 633 383 636 392 636 c 0
 404 636 415 626 415 614 c 2
 415 23 l 2
 415 11 404 0 392 0 c 0
 380 0 370 11 370 23 c 2
 370 525 l 1
 94 12 l 2
 90 4 82 0 74 0 c 0
 60 0 51 12 51 23 c 0
EndSplineSet
EndChar

StartChar: Mu
Encoding: 924 924 274
Width: 500
GlyphClass: 2
Flags: W
TeX: 636 0
AnchorPoint: "Anchor-1" 451 750 basechar 0
LayerCount: 2
Fore
SplineSet
51 23 m 0
 51 25 52 27 52 29 c 2
 211 620 l 2
 214 630 223 636 233 636 c 0
 243 636 252 630 255 620 c 2
 338 341 l 1
 578 628 l 2
 583 633 588 636 596 636 c 0
 610 636 619 625 619 614 c 0
 619 612 618 610 618 608 c 2
 460 17 l 2
 457 7 448 0 438 0 c 0
 424 0 415 12 415 23 c 0
 415 25 416 27 416 29 c 2
 548 521 l 1
 347 281 l 2
 342 276 337 273 330 273 c 0
 320 273 309 279 306 289 c 2
 234 531 l 1
 96 17 l 2
 93 7 84 0 74 0 c 0
 60 0 51 12 51 23 c 0
EndSplineSet
EndChar

StartChar: Nu
Encoding: 925 925 275
Width: 409
GlyphClass: 2
Flags: W
TeX: 636 0
AnchorPoint: "Anchor-1" 405 750 basechar 0
LayerCount: 2
Fore
SplineSet
51 23 m 0
 51 25 52 27 52 29 c 2
 211 620 l 2
 214 630 223 636 233 636 c 0
 243 636 253 629 255 618 c 2
 350 123 l 1
 484 620 l 2
 487 630 495 636 505 636 c 0
 519 636 528 625 528 614 c 0
 528 612 527 610 527 608 c 2
 369 17 l 2
 366 7 356 0 346 0 c 0
 336 0 326 8 324 19 c 2
 229 513 l 1
 96 17 l 2
 93 7 84 0 74 0 c 0
 60 0 51 12 51 23 c 0
EndSplineSet
EndChar

StartChar: Xi
Encoding: 926 926 276
Width: 409
GlyphClass: 2
Flags: W
TeX: 636 0
AnchorPoint: "Anchor-1" 405 750 basechar 0
LayerCount: 2
Fore
SplineSet
51 23 m 0
 51 35 62 45 74 45 c 2
 347 45 l 2
 359 45 370 35 370 23 c 0
 370 11 359 0 347 0 c 2
 74 0 l 2
 62 0 51 11 51 23 c 0
205 341 m 0
 205 353 216 364 228 364 c 2
 364 364 l 2
 376 364 387 353 387 341 c 0
 387 329 376 318 364 318 c 2
 228 318 l 2
 216 318 205 329 205 341 c 0
210 614 m 0
 210 626 221 636 233 636 c 2
 505 636 l 2
 517 636 528 626 528 614 c 0
 528 602 517 591 505 591 c 2
 233 591 l 2
 221 591 210 602 210 614 c 0
EndSplineSet
EndChar

StartChar: Omicron
Encoding: 927 927 277
Width: 409
GlyphClass: 2
Flags: W
TeX: 636 0
AnchorPoint: "Anchor-6" 210 614 basechar 0
AnchorPoint: "Anchor-1" 405 750 basechar 0
LayerCount: 2
Fore
SplineSet
84 125 m 0
 84 138 85 151 89 165 c 2
 174 483 l 2
 197 568 283 636 369 636 c 0
 448 636 496 579 496 511 c 0
 496 498 494 485 490 471 c 2
 405 153 l 2
 382 68 296 0 210 0 c 0
 131 0 84 57 84 125 c 0
129 124 m 0
 129 78 160 45 210 45 c 0
 273 45 345 100 362 165 c 2
 447 483 l 2
 450 493 451 504 451 513 c 0
 451 559 419 591 369 591 c 0
 306 591 235 536 218 471 c 2
 133 153 l 2
 130 143 129 133 129 124 c 0
EndSplineSet
EndChar

StartChar: Pi
Encoding: 928 928 278
Width: 409
GlyphClass: 2
Flags: W
TeX: 636 0
AnchorPoint: "Anchor-1" 405 750 basechar 0
LayerCount: 2
Fore
SplineSet
51 23 m 0
 51 25 52 27 52 29 c 2
 211 620 l 2
 214 630 224 636 233 636 c 2
 505 636 l 1
 506 636 l 2
 510 636 529 636 529 618 c 0
 529 615 528 612 527 608 c 2
 369 17 l 2
 366 7 357 0 347 0 c 0
 333 0 324 12 324 23 c 0
 324 25 325 27 325 29 c 2
 476 591 l 1
 250 591 l 1
 96 17 l 2
 93 7 84 0 74 0 c 0
 60 0 51 12 51 23 c 0
EndSplineSet
Substitution2: "'mgrk' Mathematical Greek in Greek lookup 31 subtable" product
EndChar

StartChar: Rho
Encoding: 929 929 279
Width: 409
GlyphClass: 2
Flags: W
TeX: 636 0
AnchorPoint: "Anchor-1" 383 750 basechar 0
LayerCount: 2
Fore
SplineSet
51 23 m 0
 51 25 52 27 52 29 c 2
 125 300 l 1
 125 303 l 1
 211 620 l 2
 213 629 222 636 233 636 c 2
 346 636 l 2
 431 636 491 579 491 498 c 0
 491 482 490 466 485 449 c 0
 458 350 364 273 261 273 c 2
 165 273 l 1
 96 17 l 2
 93 7 84 0 74 0 c 0
 60 0 51 12 51 23 c 0
177 318 m 1
 261 318 l 2
 341 318 420 380 441 460 c 0
 445 473 446 487 446 498 c 1
 446 498 l 1
 446 553 410 591 346 591 c 2
 250 591 l 1
 177 318 l 1
EndSplineSet
EndChar

StartChar: Sigma
Encoding: 931 931 280
Width: 409
GlyphClass: 2
Flags: W
TeX: 636 0
AnchorPoint: "Anchor-1" 405 750 basechar 0
LayerCount: 2
Fore
SplineSet
48 16 m 0
 48 26 56 36 56 36 c 1
 266 324 l 1
 210 609 l 1
 210 616 l 2
 210 634 228 636 233 636 c 2
 505 636 l 2
 517 636 528 626 528 614 c 0
 528 602 517 591 505 591 c 2
 260 591 l 1
 312 323 l 2
 312 322 313 320 313 319 c 0
 313 314 311 309 308 305 c 2
 119 45 l 1
 347 45 l 2
 359 45 370 35 370 23 c 0
 370 11 359 0 347 0 c 2
 74 0 l 2
 54 0 48 8 48 16 c 0
EndSplineSet
Substitution2: "'mgrk' Mathematical Greek in Greek lookup 31 subtable" summation
EndChar

StartChar: Tau
Encoding: 932 932 281
Width: 409
GlyphClass: 2
Flags: W
TeX: 636 0
AnchorPoint: "Anchor-1" 405 750 basechar 0
LayerCount: 2
Fore
SplineSet
188 23 m 0
 188 25 189 27 189 29 c 2
 340 591 l 1
 233 591 l 2
 221 591 210 602 210 614 c 0
 210 626 221 636 233 636 c 2
 505 636 l 2
 517 636 528 626 528 614 c 0
 528 602 517 591 505 591 c 2
 386 591 l 1
 232 17 l 2
 229 7 220 0 210 0 c 0
 196 0 188 12 188 23 c 0
EndSplineSet
EndChar

StartChar: Upsilon
Encoding: 933 933 282
Width: 454
GlyphClass: 2
Flags: W
TeX: 636 0
AnchorPoint: "Anchor-6" 142 614 basechar 0
AnchorPoint: "Anchor-1" 428 750 basechar 0
LayerCount: 2
Fore
SplineSet
210 614 m 0
 210 625 219 636 233 636 c 0
 243 636 252 630 255 620 c 2
 323 367 l 1
 533 628 l 2
 538 633 544 636 551 636 c 0
 564 636 574 626 574 614 c 0
 574 609 572 604 569 600 c 2
 334 308 l 1
 255 17 l 2
 252 7 243 0 233 0 c 0
 219 0 210 12 210 23 c 0
 210 25 211 27 211 29 c 2
 289 318 l 1
 211 608 l 2
 211 610 210 612 210 614 c 0
EndSplineSet
EndChar

StartChar: Phi
Encoding: 934 934 283
Width: 454
GlyphClass: 2
Flags: W
TeX: 637 0
AnchorPoint: "Anchor-1" 428 750 basechar 0
LayerCount: 2
Fore
SplineSet
113 232 m 0
 113 247 116 263 120 279 c 2
 144 370 l 2
 169 462 260 536 350 545 c 1
 370 620 l 2
 373 630 382 637 392 637 c 0
 406 637 415 626 415 615 c 0
 415 613 414 611 414 609 c 2
 396 543 l 1
 468 531 512 474 512 404 c 0
 512 389 509 373 505 358 c 2
 481 267 l 2
 456 175 367 101 275 92 c 1
 255 17 l 2
 252 7 243 0 233 0 c 0
 219 0 210 12 210 23 c 0
 210 25 211 27 211 29 c 2
 229 93 l 1
 158 105 113 162 113 232 c 0
158 231 m 0
 158 180 190 145 240 138 c 1
 337 496 l 1
 272 481 205 424 187 358 c 2
 163 267 l 2
 160 254 158 242 158 231 c 0
288 140 m 1
 354 154 420 212 438 279 c 2
 462 370 l 2
 465 382 466 394 466 405 c 0
 466 456 435 492 385 499 c 1
 288 140 l 1
EndSplineSet
EndChar

StartChar: Chi
Encoding: 935 935 284
Width: 454
GlyphClass: 2
Flags: W
TeX: 636 0
AnchorPoint: "Anchor-1" 428 750 basechar 0
LayerCount: 2
Fore
SplineSet
51 23 m 0
 51 28 53 33 56 37 c 2
 288 324 l 1
 211 608 l 2
 211 610 210 612 210 614 c 0
 210 625 219 636 233 636 c 0
 243 636 252 630 255 620 c 2
 323 367 l 1
 533 628 l 2
 538 633 544 636 551 636 c 0
 564 636 574 626 574 614 c 0
 574 609 572 604 569 600 c 2
 337 313 l 1
 414 29 l 2
 414 27 415 25 415 23 c 0
 415 12 406 0 392 0 c 0
 382 0 373 7 370 17 c 2
 302 269 l 1
 92 9 l 2
 87 4 81 0 74 0 c 0
 61 0 51 11 51 23 c 0
EndSplineSet
EndChar

StartChar: Psi
Encoding: 936 936 285
Width: 454
GlyphClass: 2
Flags: W
TeX: 636 0
AnchorPoint: "Anchor-1" 428 750 basechar 0
LayerCount: 2
Fore
SplineSet
137 324 m 0
 137 339 140 355 144 370 c 2
 211 620 l 2
 214 630 223 636 233 636 c 0
 247 636 255 625 255 614 c 2
 255 608 l 1
 187 358 l 2
 184 346 183 334 183 323 c 0
 183 272 215 236 265 229 c 1
 370 620 l 2
 373 630 382 636 392 636 c 0
 406 636 415 625 415 614 c 0
 415 612 414 610 414 608 c 2
 313 230 l 1
 379 244 444 304 462 370 c 2
 529 620 l 2
 532 630 541 636 551 636 c 0
 565 636 574 625 574 614 c 0
 574 612 573 610 573 608 c 2
 505 358 l 2
 480 267 392 192 300 183 c 1
 255 17 l 2
 252 7 243 0 233 0 c 0
 219 0 210 12 210 23 c 0
 210 25 211 27 211 29 c 2
 253 184 l 1
 182 197 137 254 137 324 c 0
EndSplineSet
EndChar

StartChar: uni03A9
Encoding: 937 937 286
Width: 454
GlyphClass: 2
Flags: W
TeX: 636 0
AnchorPoint: "Anchor-6" 210 614 basechar 0
AnchorPoint: "Anchor-1" 428 750 basechar 0
LayerCount: 2
Fore
SplineSet
97 23 m 0
 97 35 108 45 120 45 c 2
 170 45 l 1
 190 117 l 1
 140 129 108 172 108 222 c 0
 108 233 110 244 113 256 c 2
 168 460 l 2
 194 558 293 636 392 636 c 0
 477 636 536 575 536 495 c 0
 536 480 535 465 530 449 c 2
 475 244 l 2
 457 178 395 124 327 115 c 1
 308 45 l 1
 347 45 l 2
 359 45 370 35 370 23 c 0
 370 11 359 0 347 0 c 2
 279 0 l 1
 278 0 l 2
 274 0 255 1 255 19 c 0
 255 22 256 25 257 29 c 2
 287 142 l 2
 290 152 300 159 309 159 c 0
 360 159 417 204 431 256 c 2
 486 460 l 2
 489 472 491 485 491 496 c 0
 491 551 454 591 392 591 c 0
 316 591 233 527 212 449 c 2
 157 244 l 2
 155 236 154 227 154 220 c 0
 154 185 178 159 218 159 c 2
 219 159 l 2
 223 159 241 158 241 140 c 0
 241 137 241 134 240 130 c 2
 210 17 l 2
 207 7 197 0 188 0 c 2
 120 0 l 2
 108 0 97 11 97 23 c 0
EndSplineSet
EndChar

StartChar: alpha
Encoding: 945 945 287
Width: 454
GlyphClass: 2
Flags: W
TeX: 455 0
AnchorPoint: "Anchor-1" 324 614 basechar 0
LayerCount: 2
Fore
SplineSet
73 91 m 0
 73 100 74 110 77 120 c 2
 138 347 l 2
 154 407 213 455 275 455 c 0
 325 455 368 418 368 368 c 2
 368 316 l 1
 437 443 l 2
 441 451 449 455 457 455 c 0
 471 455 480 443 480 432 c 0
 480 428 479 424 477 421 c 2
 369 221 l 1
 370 45 l 1
 383 45 392 35 392 23 c 0
 392 11 382 0 370 0 c 2
 347 0 l 2
 336 0 324 10 324 23 c 2
 324 139 l 1
 290 76 l 2
 267 33 214 0 165 0 c 0
 107 0 73 42 73 91 c 0
118 90 m 0
 118 63 136 45 165 45 c 0
 195 45 235 70 250 98 c 2
 323 233 l 1
 322 368 l 2
 322 389 303 409 275 409 c 0
 236 409 191 375 181 335 c 2
 120 108 l 2
 118 101 118 95 118 90 c 0
EndSplineSet
EndChar

StartChar: beta
Encoding: 946 946 288
Width: 363
GlyphClass: 2
Flags: W
TeX: 636 182
AnchorPoint: "Anchor-1" 324 614 basechar 0
LayerCount: 2
Fore
SplineSet
3 -159 m 0
 3 -157 4 -155 4 -153 c 2
 180 506 l 2
 198 574 264 636 335 636 c 0
 400 636 434 586 434 531 c 0
 434 519 432 506 429 494 c 0
 418 451 388 413 351 389 c 1
 379 369 395 337 395 301 c 0
 395 290 393 278 390 267 c 2
 354 130 l 2
 335 59 262 0 188 0 c 2
 165 0 l 2
 153 0 142 11 142 23 c 0
 142 35 153 45 165 45 c 2
 188 45 l 2
 239 45 296 91 310 142 c 2
 347 279 l 2
 349 287 350 294 350 301 c 0
 350 337 324 364 285 364 c 2
 274 364 l 1
 274 369 l 1
 274 404 l 1
 274 409 l 1
 283 409 291 411 300 414 c 0
 343 429 389 476 389 532 c 0
 389 567 368 591 335 591 c 0
 290 591 238 545 224 494 c 2
 47 -165 l 2
 44 -175 35 -182 25 -182 c 0
 11 -182 3 -170 3 -159 c 0
EndSplineSet
EndChar

StartChar: gamma
Encoding: 947 947 289
Width: 363
GlyphClass: 2
Flags: W
TeX: 455 182
AnchorPoint: "Anchor-1" 324 614 basechar 0
LayerCount: 2
Fore
SplineSet
129 -135 m 0
 129 -95 149 -34 166 29 c 0
 187 109 213 175 243 235 c 1
 243 243 l 1
 243 265 l 2
 240 378 212 409 184 409 c 0
 172 409 161 420 161 432 c 0
 161 444 172 455 184 455 c 0
 249 455 277 392 285 308 c 1
 316 356 353 401 395 447 c 0
 400 452 405 455 411 455 c 0
 424 455 434 444 434 432 c 0
 434 427 432 420 428 416 c 0
 370 352 326 295 288 223 c 1
 286 161 275 92 255 17 c 0
 225 -94 208 -182 162 -182 c 0
 138 -182 129 -160 129 -135 c 0
EndSplineSet
EndChar

StartChar: delta
Encoding: 948 948 290
Width: 363
GlyphClass: 2
Flags: W
TeX: 636 0
AnchorPoint: "Anchor-1" 383 750 basechar 0
LayerCount: 2
Fore
SplineSet
78 109 m 0
 78 120 80 131 83 142 c 2
 132 324 l 2
 151 396 224 455 298 455 c 1
 253 515 l 2
 245 526 241 539 241 553 c 0
 241 610 287 636 338 636 c 0
 372 636 401 622 423 595 c 0
 426 591 428 585 428 580 c 0
 428 568 418 557 405 557 c 0
 398 557 393 560 388 565 c 0
 373 583 358 591 338 591 c 0
 301 591 286 579 286 552 c 0
 286 547 287 545 289 543 c 2
 387 412 l 2
 400 394 407 370 407 346 c 0
 407 335 406 323 403 312 c 2
 354 130 l 2
 335 58 261 0 188 0 c 0
 120 0 78 51 78 109 c 0
123 108 m 0
 123 72 149 45 188 45 c 0
 238 45 296 90 310 142 c 2
 359 324 l 2
 361 332 362 340 362 347 c 0
 362 385 336 409 298 409 c 0
 248 409 189 364 175 312 c 2
 126 130 l 2
 124 122 123 115 123 108 c 0
EndSplineSet
EndChar

